PendotLSource-Regular.glyphspackage
{
glyphname = exclam;
layers = (
{
layerId = m01;
shapes = (
{
ref = period;
},
{
closed = 0;
nodes = (
(310,1700,l),
(310,1600,o),
(310,500,o),
(310,400,c)
);
}
);
width = 620;
},
{
layerId = "FDE4885D-BB7A-448A-91AC-7911E70BCCB6";
shapes = (
{
pos = (310,0);
ref = _dot;
},
{
pos = (310,1700);
ref = _dot;
},
{
pos = (310,400);
ref = _dot;
},
{
pos = (310,1591.667);
ref = _dot;
},
{
pos = (310,1483.333);
ref = _dot;
},
{
pos = (310,1375);
ref = _dot;
},
{
pos = (310,1266.667);
ref = _dot;
},
{
pos = (310,1158.333);
ref = _dot;
},
{
pos = (310,1050);
ref = _dot;
},
{
pos = (310,941.667);
ref = _dot;
},
{
pos = (310,833.333);
ref = _dot;
},
{
pos = (310,725);
ref = _dot;
},
{
pos = (310,616.667);
ref = _dot;
},
{
pos = (310,508.333);
ref = _dot;
}
);
width = 620;
}
);
unicode = 33;
}
{
glyphname = quotesingle;
layers = (
{
layerId = m01;
shapes = (
{
closed = 0;
nodes = (
(310,1700,l),
(310,1600,o),
(310,1300,o),
(310,1200,c)
);
}
);
width = 620;
},
{
layerId = "FDE4885D-BB7A-448A-91AC-7911E70BCCB6";
shapes = (
{
closed = 1;
nodes = (
(275,1723.333,o),
(275,1700,c),
(275,1533.333,o),
(275,1366.667,o),
(275,1200,c),
(275,1176.667,o),
(292.5,1165,o),
(310,1165,c),
(327.5,1165,o),
(345,1176.667,o),
(345,1200,c),
(345,1366.667,o),
(345,1533.333,o),
(345,1700,c),
(345,1723.333,o),
(327.5,1735,o),
(310,1735,c),
(292.5,1735,o)
);
}
);
width = 620;
}
);
unicode = 39;
}
{
glyphname = parenright;
layers = (
{
layerId = m01;
shapes = (
{
closed = 0;
nodes = (
(250,1800,l),
(430,1620,o),
(580,1300,o),
(580,850,cs),
(580,400,o),
(430,80,o),
(250,-100,c)
);
}
);
width = 830;
},
{
layerId = "FDE4885D-BB7A-448A-91AC-7911E70BCCB6";
shapes = (
{
closed = 1;
nodes = (
(208.752,1791.75,o),
(225.251,1775.251,c),
(462.283,1538.22,o),
(545,1174.702,o),
(545,850,c),
(545,525.298,o),
(462.283,161.78,o),
(225.251,-75.251,c),
(208.752,-91.75,o),
(212.877,-112.374,o),
(225.251,-124.749,c),
(237.626,-137.123,o),
(258.25,-141.248,o),
(274.749,-124.749,c),
(525.285,125.787,o),
(615,506.189,o),
(615,850,c),
(615,1193.811,o),
(525.285,1574.213,o),
(274.749,1824.749,c),
(258.25,1841.248,o),
(237.626,1837.123,o),
(225.251,1824.749,c),
(212.877,1812.374,o)
);
}
);
width = 830;
}
);
unicode = 41;
}
{
glyphname = asterisk;
layers = (
{
layerId = m01;
shapes = (
{
closed = 0;
nodes = (
(596,1700,l),
(596,1600,o),
(596,1000,o),
(596,900,c)
);
},
{
closed = 0;
nodes = (
(942,1100,l),
(856,1150,o),
(336,1450,o),
(250,1500,c)
);
},
{
closed = 0;
nodes = (
(250,1100,l),
(336,1150,o),
(856,1450,o),
(942,1500,c)
);
}
);
width = 1192;
},
{
layerId = "FDE4885D-BB7A-448A-91AC-7911E70BCCB6";
shapes = (
{
pos = (596,1700);
ref = _dot;
},
{
pos = (596,1300);
ref = _dot;
},
{
pos = (596,900);
ref = _dot;
},
{
pos = (942,1100);
ref = _dot;
},
{
pos = (250,1500);
ref = _dot;
},
{
pos = (250,1100);
ref = _dot;
},
{
pos = (942,1500);
ref = _dot;
},
{
pos = (596,1619.796);
ref = _dot;
},
{
pos = (596,1539.49);
ref = _dot;
},
{
pos = (596,1459.026);
ref = _dot;
},
{
pos = (596,1378.845);
ref = _dot;
},
{
pos = (596,1219.607);
ref = _dot;
},
{
pos = (596,1139.508);
ref = _dot;
},
{
pos = (596,1059.199);
ref = _dot;
},
{
pos = (596,979.16);
ref = _dot;
},
{
pos = (872.76,1140.102);
ref = _dot;
},
{
pos = (803.298,1180.255);
ref = _dot;
},
{
pos = (734.086,1220.243);
ref = _dot;
},
{
pos = (664.703,1260.319);
ref = _dot;
},
{
pos = (526.403,1340.197);
ref = _dot;
},
{
pos = (457.069,1380.246);
ref = _dot;
},
{
pos = (387.568,1420.401);
ref = _dot;
},
{
pos = (318.338,1460.42);
ref = _dot;
},
{
pos = (319.24,1140.102);
ref = _dot;
},
{
pos = (388.702,1180.255);
ref = _dot;
},
{
pos = (457.914,1220.243);
ref = _dot;
},
{
pos = (527.297,1260.319);
ref = _dot;
},
{
pos = (665.597,1340.197);
ref = _dot;
},
{
pos = (734.931,1380.246);
ref = _dot;
},
{
pos = (804.432,1420.401);
ref = _dot;
},
{
pos = (873.662,1460.42);
ref = _dot;
}
);
width = 1192;
}
);
unicode = 42;
}
{
glyphname = comma;
layers = (
{
layerId = m01;
shapes = (
{
closed = 0;
nodes = (
(210,-200,l),
(364,-84,o),
(376,-35,o),
(376,0,cs),
(376,35,o),
(353,79,o),
(310,110,c)
);
}
);
width = 620;
},
{
layerId = "FDE4885D-BB7A-448A-91AC-7911E70BCCB6";
shapes = (
{
pos = (210,-200);
ref = _dot;
},
{
pos = (310,110);
ref = _dot;
},
{
pos = (287.72,-136.833);
ref = _dot;
},
{
pos = (355.204,-63.141);
ref = _dot;
},
{
pos = (370.341,31.974);
ref = _dot;
}
);
width = 620;
}
);
unicode = 44;
}
{
glyphname = hyphen;
layers = (
{
layerId = m01;
shapes = (
{
closed = 0;
nodes = (
(150,800,l),
(250,800,o),
(750,800,o),
(850,800,c)
);
}
);
width = 1000;
},
{
layerId = "FDE4885D-BB7A-448A-91AC-7911E70BCCB6";
shapes = (
{
pos = (150,800);
ref = _dot;
},
{
pos = (850,800);
ref = _dot;
},
{
pos = (237.561,800);
ref = _dot;
},
{
pos = (325.596,800);
ref = _dot;
},
{
pos = (413.43,800);
ref = _dot;
},
{
pos = (501.8,800);
ref = _dot;
},
{
pos = (590.076,800);
ref = _dot;
},
{
pos = (677.608,800);
ref = _dot;
},
{
pos = (765.683,800);
ref = _dot;
}
);
width = 1000;
}
);
unicode = 45;
}
{
glyphname = period;
layers = (
{
layerId = m01;
shapes = (
{
closed = 0;
nodes = (
(310,0,l),
(310,10,l)
);
}
);
width = 620;
},
{
layerId = "FDE4885D-BB7A-448A-91AC-7911E70BCCB6";
shapes = (
{
pos = (310,0);
ref = _dot;
}
);
width = 620;
}
);
unicode = 46;
}
{
glyphname = slash;
layers = (
{
layerId = m01;
shapes = (
{
closed = 0;
nodes = (
(170,-100,l),
(215,0,o),
(925,1700,o),
(970,1800,c)
);
}
);
width = 1140;
},
{
layerId = "FDE4885D-BB7A-448A-91AC-7911E70BCCB6";
shapes = (
{
pos = (170,-100);
ref = _dot;
},
{
pos = (970,1800);
ref = _dot;
},
{
pos = (210.581,-5.246);
ref = _dot;
},
{
pos = (250.696,89.707);
ref = _dot;
},
{
pos = (290.706,184.705);
ref = _dot;
},
{
pos = (330.663,279.725);
ref = _dot;
},
{
pos = (370.587,374.759);
ref = _dot;
},
{
pos = (410.491,469.802);
ref = _dot;
},
{
pos = (450.38,564.85);
ref = _dot;
},
{
pos = (490.26,659.902);
ref = _dot;
},
{
pos = (530.134,754.957);
ref = _dot;
},
{
pos = (570.006,850.013);
ref = _dot;
},
{
pos = (609.877,945.069);
ref = _dot;
},
{
pos = (649.751,1040.124);
ref = _dot;
},
{
pos = (689.631,1135.176);
ref = _dot;
},
{
pos = (729.52,1230.225);
ref = _dot;
},
{
pos = (769.424,1325.267);
ref = _dot;
},
{
pos = (809.348,1420.301);
ref = _dot;
},
{
pos = (849.305,1515.321);
ref = _dot;
},
{
pos = (889.315,1610.318);
ref = _dot;
},
{
pos = (929.43,1705.271);
ref = _dot;
}
);
width = 1140;
}
);
unicode = 47;
}
{
glyphname = one;
layers = (
{
layerId = m01;
shapes = (
{
closed = 0;
nodes = (
(188,0,l),
(288,0,o),
(1212,0,o),
(1312,0,c)
);
},
{
closed = 0;
nodes = (
(188,1300,l),
(323,1398,o),
(650,1618,o),
(750,1700,c,{
co.uk.corvelsoftware.Dotter = {
locally_forced = 1;
};
}),
(750,1600,o),
(750,100,o),
(750,0,c)
);
}
);
width = 1500;
},
{
layerId = "FDE4885D-BB7A-448A-91AC-7911E70BCCB6";
shapes = (
{
pos = (188,0);
ref = _dot;
},
{
pos = (750,0);
ref = _dot;
},
{
pos = (1312,0);
ref = _dot;
},
{
pos = (188,1300);
ref = _dot;
},
{
pos = (750,1700);
ref = _dot;
},
{
pos = (328.5,0);
ref = _dot;
},
{
pos = (469,0);
ref = _dot;
},
{
pos = (609.5,0);
ref = _dot;
},
{
pos = (890.5,0);
ref = _dot;
},
{
pos = (1031,0);
ref = _dot;
},
{
pos = (1171.5,0);
ref = _dot;
},
{
pos = (300.651,1379.72);
ref = _dot;
},
{
pos = (413.935,1458.541);
ref = _dot;
},
{
pos = (527.146,1537.467);
ref = _dot;
},
{
pos = (639.758,1617.244);
ref = _dot;
},
{
pos = (750,1569.231);
ref = _dot;
},
{
pos = (750,1438.462);
ref = _dot;
},
{
pos = (750,1307.692);
ref = _dot;
},
{
pos = (750,1176.923);
ref = _dot;
},
{
pos = (750,1046.154);
ref = _dot;
},
{
pos = (750,915.385);
ref = _dot;
},
{
pos = (750,784.615);
ref = _dot;
},
{
pos = (750,653.846);
ref = _dot;
},
{
pos = (750,523.077);
ref = _dot;
},
{
pos = (750,392.308);
ref = _dot;
},
{
pos = (750,261.538);
ref = _dot;
},
{
pos = (750,130.769);
ref = _dot;
}
);
width = 1500;
},
{
layerId = "88FD4E68-2D1A-46CE-87AD-7FBA89BDFB80";
width = 600;
}
);
unicode = 49;
}
{
glyphname = two;
layers = (
{
background = {
shapes = (
{
closed = 0;
nodes = (
(170,0,l),
(1330,0,l)
);
},
{
closed = 0;
nodes = (
(270,1440,l),
(390,1606,o),
(540,1700,o),
(750,1700,cs),
(990,1700,o),
(1220,1569,o),
(1220,1310,cs),
(1220,1065,o),
(989,900,o),
(749,900,c),
(590,901,l)
);
}
);
};
layerId = m01;
shapes = (
{
closed = 0;
nodes = (
(250,1440,l),
(370,1606,o),
(540,1700,o),
(780,1700,cs),
(1020,1700,o),
(1220,1550,o),
(1220,1310,cs),
(1220,1110,o),
(1069,959,o),
(849,710,cs),
(220,0,l,{
co.uk.corvelsoftware.Dotter = {
forced = 1;
};
}),
(1280,0,l)
);
}
);
width = 1500;
},
{
layerId = "FDE4885D-BB7A-448A-91AC-7911E70BCCB6";
shapes = (
{
pos = (250,1440);
ref = _dot;
},
{
pos = (220,0);
ref = _dot;
},
{
pos = (1280,0);
ref = _dot;
},
{
pos = (333.952,1536.311);
ref = _dot;
},
{
pos = (435.745,1613.413);
ref = _dot;
},
{
pos = (552.051,1666.127);
ref = _dot;
},
{
pos = (676.79,1693.745);
ref = _dot;
},
{
pos = (804.481,1699.465);
ref = _dot;
},
{
pos = (930.469,1678.979);
ref = _dot;
},
{
pos = (1046.794,1626.711);
ref = _dot;
},
{
pos = (1141.739,1541.817);
ref = _dot;
},
{
pos = (1201.775,1429.608);
ref = _dot;
},
{
pos = (1219.944,1303.527);
ref = _dot;
},
{
pos = (1197.106,1178.197);
ref = _dot;
},
{
pos = (1140.433,1063.773);
ref = _dot;
},
{
pos = (1065.777,959.937);
ref = _dot;
},
{
pos = (983.531,861.932);
ref = _dot;
},
{
pos = (898.767,766.081);
ref = _dot;
},
{
pos = (813.948,670.435);
ref = _dot;
},
{
pos = (729.099,574.658);
ref = _dot;
},
{
pos = (644.249,478.882);
ref = _dot;
},
{
pos = (559.399,383.105);
ref = _dot;
},
{
pos = (474.549,287.329);
ref = _dot;
},
{
pos = (389.7,191.553);
ref = _dot;
},
{
pos = (304.85,95.776);
ref = _dot;
},
{
pos = (352.5,0);
ref = _dot;
},
{
pos = (485,0);
ref = _dot;
},
{
pos = (617.5,0);
ref = _dot;
},
{
pos = (750,0);
ref = _dot;
},
{
pos = (882.5,0);
ref = _dot;
},
{
pos = (1015,0);
ref = _dot;
},
{
pos = (1147.5,0);
ref = _dot;
}
);
width = 1500;
},
{
layerId = "88FD4E68-2D1A-46CE-87AD-7FBA89BDFB80";
width = 600;
}
);
unicode = 50;
}
{
glyphname = three;
layers = (
{
background = {
shapes = (
{
closed = 0;
nodes = (
(270,1440,l),
(390,1596,o),
(510,1700,o),
(750,1700,cs),
(990,1700,o),
(1220,1569,o),
(1220,1310,cs),
(1220,1065,o),
(989,900,o),
(749,900,c),
(590,901,l)
);
},
{
closed = 0;
nodes = (
(230,330,l),
(299,145,o),
(470,0,o),
(750,0,cs),
(1030,0,o),
(1280,155,o),
(1280,450,cs),
(1280,721,o),
(1028,900,o),
(750,900,cs)
);
}
);
};
layerId = m01;
shapes = (
{
closed = 0;
nodes = (
(270,1440,l),
(390,1606,o),
(540,1700,o),
(750,1700,cs),
(990,1700,o),
(1220,1569,o),
(1220,1310,cs),
(1220,1065,o),
(989,900,o),
(749,900,c),
(590,901,l)
);
},
{
closed = 0;
nodes = (
(230,330,l),
(299,155,o),
(500,0,o),
(750,0,cs),
(1030,0,o),
(1280,155,o),
(1280,450,cs),
(1280,721,o),
(1028,900,o),
(750,900,cs)
);
}
);
width = 1500;
},
{
layerId = "FDE4885D-BB7A-448A-91AC-7911E70BCCB6";
shapes = (
{
pos = (270,1440);
ref = _dot;
},
{
pos = (590,901);
ref = _dot;
},
{
pos = (230,330);
ref = _dot;
},
{
pos = (750,900);
ref = _dot;
},
{
pos = (333.555,1517.887);
ref = _dot;
},
{
pos = (407.444,1586.218);
ref = _dot;
},
{
pos = (491.991,1640.74);
ref = _dot;
},
{
pos = (585.446,1677.914);
ref = _dot;
},
{
pos = (684.022,1696.738);
ref = _dot;
},
{
pos = (784.467,1699.095);
ref = _dot;
},
{
pos = (884.208,1685.833);
ref = _dot;
},
{
pos = (980.188,1655.746);
ref = _dot;
},
{
pos = (1068.115,1607.139);
ref = _dot;
},
{
pos = (1141.661,1538.813);
ref = _dot;
},
{
pos = (1193.153,1452.502);
ref = _dot;
},
{
pos = (1217.564,1355.237);
ref = _dot;
},
{
pos = (1215.993,1254.867);
ref = _dot;
},
{
pos = (1187.723,1158.358);
ref = _dot;
},
{
pos = (1134.68,1073.127);
ref = _dot;
},
{
pos = (1062.203,1003.402);
ref = _dot;
},
{
pos = (976.311,951.15);
ref = _dot;
},
{
pos = (881.931,916.93);
ref = _dot;
},
{
pos = (682.379,900.419);
ref = _dot;
},
{
pos = (277.233,241.67);
ref = _dot;
},
{
pos = (342.002,164.618);
ref = _dot;
},
{
pos = (419.966,100.834);
ref = _dot;
},
{
pos = (507.834,51.727);
ref = _dot;
},
{
pos = (602.464,18.553);
ref = _dot;
},
{
pos = (701.894,1.928);
ref = _dot;
},
{
pos = (802.508,1.842);
ref = _dot;
},
{
pos = (901.711,15.991);
ref = _dot;
},
{
pos = (998.075,45.383);
ref = _dot;
},
{
pos = (1087.22,91.165);
ref = _dot;
},
{
pos = (1165.025,154.55);
ref = _dot;
},
{
pos = (1225.661,234.811);
ref = _dot;
},
{
pos = (1264.077,327.509);
ref = _dot;
},
{
pos = (1279.458,426.411);
ref = _dot;
},
{
pos = (1272.952,526.941);
ref = _dot;
},
{
pos = (1242.131,622.674);
ref = _dot;
},
{
pos = (1188.882,707.471);
ref = _dot;
},
{
pos = (1117.487,778.037);
ref = _dot;
},
{
pos = (1033.029,832.689);
ref = _dot;
},
{
pos = (940.268,870.995);
ref = _dot;
}
);
width = 1500;
}
);
unicode = 51;
}
{
glyphname = four;
layers = (
{
layerId = m01;
shapes = (
{
pos = (700,0);
ref = _c.stemLA;
},
{
closed = 0;
nodes = (
(1330,530,l),
(1230,530,o),
(270,530,o),
(170,530,c,{
co.uk.corvelsoftware.Dotter = {
forced = 1;
};
}),
(308,747,o),
(870,1520,o),
(980,1700,c,{
co.uk.corvelsoftware.Dotter = {
locally_forced = 1;
};
})
);
}
);
width = 1500;
},
{
layerId = "FDE4885D-BB7A-448A-91AC-7911E70BCCB6";
shapes = (
{
pos = (950,1653);
ref = _dot;
},
{
pos = (950,870);
ref = _dot;
},
{
pos = (950,529.776);
ref = _dot;
},
{
pos = (950,0);
ref = _dot;
},
{
pos = (1330,530);
ref = _dot;
},
{
pos = (170,530);
ref = _dot;
},
{
pos = (950,1555.125);
ref = _dot;
},
{
pos = (950,1457.25);
ref = _dot;
},
{
pos = (950,1359.375);
ref = _dot;
},
{
pos = (950,1261.5);
ref = _dot;
},
{
pos = (950,1163.625);
ref = _dot;
},
{
pos = (950,1065.75);
ref = _dot;
},
{
pos = (950,967.875);
ref = _dot;
},
{
pos = (950,756.592);
ref = _dot;
},
{
pos = (950,643.184);
ref = _dot;
},
{
pos = (950,423.82);
ref = _dot;
},
{
pos = (950,317.865);
ref = _dot;
},
{
pos = (950,211.91);
ref = _dot;
},
{
pos = (950,105.955);
ref = _dot;
},
{
pos = (1234,530);
ref = _dot;
},
{
pos = (1138,530);
ref = _dot;
},
{
pos = (1042,530);
ref = _dot;
},
{
pos = (852.424,530);
ref = _dot;
},
{
pos = (754.935,530);
ref = _dot;
},
{
pos = (657.446,530);
ref = _dot;
},
{
pos = (559.956,530);
ref = _dot;
},
{
pos = (462.467,530);
ref = _dot;
},
{
pos = (364.978,530);
ref = _dot;
},
{
pos = (267.489,530);
ref = _dot;
},
{
pos = (223.84,611.51);
ref = _dot;
},
{
pos = (278.985,692.146);
ref = _dot;
},
{
pos = (334.68,772.404);
ref = _dot;
},
{
pos = (390.677,852.451);
ref = _dot;
},
{
pos = (446.855,932.371);
ref = _dot;
},
{
pos = (503.14,1012.216);
ref = _dot;
},
{
pos = (559.478,1092.024);
ref = _dot;
},
{
pos = (615.824,1171.826);
ref = _dot;
},
{
pos = (672.136,1251.652);
ref = _dot;
},
{
pos = (728.363,1331.538);
ref = _dot;
},
{
pos = (784.44,1411.529);
ref = _dot;
},
{
pos = (840.268,1491.693);
ref = _dot;
}
);
width = 1500;
}
);
unicode = 52;
}
{
glyphname = five;
layers = (
{
layerId = m01;
shapes = (
{
closed = 0;
nodes = (
(220,330,l),
(289,155,o),
(490,0,o),
(740,0,cs),
(1020,0,o),
(1270,175,o),
(1270,520,cs),
(1270,800,o),
(1076,1000,o),
(740,1000,cs),
(567,1000,o),
(397,937,o),
(250,800,c),
(250,1700,l,{
co.uk.corvelsoftware.Dotter = {
forced = 1;
};
}),
(1230,1700,l)
);
}
);
width = 1500;
},
{
layerId = "FDE4885D-BB7A-448A-91AC-7911E70BCCB6";
shapes = (
{
pos = (220,330);
ref = _dot;
},
{
pos = (250,1700);
ref = _dot;
},
{
pos = (1230,1700);
ref = _dot;
},
{
pos = (266.082,243.363);
ref = _dot;
},
{
pos = (328.781,167.81);
ref = _dot;
},
{
pos = (404.145,104.852);
ref = _dot;
},
{
pos = (489.181,55.719);
ref = _dot;
},
{
pos = (581.259,21.558);
ref = _dot;
},
{
pos = (677.75,3.247);
ref = _dot;
},
{
pos = (775.944,0.982);
ref = _dot;
},
{
pos = (873.318,13.883);
ref = _dot;
},
{
pos = (967.218,42.633);
ref = _dot;
},
{
pos = (1054.272,88.017);
ref = _dot;
},
{
pos = (1130.393,149.97);
ref = _dot;
},
{
pos = (1191.584,226.689);
ref = _dot;
},
{
pos = (1235.139,314.645);
ref = _dot;
},
{
pos = (1260.703,409.443);
ref = _dot;
},
{
pos = (1269.871,507.239);
ref = _dot;
},
{
pos = (1263.653,605.253);
ref = _dot;
},
{
pos = (1239.353,700.357);
ref = _dot;
},
{
pos = (1195.428,788.095);
ref = _dot;
},
{
pos = (1132.619,863.453);
ref = _dot;
},
{
pos = (1054.3,922.565);
ref = _dot;
},
{
pos = (965.346,964.091);
ref = _dot;
},
{
pos = (870.332,988.97);
ref = _dot;
},
{
pos = (772.628,999.345);
ref = _dot;
},
{
pos = (674.408,996.938);
ref = _dot;
},
{
pos = (577.504,980.77);
ref = _dot;
},
{
pos = (483.93,950.843);
ref = _dot;
},
{
pos = (395.518,907.994);
ref = _dot;
},
{
pos = (313.639,853.673);
ref = _dot;
},
{
pos = (250,815.043);
ref = _dot;
},
{
pos = (250,913.371);
ref = _dot;
},
{
pos = (250,1011.7);
ref = _dot;
},
{
pos = (250,1110.028);
ref = _dot;
},
{
pos = (250,1208.357);
ref = _dot;
},
{
pos = (250,1306.686);
ref = _dot;
},
{
pos = (250,1405.014);
ref = _dot;
},
{
pos = (250,1503.343);
ref = _dot;
},
{
pos = (250,1601.671);
ref = _dot;
},
{
pos = (348,1700);
ref = _dot;
},
{
pos = (446,1700);
ref = _dot;
},
{
pos = (544,1700);
ref = _dot;
},
{
pos = (642,1700);
ref = _dot;
},
{
pos = (740,1700);
ref = _dot;
},
{
pos = (838,1700);
ref = _dot;
},
{
pos = (936,1700);
ref = _dot;
},
{
pos = (1034,1700);
ref = _dot;
},
{
pos = (1132,1700);
ref = _dot;
}
);
width = 1500;
}
);
unicode = 53;
}
{
glyphname = six;
layers = (
{
background = {
shapes = (
{
closed = 0;
nodes = (
(1219,1400,l),
(1113,1632,o),
(931,1700,o),
(750,1700,cs),
(425,1700,o),
(170,1420,o),
(170,870,cs),
(170,310,o),
(425,0,o),
(750,0,cs),
(1075,0,o),
(1330,310,o),
(1330,870,cs),
(1330,990,o),
(1318,1098,o),
(1295,1192,c)
);
}
);
};
layerId = m01;
shapes = (
{
closed = 0;
nodes = (
(1230,1460,l),
(1104,1622,o),
(961,1700,o),
(770,1700,cs),
(445,1700,o),
(190,1420,o),
(190,870,cs),
(190,290,o),
(445,0,o),
(770,0,cs),
(1095,0,o),
(1280,260,o),
(1280,520,cs),
(1280,780,o),
(1097,1000,o),
(770,1000,cs),
(503,1000,o),
(325,831,o),
(209,610,c)
);
}
);
width = 1500;
},
{
layerId = "FDE4885D-BB7A-448A-91AC-7911E70BCCB6";
shapes = (
{
pos = (1230,1460);
ref = _dot;
},
{
pos = (209,610);
ref = _dot;
},
{
pos = (1166.027,1533.425);
ref = _dot;
},
{
pos = (1092.77,1597.527);
ref = _dot;
},
{
pos = (1009.697,1648.179);
ref = _dot;
},
{
pos = (918.44,1681.884);
ref = _dot;
},
{
pos = (822.459,1697.934);
ref = _dot;
},
{
pos = (725.123,1698.164);
ref = _dot;
},
{
pos = (629.323,1681.194);
ref = _dot;
},
{
pos = (538.704,1645.83);
ref = _dot;
},
{
pos = (456.89,1593.204);
ref = _dot;
},
{
pos = (386.452,1526.073);
ref = _dot;
},
{
pos = (328.33,1447.994);
ref = _dot;
},
{
pos = (282.207,1362.246);
ref = _dot;
},
{
pos = (246.964,1271.459);
ref = _dot;
},
{
pos = (221.319,1177.494);
ref = _dot;
},
{
pos = (204.011,1081.632);
ref = _dot;
},
{
pos = (193.92,984.738);
ref = _dot;
},
{
pos = (190.09,887.392);
ref = _dot;
},
{
pos = (191.694,789.973);
ref = _dot;
},
{
pos = (198.646,692.796);
ref = _dot;
},
{
pos = (231.911,500.957);
ref = _dot;
},
{
pos = (260.305,407.785);
ref = _dot;
},
{
pos = (298.169,318.062);
ref = _dot;
},
{
pos = (346.831,233.732);
ref = _dot;
},
{
pos = (407.409,157.548);
ref = _dot;
},
{
pos = (480.195,92.982);
ref = _dot;
},
{
pos = (564.079,43.741);
ref = _dot;
},
{
pos = (656.21,12.56);
ref = _dot;
},
{
pos = (752.715,0.291);
ref = _dot;
},
{
pos = (849.904,5.508);
ref = _dot;
},
{
pos = (944.558,28.002);
ref = _dot;
},
{
pos = (1032.935,68.631);
ref = _dot;
},
{
pos = (1111.172,126.421);
ref = _dot;
},
{
pos = (1176.232,198.743);
ref = _dot;
},
{
pos = (1226.22,282.216);
ref = _dot;
},
{
pos = (1260.219,373.391);
ref = _dot;
},
{
pos = (1277.632,469.132);
ref = _dot;
},
{
pos = (1278.021,566.445);
ref = _dot;
},
{
pos = (1260.58,662.16);
ref = _dot;
},
{
pos = (1224.491,752.48);
ref = _dot;
},
{
pos = (1170.041,833.049);
ref = _dot;
},
{
pos = (1099.237,899.697);
ref = _dot;
},
{
pos = (1015.734,949.559);
ref = _dot;
},
{
pos = (923.952,981.845);
ref = _dot;
},
{
pos = (827.904,997.608);
ref = _dot;
},
{
pos = (730.557,998.743);
ref = _dot;
},
{
pos = (634.322,984.258);
ref = _dot;
},
{
pos = (542.228,952.846);
ref = _dot;
},
{
pos = (457.282,905.373);
ref = _dot;
},
{
pos = (381.425,844.377);
ref = _dot;
},
{
pos = (315.172,773.026);
ref = _dot;
}
);
width = 1500;
}
);
unicode = 54;
}
{
glyphname = seven;
layers = (
{
layerId = m01;
shapes = (
{
closed = 0;
nodes = (
(170,1700,l),
(1330,1700,l,{
co.uk.corvelsoftware.Dotter = {
forced = 1;
};
}),
(550,0,l)
);
}
);
width = 1500;
},
{
layerId = "FDE4885D-BB7A-448A-91AC-7911E70BCCB6";
shapes = (
{
pos = (170,1700);
ref = _dot;
},
{
pos = (1330,1700);
ref = _dot;
},
{
pos = (550,0);
ref = _dot;
},
{
pos = (267.44,1700);
ref = _dot;
},
{
pos = (364.88,1700);
ref = _dot;
},
{
pos = (462.32,1700);
ref = _dot;
},
{
pos = (559.76,1700);
ref = _dot;
},
{
pos = (657.2,1700);
ref = _dot;
},
{
pos = (754.64,1700);
ref = _dot;
},
{
pos = (852.08,1700);
ref = _dot;
},
{
pos = (949.52,1700);
ref = _dot;
},
{
pos = (1046.96,1700);
ref = _dot;
},
{
pos = (1144.4,1700);
ref = _dot;
},
{
pos = (1241.84,1700);
ref = _dot;
},
{
pos = (1288.66,1609.9);
ref = _dot;
},
{
pos = (1247.32,1519.8);
ref = _dot;
},
{
pos = (1205.98,1429.7);
ref = _dot;
},
{
pos = (1164.64,1339.6);
ref = _dot;
},
{
pos = (1123.3,1249.5);
ref = _dot;
},
{
pos = (1081.96,1159.4);
ref = _dot;
},
{
pos = (1040.62,1069.3);
ref = _dot;
},
{
pos = (999.28,979.2);
ref = _dot;
},
{
pos = (957.94,889.1);
ref = _dot;
},
{
pos = (916.6,799);
ref = _dot;
},
{
pos = (875.26,708.9);
ref = _dot;
},
{
pos = (833.92,618.8);
ref = _dot;
},
{
pos = (792.58,528.7);
ref = _dot;
},
{
pos = (751.24,438.6);
ref = _dot;
},
{
pos = (709.9,348.5);
ref = _dot;
},
{
pos = (668.56,258.4);
ref = _dot;
},
{
pos = (627.22,168.3);
ref = _dot;
},
{
pos = (585.88,78.2);
ref = _dot;
}
);
width = 1500;
}
);
unicode = 55;
}
{
glyphname = eight;
layers = (
{
background = {
shapes = (
{
closed = 0;
nodes = (
(752,900,l),
(484,900,o),
(220,721,o),
(220,450,cs),
(220,155,o),
(472,0,o),
(750,0,cs),
(1029,0,o),
(1280,155,o),
(1280,450,cs),
(1280,721,o),
(1018,900,o),
(750,900,cs)
);
},
{
closed = 0;
nodes = (
(751,1700,l),
(512,1700,o),
(280,1569,o),
(280,1310,cs),
(280,1065,o),
(520,900,o),
(750,900,cs),
(980,900,o),
(1220,1065,o),
(1220,1310,cs),
(1220,1569,o),
(989,1700,o),
(750,1700,cs)
);
}
);
};
layerId = m01;
shapes = (
{
closed = 0;
nodes = (
(751,1700,l),
(512,1700,o),
(280,1570,o),
(280,1310,cs),
(280,1050,o),
(520,900,o),
(750,900,cs,{
co.uk.corvelsoftware.Dotter = {
forced = 1;
};
}),
(980,900,o),
(1280,770,o),
(1280,460,cs),
(1280,130,o),
(989,0,o),
(750,0,cs),
(511,0,o),
(224,130,o),
(224,460,cs),
(224,770,o),
(580,900,o),
(750,900,cs,{
co.uk.corvelsoftware.Dotter = {
forced = 1;
};
}),
(920,900,o),
(1213,1050,o),
(1213,1310,cs),
(1213,1570,o),
(1049,1700,o),
(749,1700,cs)
);
}
);
width = 1500;
},
{
layerId = "FDE4885D-BB7A-448A-91AC-7911E70BCCB6";
shapes = (
{
pos = (751,1700);
ref = _dot;
},
{
pos = (750,900);
ref = _dot;
},
{
pos = (626.408,1687.854);
ref = _dot;
},
{
pos = (507.179,1649.941);
ref = _dot;
},
{
pos = (401.638,1583.06);
ref = _dot;
},
{
pos = (322.997,1486.254);
ref = _dot;
},
{
pos = (284.045,1367.791);
ref = _dot;
},
{
pos = (285.584,1242.906);
ref = _dot;
},
{
pos = (327.03,1125.219);
ref = _dot;
},
{
pos = (404.971,1027.693);
ref = _dot;
},
{
pos = (508.123,957.094);
ref = _dot;
},
{
pos = (625.73,914.481);
ref = _dot;
},
{
pos = (878.153,887.207);
ref = _dot;
},
{
pos = (1001.456,850.041);
ref = _dot;
},
{
pos = (1113.821,787.319);
ref = _dot;
},
{
pos = (1205.199,696.977);
ref = _dot;
},
{
pos = (1262.632,582.183);
ref = _dot;
},
{
pos = (1279.912,454.877);
ref = _dot;
},
{
pos = (1262.286,327.496);
ref = _dot;
},
{
pos = (1207.977,211.111);
ref = _dot;
},
{
pos = (1119.812,117.66);
ref = _dot;
},
{
pos = (1008.979,52.352);
ref = _dot;
},
{
pos = (886.114,13.864);
ref = _dot;
},
{
pos = (758.079,0.054);
ref = _dot;
},
{
pos = (629.715,10.864);
ref = _dot;
},
{
pos = (505.987,46.515);
ref = _dot;
},
{
pos = (393.564,109.063);
ref = _dot;
},
{
pos = (302.856,200.06);
ref = _dot;
},
{
pos = (245.257,314.847);
ref = _dot;
},
{
pos = (224.309,441.694);
ref = _dot;
},
{
pos = (240.02,569.118);
ref = _dot;
},
{
pos = (298.844,683.168);
ref = _dot;
},
{
pos = (390.454,773.381);
ref = _dot;
},
{
pos = (501.214,839.024);
ref = _dot;
},
{
pos = (1008.089,982.279);
ref = _dot;
},
{
pos = (1113.873,1068.753);
ref = _dot;
},
{
pos = (1188.014,1183.144);
ref = _dot;
},
{
pos = (1212.949,1316.908);
ref = _dot;
},
{
pos = (1193.034,1451.996);
ref = _dot;
},
{
pos = (1126.614,1570.664);
ref = _dot;
},
{
pos = (1016.442,1650.552);
ref = _dot;
},
{
pos = (885.471,1689.505);
ref = _dot;
}
);
width = 1500;
},
{
layerId = "88FD4E68-2D1A-46CE-87AD-7FBA89BDFB80";
width = 600;
},
{
layerId = "5BD49938-778C-46FB-8B52-6AA10854A152";
width = 600;
}
);
unicode = 56;
}
{
glyphname = nine;
layers = (
{
layerId = m01;
shapes = (
{
closed = 0;
nodes = (
(250,300,l),
(366,88,o),
(529,0,o),
(730,0,cs),
(1055,0,o),
(1310,350,o),
(1310,900,cs),
(1310,1460,o),
(1055,1700,o),
(730,1700,cs),
(405,1700,o),
(220,1440,o),
(220,1180,cs),
(220,920,o),
(403,700,o),
(730,700,cs),
(967,700,o),
(1169,832,o),
(1305,1053,c)
);
}
);
width = 1500;
},
{
layerId = "FDE4885D-BB7A-448A-91AC-7911E70BCCB6";
shapes = (
{
pos = (250,300);
ref = _dot;
},
{
pos = (1305,1053);
ref = _dot;
},
{
pos = (301.249,218.445);
ref = _dot;
},
{
pos = (363.522,145.011);
ref = _dot;
},
{
pos = (437.627,83.611);
ref = _dot;
},
{
pos = (522.438,38.178);
ref = _dot;
},
{
pos = (614.671,10.725);
ref = _dot;
},
{
pos = (710.38,0.29);
ref = _dot;
},
{
pos = (806.38,6.613);
ref = _dot;
},
{
pos = (898.704,33.607);
ref = _dot;
},
{
pos = (983.237,79.556);
ref = _dot;
},
{
pos = (1057.443,140.861);
ref = _dot;
},
{
pos = (1120.558,213.579);
ref = _dot;
},
{
pos = (1172.919,294.42);
ref = _dot;
},
{
pos = (1215.345,380.909);
ref = _dot;
},
{
pos = (1248.781,471.269);
ref = _dot;
},
{
pos = (1274.149,564.225);
ref = _dot;
},
{
pos = (1292.236,658.873);
ref = _dot;
},
{
pos = (1303.762,754.548);
ref = _dot;
},
{
pos = (1309.307,850.759);
ref = _dot;
},
{
pos = (1309.372,947.133);
ref = _dot;
},
{
pos = (1292.072,1138.978);
ref = _dot;
},
{
pos = (1272.597,1233.342);
ref = _dot;
},
{
pos = (1244.065,1325.357);
ref = _dot;
},
{
pos = (1204.915,1413.357);
ref = _dot;
},
{
pos = (1153.615,1494.838);
ref = _dot;
},
{
pos = (1089.354,1566.496);
ref = _dot;
},
{
pos = (1012.719,1624.69);
ref = _dot;
},
{
pos = (926.117,1666.633);
ref = _dot;
},
{
pos = (833.111,1691.406);
ref = _dot;
},
{
pos = (737.199,1699.927);
ref = _dot;
},
{
pos = (641.182,1693.161);
ref = _dot;
},
{
pos = (547.934,1669.359);
ref = _dot;
},
{
pos = (461.144,1627.821);
ref = _dot;
},
{
pos = (384.526,1569.619);
ref = _dot;
},
{
pos = (320.957,1497.376);
ref = _dot;
},
{
pos = (272.167,1414.414);
ref = _dot;
},
{
pos = (239.088,1324.019);
ref = _dot;
},
{
pos = (222.219,1229.249);
ref = _dot;
},
{
pos = (222.032,1132.986);
ref = _dot;
},
{
pos = (239.29,1038.307);
ref = _dot;
},
{
pos = (274.789,948.88);
ref = _dot;
},
{
pos = (328.277,868.928);
ref = _dot;
},
{
pos = (397.85,802.503);
ref = _dot;
},
{
pos = (480.01,752.447);
ref = _dot;
},
{
pos = (570.471,719.6);
ref = _dot;
},
{
pos = (665.308,703.005);
ref = _dot;
},
{
pos = (761.585,700.798);
ref = _dot;
},
{
pos = (857.073,713.148);
ref = _dot;
},
{
pos = (949.375,740.537);
ref = _dot;
},
{
pos = (1036.216,782.128);
ref = _dot;
},
{
pos = (1115.878,836.236);
ref = _dot;
},
{
pos = (1187.381,900.766);
ref = _dot;
},
{
pos = (1250.384,973.635);
ref = _dot;
}
);
width = 1500;
}
);
unicode = 57;
}
{
glyphname = colon;
layers = (
{
layerId = m01;
shapes = (
{
ref = period;
},
{
pos = (0,800);
ref = period;
}
);
width = 620;
},
{
layerId = "FDE4885D-BB7A-448A-91AC-7911E70BCCB6";
shapes = (
{
pos = (310,0);
ref = _dot;
},
{
pos = (310,800);
ref = _dot;
},
{
closed = 1;
nodes = (
(0,1700,l),
(620,1700,l),
(620,1764,l),
(0,1764,l)
);
},
{
closed = 1;
nodes = (
(0,1000,l),
(620,1000,l),
(620,1064,l),
(0,1064,l)
);
},
{
closed = 1;
nodes = (
(0,0,l),
(620,0,l),
(620,92,l),
(0,92,l)
);
},
{
closed = 1;
nodes = (
(0,-500,l),
(620,-500,l),
(620,-436,l),
(0,-436,l)
);
}
);
width = 620;
}
);
unicode = 58;
}
{
glyphname = semicolon;
layers = (
{
layerId = m01;
shapes = (
{
ref = comma;
},
{
pos = (0,800);
ref = period;
}
);
width = 620;
},
{
layerId = "FDE4885D-BB7A-448A-91AC-7911E70BCCB6";
shapes = (
{
closed = 1;
nodes = (
(212.42,-241.995,o),
(231.058,-227.956,c),
(299.164,-176.655,o),
(411,-96.488,o),
(411,0,c),
(411,55.405,o),
(373.893,107.085,o),
(330.468,138.391,c),
(311.541,152.037,o),
(291.843,144.664,o),
(281.609,130.468,c),
(271.375,116.272,o),
(270.604,95.254,o),
(289.532,81.609,c),
(314.134,63.873,o),
(341,32.183,o),
(341,0,c),
(341,-64.977,o),
(232.672,-139.104,o),
(188.942,-172.044,c),
(170.304,-186.082,o),
(171.515,-207.08,o),
(182.044,-221.058,c),
(192.573,-235.036,o)
);
},
{
closed = 1;
nodes = (
(345,776.667,o),
(345,800,c),
(345,803.333,o),
(345,806.667,o),
(345,810,c),
(345,833.333,o),
(327.5,845,o),
(310,845,c),
(292.5,845,o),
(275,833.333,o),
(275,810,c),
(275,806.667,o),
(275,803.333,o),
(275,800,c),
(275,776.667,o),
(292.5,765,o),
(310,765,c),
(327.5,765,o)
);
}
);
width = 620;
}
);
unicode = 59;
}
{
glyphname = at;
layers = (
{
layerId = m01;
width = 1200;
},
{
layerId = "FDE4885D-BB7A-448A-91AC-7911E70BCCB6";
shapes = (
{
closed = 1;
nodes = (
(0,-500,l),
(1200,-500,l),
(1200,-436,l),
(0,-436,l)
);
},
{
closed = 1;
nodes = (
(0,1000,l),
(1200,1000,l),
(1200,1064,l),
(0,1064,l)
);
},
{
closed = 1;
nodes = (
(0,1700,l),
(1200,1700,l),
(1200,1764,l),
(0,1764,l)
);
},
{
closed = 1;
nodes = (
(0,0,l),
(1200,0,l),
(1200,92,l),
(0,92,l)
);
}
);
width = 1200;
}
);
unicode = 64;
}
{
glyphname = A;
layers = (
{
layerId = m01;
shapes = (
{
closed = 0;
nodes = (
(1370,0,l),
(760,1710,l,{
co.uk.corvelsoftware.Dotter = {
forced = 1;
};
}),
(150,0,l)
);
},
{
closed = 0;
nodes = (
(364,600,l),
(464,600,o),
(1056,600,o),
(1156,600,c)
);
}
);
width = 1520;
},
{
layerId = "FDE4885D-BB7A-448A-91AC-7911E70BCCB6";
shapes = (
{
pos = (1370,0);
ref = _dot;
},
{
pos = (1155.89,600.21);
ref = _dot;
},
{
pos = (760,1710);
ref = _dot;
},
{
pos = (364.11,600.21);
ref = _dot;
},
{
pos = (150,0);
ref = _dot;
},
{
pos = (1327.178,120.042);
ref = _dot;
},
{
pos = (1284.356,240.084);
ref = _dot;
},
{
pos = (1241.534,360.126);
ref = _dot;
},
{
pos = (1198.712,480.168);
ref = _dot;
},
{
pos = (1111.902,723.52);
ref = _dot;
},
{
pos = (1067.914,846.83);
ref = _dot;
},
{
pos = (1023.927,970.14);
ref = _dot;
},
{
pos = (979.939,1093.45);
ref = _dot;
},
{
pos = (935.951,1216.76);
ref = _dot;
},
{
pos = (891.963,1340.07);
ref = _dot;
},
{
pos = (847.976,1463.38);
ref = _dot;
},
{
pos = (803.988,1586.69);
ref = _dot;
},
{
pos = (716.012,1586.69);
ref = _dot;
},
{
pos = (672.024,1463.38);
ref = _dot;
},
{
pos = (628.037,1340.07);
ref = _dot;
},
{
pos = (584.049,1216.76);
ref = _dot;
},
{
pos = (540.061,1093.45);
ref = _dot;
},
{
pos = (496.073,970.14);
ref = _dot;
},
{
pos = (452.086,846.83);
ref = _dot;
},
{
pos = (408.098,723.52);
ref = _dot;
},
{
pos = (321.288,480.168);
ref = _dot;
},
{
pos = (278.466,360.126);
ref = _dot;
},
{
pos = (235.644,240.084);
ref = _dot;
},
{
pos = (192.822,120.042);
ref = _dot;
},
{
pos = (496,600);
ref = _dot;
},
{
pos = (628,600);
ref = _dot;
},
{
pos = (760,600);
ref = _dot;
},
{
pos = (892,600);
ref = _dot;
},
{
pos = (1024,600);
ref = _dot;
}
);
width = 1520;
}
);
unicode = 65;
}
{
glyphname = B;
layers = (
{
background = {
shapes = (
{
closed = 0;
nodes = (
(255,1600,l),
(355,1600,o),
(499,1600,o),
(599,1600,cs),
(855,1600,o),
(1100,1507,o),
(1100,1227,cs),
(1100,947,o),
(855,820,o),
(600,820,cs),
(500,820,o),
(355,820,o),
(255,820,c)
);
},
{
closed = 0;
nodes = (
(250,1600,l),
(250,1500,o),
(250,100,o),
(250,0,c)
);
},
{
closed = 0;
nodes = (
(599,780,l),
(855,780,o),
(1100,687,o),
(1100,407,cs),
(1100,127,o),
(855,0,o),
(600,0,cs),
(500,0,o),
(355,0,o),
(255,0,c)
);
}
);
};
layerId = m01;
shapes = (
{
closed = 0;
nodes = (
(250,1700,l),
(350,1700,o),
(539,1700,o),
(639,1700,cs),
(905,1700,o),
(1150,1587,o),
(1150,1307,cs),
(1150,1027,o),
(975,870,o),
(710,870,cs),
(610,870,o),
(350,870,o),
(250,870,c)
);
},
{
closed = 0;
nodes = (
(749,870,l),
(1015,870,o),
(1210,747,o),
(1210,457,cs),
(1210,167,o),
(995,0,o),
(700,0,cs),
(600,0,o),
(350,0,o),
(250,0,c)
);
},
{
ref = _c.stemLA;
}
);
width = 1410;
},
{
layerId = "FDE4885D-BB7A-448A-91AC-7911E70BCCB6";
shapes = (
{
pos = (250,1700);
ref = _dot;
},
{
pos = (250,870);
ref = _dot;
},
{
pos = (749,870);
ref = _dot;
},
{
pos = (250,0);
ref = _dot;
},
{
pos = (353.551,1700);
ref = _dot;
},
{
pos = (457.102,1700);
ref = _dot;
},
{
pos = (560.653,1700);
ref = _dot;
},
{
pos = (664.201,1699.653);
ref = _dot;
},
{
pos = (767.29,1690.619);
ref = _dot;
},
{
pos = (868.137,1667.569);
ref = _dot;
},
{
pos = (963.347,1627.3);
ref = _dot;
},
{
pos = (1046.684,1566.346);
ref = _dot;
},
{
pos = (1108.862,1484.077);
ref = _dot;
},
{
pos = (1142.752,1386.657);
ref = _dot;
},
{
pos = (1149.575,1283.553);
ref = _dot;
},
{
pos = (1136.625,1180.969);
ref = _dot;
},
{
pos = (1102.305,1083.534);
ref = _dot;
},
{
pos = (1043.93,998.424);
ref = _dot;
},
{
pos = (963.844,933.344);
ref = _dot;
},
{
pos = (869.229,891.931);
ref = _dot;
},
{
pos = (664.204,870);
ref = _dot;
},
{
pos = (560.653,870);
ref = _dot;
},
{
pos = (457.102,870);
ref = _dot;
},
{
pos = (353.551,870);
ref = _dot;
},
{
pos = (959.6,837.852);
ref = _dot;
},
{
pos = (1055.117,790.27);
ref = _dot;
},
{
pos = (1132.684,717.2);
ref = _dot;
},
{
pos = (1183.419,623.456);
ref = _dot;
},
{
pos = (1206.765,519.282);
ref = _dot;
},
{
pos = (1208.235,412.419);
ref = _dot;
},
{
pos = (1188.312,307.497);
ref = _dot;
},
{
pos = (1143.856,210.479);
ref = _dot;
},
{
pos = (1075.507,128.545);
ref = _dot;
},
{
pos = (988.462,66.747);
ref = _dot;
},
{
pos = (889.668,26.106);
ref = _dot;
},
{
pos = (784.917,4.848);
ref = _dot;
},
{
pos = (678.083,0);
ref = _dot;
},
{
pos = (571.062,0);
ref = _dot;
},
{
pos = (464.041,0);
ref = _dot;
},
{
pos = (357.021,0);
ref = _dot;
},
{
pos = (250,1596.25);
ref = _dot;
},
{
pos = (250,1492.5);
ref = _dot;
},
{
pos = (250,1388.75);
ref = _dot;
},
{
pos = (250,1285);
ref = _dot;
},
{
pos = (250,1181.25);
ref = _dot;
},
{
pos = (250,1077.5);
ref = _dot;
},
{
pos = (250,973.75);
ref = _dot;
},
{
pos = (250,761.25);
ref = _dot;
},
{
pos = (250,652.5);
ref = _dot;
},
{
pos = (250,543.75);
ref = _dot;
},
{
pos = (250,435);
ref = _dot;
},
{
pos = (250,326.25);
ref = _dot;
},
{
pos = (250,217.5);
ref = _dot;
},
{
pos = (250,108.75);
ref = _dot;
}
);
width = 1410;
},
{
associatedMasterId = m01;
layerId = "D58C99EE-CA12-4345-8A4F-FBB5CD8ED29A";
name = "Pendot Quick Preview";
shapes = (
{
closed = 1;
nodes = (
(222.667,1659,o),
(250,1659,c),
(379.667,1659,o),
(509.333,1659,o),
(639,1659,c),
(863.882,1659,o),
(1109,1569.527,o),
(1109,1307,c),
(1109,1060.461,o),
(955.299,911,o),
(710,911,c),
(556.667,911,o),
(403.333,911,o),
(250,911,c),
(222.667,911,o),
(209,890.5,o),
(209,870,c),
(209,849.5,o),
(222.667,829,o),
(250,829,c),
(403.333,829,o),
(556.667,829,o),
(710,829,c),
(1000.32,829,o),
(1191,1015.374,o),
(1191,1307,c),
(1191,1618.041,o),
(910.896,1741,o),
(639,1741,c),
(509.333,1741,o),
(379.667,1741,o),
(250,1741,c),
(222.667,1741,o),
(209,1720.5,o),
(209,1700,c),
(209,1679.5,o)
);
},
{
closed = 1;
nodes = (
(721.667,829,o),
(749,829,c),
(991.275,829,o),
(1169,716.322,o),
(1169,457,c),
(1169,183.129,o),
(956.557,41,o),
(700,41,c),
(550,41,o),
(400,41,o),
(250,41,c),
(222.667,41,o),
(209,20.5,o),
(209,0,c),
(209,-20.5,o),
(222.667,-41,o),
(250,-41,c),
(400,-41,o),
(550,-41,o),
(700,-41,c),
(1001.906,-41,o),
(1251,137.392,o),
(1251,457,c),
(1251,762.218,o),
(1036.494,911,o),
(749,911,c),
(721.667,911,o),
(708,890.5,o),
(708,870,c),
(708,849.5,o)
);
},
{
closed = 1;
nodes = (
(209,1727.333,o),
(209,1700,c),
(209,1423.333,o),
(209,1146.667,o),
(209,870,c),
(209,580,o),
(209,290,o),
(209,0,c),
(209,-27.333,o),
(229.5,-41,o),
(250,-41,c),
(270.5,-41,o),
(291,-27.333,o),
(291,0,c),
(291,290,o),
(291,580,o),
(291,870,c),
(291,1146.667,o),
(291,1423.333,o),
(291,1700,c),
(291,1727.333,o),
(270.5,1741,o),
(250,1741,c),
(229.5,1741,o)
);
}
);
visible = 1;
width = 1410;
}
);
unicode = 66;
}
{
glyphname = C;
layers = (
{
layerId = m01;
shapes = (
{
closed = 0;
nodes = (
(1300,1440,l),
(1180,1596,o),
(1030,1700,o),
(760,1700,cs),
(435,1700,o),
(180,1420,o),
(180,870,cs),
(180,320,o),
(435,0,o),
(760,0,cs),
(1010,0,o),
(1195,132,o),
(1310,330,c)
);
}
);
width = 1490;
},
{
layerId = "FDE4885D-BB7A-448A-91AC-7911E70BCCB6";
shapes = (
{
closed = 0;
nodes = (
(1300,1440,l),
(1180,1596,o),
(1030,1700,o),
(760,1700,cs),
(435,1700,o),
(180,1420,o),
(180,870,cs),
(180,320,o),
(435,0,o),
(760,0,cs),
(1010,0,o),
(1195,132,o),
(1310,330,c)
);
},
{
closed = 1;
nodes = (
(0,-500,l),
(1490,-500,l),
(1490,-436,l),
(0,-436,l)
);
},
{
closed = 1;
nodes = (
(0,1000,l),
(1490,1000,l),
(1490,1064,l),
(0,1064,l)
);
},
{
closed = 1;
nodes = (
(0,1700,l),
(1490,1700,l),
(1490,1764,l),
(0,1764,l)
);
},
{
closed = 1;
nodes = (
(0,0,l),
(1490,0,l),
(1490,92,l),
(0,92,l)
);
}
);
width = 1490;
}
);
unicode = 67;
}
{
glyphname = D;
layers = (
{
anchors = (
{
name = bottom;
pos = (730,-100);
},
{
name = center;
pos = (375,870);
},
{
name = top;
pos = (730,1770);
}
);
background = {
shapes = (
{
closed = 0;
nodes = (
(750,0,l),
(1065,0,o),
(1320,267,o),
(1320,817,cs),
(1320,1367,o),
(1065,1600,o),
(749,1600,cs)
);
},
{
closed = 0;
nodes = (
(250,1600,l),
(250,1500,o),
(250,100,o),
(250,0,c)
);
}
);
};
layerId = m01;
shapes = (
{
closed = 0;
nodes = (
(250,1700,l),
(350,1700,o),
(460,1700,o),
(560,1700,cs),
(1025,1700,o),
(1320,1420,o),
(1320,870,cs),
(1320,320,o),
(1025,0,o),
(560,0,cs),
(460,0,o),
(350,0,o),
(250,0,c)
);
},
{
ref = _c.stemLA;
}
);
width = 1500;
},
{
layerId = "FDE4885D-BB7A-448A-91AC-7911E70BCCB6";
shapes = (
{
pos = (250,1700);
ref = _dot;
},
{
pos = (250,0);
ref = _dot;
},
{
pos = (250,870);
ref = _dot;
},
{
pos = (347.186,1700);
ref = _dot;
},
{
pos = (444.371,1700);
ref = _dot;
},
{
pos = (541.557,1700);
ref = _dot;
},
{
pos = (638.675,1697.196);
ref = _dot;
},
{
pos = (735.091,1685.349);
ref = _dot;
},
{
pos = (829.602,1662.955);
ref = _dot;
},
{
pos = (920.481,1628.731);
ref = _dot;
},
{
pos = (1005.533,1581.903);
ref = _dot;
},
{
pos = (1082.356,1522.548);
ref = _dot;
},
{
pos = (1148.803,1451.769);
ref = _dot;
},
{
pos = (1203.669,1371.664);
ref = _dot;
},
{
pos = (1246.74,1284.626);
ref = _dot;
},
{
pos = (1278.715,1192.908);
ref = _dot;
},
{
pos = (1300.68,1098.272);
ref = _dot;
},
{
pos = (1313.892,1002.009);
ref = _dot;
},
{
pos = (1319.583,904.999);
ref = _dot;
},
{
pos = (1318.698,807.867);
ref = _dot;
},
{
pos = (1311.155,710.996);
ref = _dot;
},
{
pos = (1296.061,615.02);
ref = _dot;
},
{
pos = (1272.497,520.774);
ref = _dot;
},
{
pos = (1239.485,429.42);
ref = _dot;
},
{
pos = (1196.128,342.513);
ref = _dot;
},
{
pos = (1141.918,261.946);
ref = _dot;
},
{
pos = (1076.889,189.844);
ref = _dot;
},
{
pos = (1001.879,128.201);
ref = _dot;
},
{
pos = (918.482,78.478);
ref = _dot;
},
{
pos = (828.765,41.327);
ref = _dot;
},
{
pos = (734.868,16.517);
ref = _dot;
},
{
pos = (638.651,3.187);
ref = _dot;
},
{
pos = (541.557,0);
ref = _dot;
},
{
pos = (444.371,0);
ref = _dot;
},
{
pos = (347.186,0);
ref = _dot;
},
{
pos = (250,1596.25);
ref = _dot;
},
{
pos = (250,1492.5);
ref = _dot;
},
{
pos = (250,1388.75);
ref = _dot;
},
{
pos = (250,1285);
ref = _dot;
},
{
pos = (250,1181.25);
ref = _dot;
},
{
pos = (250,1077.5);
ref = _dot;
},
{
pos = (250,973.75);
ref = _dot;
},
{
pos = (250,773.333);
ref = _dot;
},
{
pos = (250,676.667);
ref = _dot;
},
{
pos = (250,580);
ref = _dot;
},
{
pos = (250,483.333);
ref = _dot;
},
{
pos = (250,386.667);
ref = _dot;
},
{
pos = (250,290);
ref = _dot;
},
{
pos = (250,193.333);
ref = _dot;
},
{
pos = (250,96.667);
ref = _dot;
}
);
width = 1500;
},
{
layerId = "88FD4E68-2D1A-46CE-87AD-7FBA89BDFB80";
width = 600;
}
);
unicode = 68;
}
{
glyphname = E;
layers = (
{
layerId = m01;
shapes = (
{
ref = _c.stemLA;
},
{
closed = 0;
nodes = (
(250,870,l,{
co.uk.corvelsoftware.Dotter = {
locally_forced = 1;
};
}),
(350,870,o),
(930,870,o),
(1030,870,c)
);
},
{
closed = 0;
nodes = (
(250,0,l,{
co.uk.corvelsoftware.Dotter = {
locally_forced = 1;
};
}),
(350,0,o),
(1030,0,o),
(1130,0,c)
);
},
{
closed = 0;
nodes = (
(250,1700,l,{
co.uk.corvelsoftware.Dotter = {
locally_forced = 1;
};
}),
(350,1700,o),
(1030,1700,o),
(1130,1700,c)
);
}
);
width = 1380;
},
{
layerId = "FDE4885D-BB7A-448A-91AC-7911E70BCCB6";
shapes = (
{
pos = (250,1700);
ref = _dot;
},
{
pos = (250,870);
ref = _dot;
},
{
pos = (250,0);
ref = _dot;
},
{
pos = (1030,870);
ref = _dot;
},
{
pos = (1130,0);
ref = _dot;
},
{
pos = (1130,1700);
ref = _dot;
},
{
pos = (250,1535);
ref = _dot;
},
{
pos = (250,1370);
ref = _dot;
},
{
pos = (250,1205);
ref = _dot;
},
{
pos = (250,1040);
ref = _dot;
},
{
pos = (250,697);
ref = _dot;
},
{
pos = (250,524);
ref = _dot;
},
{
pos = (250,351);
ref = _dot;
},
{
pos = (250,178);
ref = _dot;
},
{
pos = (442,870);
ref = _dot;
},
{
pos = (634,870);
ref = _dot;
},
{
pos = (826,870);
ref = _dot;
},
{
pos = (425,0);
ref = _dot;
},
{
pos = (600,0);
ref = _dot;
},
{
pos = (775,0);
ref = _dot;
},
{
pos = (950,0);
ref = _dot;
},
{
pos = (425,1700);
ref = _dot;
},
{
pos = (600,1700);
ref = _dot;
},
{
pos = (775,1700);
ref = _dot;
},
{
pos = (950,1700);
ref = _dot;
},
{
closed = 1;
nodes = (
(0,1700,l),
(1380,1700,l),
(1380,1764,l),
(0,1764,l)
);
},
{
closed = 1;
nodes = (
(0,1000,l),
(1380,1000,l),
(1380,1064,l),
(0,1064,l)
);
},
{
closed = 1;
nodes = (
(0,0,l),
(1380,0,l),
(1380,92,l),
(0,92,l)
);
},
{
closed = 1;
nodes = (
(0,-500,l),
(1380,-500,l),
(1380,-436,l),
(0,-436,l)
);
}
);
width = 1380;
},
{
associatedMasterId = m01;
layerId = "4F51ABA9-32EC-4377-96E3-A3908B2AFA2F";
name = "Pendot Quick Preview";
shapes = (
{
closed = 1;
nodes = (
(282,1708.487,o),
(278.629,1716.626,o),
(272.627,1722.627,c),
(266.626,1728.629,o),
(258.487,1732,o),
(250,1732,c),
(241.513,1732,o),
(233.374,1728.629,o),
(227.373,1722.627,c),
(221.371,1716.626,o),
(218,1708.487,o),
(218,1700,c),
(218,1691.513,o),
(221.371,1683.374,o),
(227.373,1677.373,c),
(233.374,1671.371,o),
(241.513,1668,o),
(250,1668,c),
(258.487,1668,o),
(266.626,1671.371,o),
(272.627,1677.373,c),
(278.629,1683.374,o),
(282,1691.513,o),
(282,1700,c)
);
},
{
closed = 1;
nodes = (
(282,878.487,o),
(278.629,886.626,o),
(272.627,892.627,c),
(266.626,898.629,o),
(258.487,902,o),
(250,902,c),
(241.513,902,o),
(233.374,898.629,o),
(227.373,892.627,c),
(221.371,886.626,o),
(218,878.487,o),
(218,870,c),
(218,861.513,o),
(221.371,853.374,o),
(227.373,847.373,c),
(233.374,841.371,o),
(241.513,838,o),
(250,838,c),
(258.487,838,o),
(266.626,841.371,o),
(272.627,847.373,c),
(278.629,853.374,o),
(282,861.513,o),
(282,870,c)
);
},
{
closed = 1;
nodes = (
(282,8.487,o),
(278.629,16.626,o),
(272.627,22.627,c),
(266.626,28.629,o),
(258.487,32,o),
(250,32,c),
(241.513,32,o),
(233.374,28.629,o),
(227.373,22.627,c),
(221.371,16.626,o),
(218,8.487,o),
(218,0,c),
(218,-8.487,o),
(221.371,-16.626,o),
(227.373,-22.627,c),
(233.374,-28.629,o),
(241.513,-32,o),
(250,-32,c),
(258.487,-32,o),
(266.626,-28.629,o),
(272.627,-22.627,c),
(278.629,-16.626,o),
(282,-8.487,o),
(282,0,c)
);
},
{
closed = 1;
nodes = (
(1062,878.487,o),
(1058.629,886.626,o),
(1052.627,892.627,c),
(1046.626,898.629,o),
(1038.487,902,o),
(1030,902,c),
(1021.513,902,o),
(1013.374,898.629,o),
(1007.373,892.627,c),
(1001.371,886.626,o),
(998,878.487,o),
(998,870,c),
(998,861.513,o),
(1001.371,853.374,o),
(1007.373,847.373,c),
(1013.374,841.371,o),
(1021.513,838,o),
(1030,838,c),
(1038.487,838,o),
(1046.626,841.371,o),
(1052.627,847.373,c),
(1058.629,853.374,o),
(1062,861.513,o),
(1062,870,c)
);
},
{
closed = 1;
nodes = (
(1162,8.487,o),
(1158.629,16.626,o),
(1152.627,22.627,c),
(1146.626,28.629,o),
(1138.487,32,o),
(1130,32,c),
(1121.513,32,o),
(1113.374,28.629,o),
(1107.373,22.627,c),
(1101.371,16.626,o),
(1098,8.487,o),
(1098,0,c),
(1098,-8.487,o),
(1101.371,-16.626,o),
(1107.373,-22.627,c),
(1113.374,-28.629,o),
(1121.513,-32,o),
(1130,-32,c),
(1138.487,-32,o),
(1146.626,-28.629,o),
(1152.627,-22.627,c),
(1158.629,-16.626,o),
(1162,-8.487,o),
(1162,0,c)
);
},
{
closed = 1;
nodes = (
(1162,1708.487,o),
(1158.629,1716.626,o),
(1152.627,1722.627,c),
(1146.626,1728.629,o),
(1138.487,1732,o),
(1130,1732,c),
(1121.513,1732,o),
(1113.374,1728.629,o),
(1107.373,1722.627,c),
(1101.371,1716.626,o),
(1098,1708.487,o),
(1098,1700,c),
(1098,1691.513,o),
(1101.371,1683.374,o),
(1107.373,1677.373,c),
(1113.374,1671.371,o),
(1121.513,1668,o),
(1130,1668,c),
(1138.487,1668,o),
(1146.626,1671.371,o),
(1152.627,1677.373,c),
(1158.629,1683.374,o),
(1162,1691.513,o),
(1162,1700,c)
);
},
{
closed = 1;
nodes = (
(282,1616.125,o),
(278.629,1624.264,o),
(272.627,1630.265,c),
(266.626,1636.266,o),
(258.487,1639.638,o),
(250,1639.638,c),
(241.513,1639.638,o),
(233.374,1636.266,o),
(227.373,1630.265,c),
(221.371,1624.264,o),
(218,1616.125,o),
(218,1607.638,c),
(218,1599.151,o),
(221.371,1591.011,o),
(227.373,1585.01,c),
(233.374,1579.009,o),
(241.513,1575.638,o),
(250,1575.638,c),
(258.487,1575.638,o),
(266.626,1579.009,o),
(272.627,1585.01,c),
(278.629,1591.011,o),
(282,1599.151,o),
(282,1607.638,c)
);
},
{
closed = 1;
nodes = (
(282,1523.301,o),
(278.629,1531.441,o),
(272.627,1537.442,c),
(266.626,1543.443,o),
(258.487,1546.814,o),
(250,1546.814,c),
(241.513,1546.814,o),
(233.374,1543.443,o),
(227.373,1537.442,c),
(221.371,1531.441,o),
(218,1523.301,o),
(218,1514.814,c),
(218,1506.328,o),
(221.371,1498.188,o),
(227.373,1492.187,c),
(233.374,1486.186,o),
(241.513,1482.814,o),
(250,1482.814,c),
(258.487,1482.814,o),
(266.626,1486.186,o),
(272.627,1492.187,c),
(278.629,1498.188,o),
(282,1506.328,o),
(282,1514.814,c)
);
},
{
closed = 1;
nodes = (
(282,1431.042,o),
(278.629,1439.181,o),
(272.627,1445.182,c),
(266.626,1451.183,o),
(258.487,1454.555,o),
(250,1454.555,c),
(241.513,1454.555,o),
(233.374,1451.183,o),
(227.373,1445.182,c),
(221.371,1439.181,o),
(218,1431.042,o),
(218,1422.555,c),
(218,1414.068,o),
(221.371,1405.929,o),
(227.373,1399.928,c),
(233.374,1393.926,o),
(241.513,1390.555,o),
(250,1390.555,c),
(258.487,1390.555,o),
(266.626,1393.926,o),
(272.627,1399.928,c),
(278.629,1405.929,o),
(282,1414.068,o),
(282,1422.555,c)
);
},
{
closed = 1;
nodes = (
(282,1337.988,o),
(278.629,1346.128,o),
(272.627,1352.129,c),
(266.626,1358.13,o),
(258.487,1361.501,o),
(250,1361.501,c),
(241.513,1361.501,o),
(233.374,1358.13,o),
(227.373,1352.129,c),
(221.371,1346.128,o),
(218,1337.988,o),
(218,1329.501,c),
(218,1321.014,o),
(221.371,1312.875,o),
(227.373,1306.874,c),
(233.374,1300.873,o),
(241.513,1297.501,o),
(250,1297.501,c),
(258.487,1297.501,o),
(266.626,1300.873,o),
(272.627,1306.874,c),
(278.629,1312.875,o),
(282,1321.014,o),
(282,1329.501,c)
);
},
{
closed = 1;
nodes = (
(282,1245.026,o),
(278.629,1253.165,o),
(272.627,1259.166,c),
(266.626,1265.167,o),
(258.487,1268.539,o),
(250,1268.539,c),
(241.513,1268.539,o),
(233.374,1265.167,o),
(227.373,1259.166,c),
(221.371,1253.165,o),
(218,1245.026,o),
(218,1236.539,c),
(218,1228.052,o),
(221.371,1219.912,o),
(227.373,1213.911,c),
(233.374,1207.91,o),
(241.513,1204.539,o),
(250,1204.539,c),
(258.487,1204.539,o),
(266.626,1207.91,o),
(272.627,1213.911,c),
(278.629,1219.912,o),
(282,1228.052,o),
(282,1236.539,c)
);
},
{
closed = 1;
nodes = (
(282,1151.902,o),
(278.629,1160.042,o),
(272.627,1166.043,c),
(266.626,1172.044,o),
(258.487,1175.415,o),
(250,1175.415,c),
(241.513,1175.415,o),
(233.374,1172.044,o),
(227.373,1166.043,c),
(221.371,1160.042,o),
(218,1151.902,o),
(218,1143.415,c),
(218,1134.929,o),
(221.371,1126.789,o),
(227.373,1120.788,c),
(233.374,1114.787,o),
(241.513,1111.415,o),
(250,1111.415,c),
(258.487,1111.415,o),
(266.626,1114.787,o),
(272.627,1120.788,c),
(278.629,1126.789,o),
(282,1134.929,o),
(282,1143.415,c)
);
},
{
closed = 1;
nodes = (
(282,1059.514,o),
(278.629,1067.653,o),
(272.627,1073.654,c),
(266.626,1079.656,o),
(258.487,1083.027,o),
(250,1083.027,c),
(241.513,1083.027,o),
(233.374,1079.656,o),
(227.373,1073.654,c),
(221.371,1067.653,o),
(218,1059.514,o),
(218,1051.027,c),
(218,1042.54,o),
(221.371,1034.401,o),
(227.373,1028.4,c),
(233.374,1022.398,o),
(241.513,1019.027,o),
(250,1019.027,c),
(258.487,1019.027,o),
(266.626,1022.398,o),
(272.627,1028.4,c),
(278.629,1034.401,o),
(282,1042.54,o),
(282,1051.027,c)
);
},
{
closed = 1;
nodes = (
(282,967.182,o),
(278.629,975.322,o),
(272.627,981.323,c),
(266.626,987.324,o),
(258.487,990.696,o),
(250,990.696,c),
(241.513,990.696,o),
(233.374,987.324,o),
(227.373,981.323,c),
(221.371,975.322,o),
(218,967.182,o),
(218,958.696,c),
(218,950.209,o),
(221.371,942.069,o),
(227.373,936.068,c),
(233.374,930.067,o),
(241.513,926.696,o),
(250,926.696,c),
(258.487,926.696,o),
(266.626,930.067,o),
(272.627,936.068,c),
(278.629,942.069,o),
(282,950.209,o),
(282,958.696,c)
);
},
{
closed = 1;
nodes = (
(282,781.039,o),
(278.629,789.178,o),
(272.627,795.179,c),
(266.626,801.18,o),
(258.487,804.552,o),
(250,804.552,c),
(241.513,804.552,o),
(233.374,801.18,o),
(227.373,795.179,c),
(221.371,789.178,o),
(218,781.039,o),
(218,772.552,c),
(218,764.065,o),
(221.371,755.925,o),
(227.373,749.924,c),
(233.374,743.923,o),
(241.513,740.552,o),
(250,740.552,c),
(258.487,740.552,o),
(266.626,743.923,o),
(272.627,749.924,c),
(278.629,755.925,o),
(282,764.065,o),
(282,772.552,c)
);
},
{
closed = 1;
nodes = (
(282,683.158,o),
(278.629,691.297,o),
(272.627,697.298,c),
(266.626,703.3,o),
(258.487,706.671,o),
(250,706.671,c),
(241.513,706.671,o),
(233.374,703.3,o),
(227.373,697.298,c),
(221.371,691.297,o),
(218,683.158,o),
(218,674.671,c),
(218,666.184,o),
(221.371,658.045,o),
(227.373,652.044,c),
(233.374,646.042,o),
(241.513,642.671,o),
(250,642.671,c),
(258.487,642.671,o),
(266.626,646.042,o),
(272.627,652.044,c),
(278.629,658.045,o),
(282,666.184,o),
(282,674.671,c)
);
},
{
closed = 1;
nodes = (
(282,585.946,o),
(278.629,594.085,o),
(272.627,600.086,c),
(266.626,606.088,o),
(258.487,609.459,o),
(250,609.459,c),
(241.513,609.459,o),
(233.374,606.088,o),
(227.373,600.086,c),
(221.371,594.085,o),
(218,585.946,o),
(218,577.459,c),
(218,568.972,o),
(221.371,560.833,o),
(227.373,554.832,c),
(233.374,548.831,o),
(241.513,545.459,o),
(250,545.459,c),
(258.487,545.459,o),
(266.626,548.831,o),
(272.627,554.832,c),
(278.629,560.833,o),
(282,568.972,o),
(282,577.459,c)
);
},
{
closed = 1;
nodes = (
(282,488.418,o),
(278.629,496.557,o),
(272.627,502.558,c),
(266.626,508.559,o),
(258.487,511.931,o),
(250,511.931,c),
(241.513,511.931,o),
(233.374,508.559,o),
(227.373,502.558,c),
(221.371,496.557,o),
(218,488.418,o),
(218,479.931,c),
(218,471.444,o),
(221.371,463.305,o),
(227.373,457.304,c),
(233.374,451.302,o),
(241.513,447.931,o),
(250,447.931,c),
(258.487,447.931,o),
(266.626,451.302,o),
(272.627,457.304,c),
(278.629,463.305,o),
(282,471.444,o),
(282,479.931,c)
);
},
{
closed = 1;
nodes = (
(282,391.392,o),
(278.629,399.531,o),
(272.627,405.532,c),
(266.626,411.533,o),
(258.487,414.905,o),
(250,414.905,c),
(241.513,414.905,o),
(233.374,411.533,o),
(227.373,405.532,c),
(221.371,399.531,o),
(218,391.392,o),
(218,382.905,c),
(218,374.418,o),
(221.371,366.278,o),
(227.373,360.277,c),
(233.374,354.276,o),
(241.513,350.905,o),
(250,350.905,c),
(258.487,350.905,o),
(266.626,354.276,o),
(272.627,360.277,c),
(278.629,366.278,o),
(282,374.418,o),
(282,382.905,c)
);
},
{
closed = 1;
nodes = (
(282,294.578,o),
(278.629,302.717,o),
(272.627,308.718,c),
(266.626,314.72,o),
(258.487,318.091,o),
(250,318.091,c),
(241.513,318.091,o),
(233.374,314.72,o),
(227.373,308.718,c),
(221.371,302.717,o),
(218,294.578,o),
(218,286.091,c),
(218,277.604,o),
(221.371,269.465,o),
(227.373,263.464,c),
(233.374,257.463,o),
(241.513,254.091,o),
(250,254.091,c),
(258.487,254.091,o),
(266.626,257.463,o),
(272.627,263.464,c),
(278.629,269.465,o),
(282,277.604,o),
(282,286.091,c)
);
},
{
closed = 1;
nodes = (
(282,197.375,o),
(278.629,205.514,o),
(272.627,211.515,c),
(266.626,217.516,o),
(258.487,220.888,o),
(250,220.888,c),
(241.513,220.888,o),
(233.374,217.516,o),
(227.373,211.515,c),
(221.371,205.514,o),
(218,197.375,o),
(218,188.888,c),
(218,180.401,o),
(221.371,172.262,o),
(227.373,166.261,c),
(233.374,160.259,o),
(241.513,156.888,o),
(250,156.888,c),
(258.487,156.888,o),
(266.626,160.259,o),
(272.627,166.261,c),
(278.629,172.262,o),
(282,180.401,o),
(282,188.888,c)
);
},
{
closed = 1;
nodes = (
(282,100.402,o),
(278.629,108.542,o),
(272.627,114.543,c),
(266.626,120.544,o),
(258.487,123.916,o),
(250,123.916,c),
(241.513,123.916,o),
(233.374,120.544,o),
(227.373,114.543,c),
(221.371,108.542,o),
(218,100.402,o),
(218,91.916,c),
(218,83.429,o),
(221.371,75.289,o),
(227.373,69.288,c),
(233.374,63.287,o),
(241.513,59.916,o),
(250,59.916,c),
(258.487,59.916,o),
(266.626,63.287,o),
(272.627,69.288,c),
(278.629,75.289,o),
(282,83.429,o),
(282,91.916,c)
);
},
{
closed = 1;
nodes = (
(379.972,878.487,o),
(376.601,886.626,o),
(370.6,892.627,c),
(364.599,898.629,o),
(356.459,902,o),
(347.972,902,c),
(339.485,902,o),
(331.346,898.629,o),
(325.345,892.627,c),
(319.344,886.626,o),
(315.972,878.487,o),
(315.972,870,c),
(315.972,861.513,o),
(319.344,853.374,o),
(325.345,847.373,c),
(331.346,841.371,o),
(339.485,838,o),
(347.972,838,c),
(356.459,838,o),
(364.599,841.371,o),
(370.6,847.373,c),
(376.601,853.374,o),
(379.972,861.513,o),
(379.972,870,c)
);
},
{
closed = 1;
nodes = (
(477.492,878.487,o),
(474.12,886.626,o),
(468.119,892.627,c),
(462.118,898.629,o),
(453.979,902,o),
(445.492,902,c),
(437.005,902,o),
(428.866,898.629,o),
(422.865,892.627,c),
(416.863,886.626,o),
(413.492,878.487,o),
(413.492,870,c),
(413.492,861.513,o),
(416.863,853.374,o),
(422.865,847.373,c),
(428.866,841.371,o),
(437.005,838,o),
(445.492,838,c),
(453.979,838,o),
(462.118,841.371,o),
(468.119,847.373,c),
(474.12,853.374,o),
(477.492,861.513,o),
(477.492,870,c)
);
},
{
closed = 1;
nodes = (
(575.923,878.487,o),
(572.552,886.626,o),
(566.55,892.627,c),
(560.549,898.629,o),
(552.41,902,o),
(543.923,902,c),
(535.436,902,o),
(527.297,898.629,o),
(521.296,892.627,c),
(515.295,886.626,o),
(511.923,878.487,o),
(511.923,870,c),
(511.923,861.513,o),
(515.295,853.374,o),
(521.296,847.373,c),
(527.297,841.371,o),
(535.436,838,o),
(543.923,838,c),
(552.41,838,o),
(560.549,841.371,o),
(566.55,847.373,c),
(572.552,853.374,o),
(575.923,861.513,o),
(575.923,870,c)
);
},
{
closed = 1;
nodes = (
(674.04,878.487,o),
(670.669,886.626,o),
(664.667,892.627,c),
(658.666,898.629,o),
(650.527,902,o),
(642.04,902,c),
(633.553,902,o),
(625.414,898.629,o),
(619.413,892.627,c),
(613.411,886.626,o),
(610.04,878.487,o),
(610.04,870,c),
(610.04,861.513,o),
(613.411,853.374,o),
(619.413,847.373,c),
(625.414,841.371,o),
(633.553,838,o),
(642.04,838,c),
(650.527,838,o),
(658.666,841.371,o),
(664.667,847.373,c),
(670.669,853.374,o),
(674.04,861.513,o),
(674.04,870,c)
);
},
{
closed = 1;
nodes = (
(772.049,878.487,o),
(768.677,886.626,o),
(762.676,892.627,c),
(756.675,898.629,o),
(748.535,902,o),
(740.049,902,c),
(731.562,902,o),
(723.422,898.629,o),
(717.421,892.627,c),
(711.42,886.626,o),
(708.049,878.487,o),
(708.049,870,c),
(708.049,861.513,o),
(711.42,853.374,o),
(717.421,847.373,c),
(723.422,841.371,o),
(731.562,838,o),
(740.049,838,c),
(748.535,838,o),
(756.675,841.371,o),
(762.676,847.373,c),
(768.677,853.374,o),
(772.049,861.513,o),
(772.049,870,c)
);
},
{
closed = 1;
nodes = (
(870.127,878.487,o),
(866.756,886.626,o),
(860.754,892.627,c),
(854.754,898.629,o),
(846.614,902,o),
(838.127,902,c),
(829.64,902,o),
(821.501,898.629,o),
(815.5,892.627,c),
(809.499,886.626,o),
(806.127,878.487,o),
(806.127,870,c),
(806.127,861.513,o),
(809.499,853.374,o),
(815.5,847.373,c),
(821.501,841.371,o),
(829.64,838,o),
(838.127,838,c),
(846.614,838,o),
(854.754,841.371,o),
(860.754,847.373,c),
(866.756,853.374,o),
(870.127,861.513,o),
(870.127,870,c)
);
},
{
closed = 1;
nodes = (
(967.667,878.487,o),
(964.295,886.626,o),
(958.294,892.627,c),
(952.293,898.629,o),
(944.154,902,o),
(935.667,902,c),
(927.18,902,o),
(919.041,898.629,o),
(913.04,892.627,c),
(907.038,886.626,o),
(903.667,878.487,o),
(903.667,870,c),
(903.667,861.513,o),
(907.038,853.374,o),
(913.04,847.373,c),
(919.041,841.371,o),
(927.18,838,o),
(935.667,838,c),
(944.154,838,o),
(952.293,841.371,o),
(958.294,847.373,c),
(964.295,853.374,o),
(967.667,861.513,o),
(967.667,870,c)
);
},
{
closed = 1;
nodes = (
(379.97,8.487,o),
(376.599,16.626,o),
(370.598,22.627,c),
(364.597,28.629,o),
(356.457,32,o),
(347.97,32,c),
(339.483,32,o),
(331.344,28.629,o),
(325.343,22.627,c),
(319.342,16.626,o),
(315.97,8.487,o),
(315.97,0,c),
(315.97,-8.487,o),
(319.342,-16.626,o),
(325.343,-22.627,c),
(331.344,-28.629,o),
(339.483,-32,o),
(347.97,-32,c),
(356.457,-32,o),
(364.597,-28.629,o),
(370.598,-22.627,c),
(376.599,-16.626,o),
(379.97,-8.487,o),
(379.97,0,c)
);
},
{
closed = 1;
nodes = (
(477.954,8.487,o),
(474.583,16.626,o),
(468.581,22.627,c),
(462.58,28.629,o),
(454.441,32,o),
(445.954,32,c),
(437.467,32,o),
(429.328,28.629,o),
(423.327,22.627,c),
(417.325,16.626,o),
(413.954,8.487,o),
(413.954,0,c),
(413.954,-8.487,o),
(417.325,-16.626,o),
(423.327,-22.627,c),
(429.328,-28.629,o),
(437.467,-32,o),
(445.954,-32,c),
(454.441,-32,o),
(462.58,-28.629,o),
(468.581,-22.627,c),
(474.583,-16.626,o),
(477.954,-8.487,o),
(477.954,0,c)
);
},
{
closed = 1;
nodes = (
(575.786,8.487,o),
(572.415,16.626,o),
(566.413,22.627,c),
(560.412,28.629,o),
(552.273,32,o),
(543.786,32,c),
(535.299,32,o),
(527.16,28.629,o),
(521.159,22.627,c),
(515.158,16.626,o),
(511.786,8.487,o),
(511.786,0,c),
(511.786,-8.487,o),
(515.158,-16.626,o),
(521.159,-22.627,c),
(527.16,-28.629,o),
(535.299,-32,o),
(543.786,-32,c),
(552.273,-32,o),
(560.412,-28.629,o),
(566.413,-22.627,c),
(572.415,-16.626,o),
(575.786,-8.487,o),
(575.786,0,c)
);
},
{
closed = 1;
nodes = (
(674.11,8.487,o),
(670.739,16.626,o),
(664.737,22.627,c),
(658.736,28.629,o),
(650.597,32,o),
(642.11,32,c),
(633.623,32,o),
(625.484,28.629,o),
(619.483,22.627,c),
(613.481,16.626,o),
(610.11,8.487,o),
(610.11,0,c),
(610.11,-8.487,o),
(613.481,-16.626,o),
(619.483,-22.627,c),
(625.484,-28.629,o),
(633.623,-32,o),
(642.11,-32,c),
(650.597,-32,o),
(658.736,-28.629,o),
(664.737,-22.627,c),
(670.739,-16.626,o),
(674.11,-8.487,o),
(674.11,0,c)
);
},
{
closed = 1;
nodes = (
(772.218,8.487,o),
(768.846,16.626,o),
(762.845,22.627,c),
(756.844,28.629,o),
(748.705,32,o),
(740.218,32,c),
(731.731,32,o),
(723.592,28.629,o),
(717.591,22.627,c),
(711.589,16.626,o),
(708.218,8.487,o),
(708.218,0,c),
(708.218,-8.487,o),
(711.589,-16.626,o),
(717.591,-22.627,c),
(723.592,-28.629,o),
(731.731,-32,o),
(740.218,-32,c),
(748.705,-32,o),
(756.844,-28.629,o),
(762.845,-22.627,c),
(768.846,-16.626,o),
(772.218,-8.487,o),
(772.218,0,c)
);
},
{
closed = 1;
nodes = (
(870.44,8.487,o),
(867.068,16.626,o),
(861.067,22.627,c),
(855.066,28.629,o),
(846.927,32,o),
(838.44,32,c),
(829.953,32,o),
(821.814,28.629,o),
(815.813,22.627,c),
(809.811,16.626,o),
(806.44,8.487,o),
(806.44,0,c),
(806.44,-8.487,o),
(809.811,-16.626,o),
(815.813,-22.627,c),
(821.814,-28.629,o),
(829.953,-32,o),
(838.44,-32,c),
(846.927,-32,o),
(855.066,-28.629,o),
(861.067,-22.627,c),
(867.068,-16.626,o),
(870.44,-8.487,o),
(870.44,0,c)
);
},
{
closed = 1;
nodes = (
(969.048,8.487,o),
(965.677,16.626,o),
(959.676,22.627,c),
(953.675,28.629,o),
(945.535,32,o),
(937.048,32,c),
(928.561,32,o),
(920.422,28.629,o),
(914.421,22.627,c),
(908.42,16.626,o),
(905.048,8.487,o),
(905.048,0,c),
(905.048,-8.487,o),
(908.42,-16.626,o),
(914.421,-22.627,c),
(920.422,-28.629,o),
(928.561,-32,o),
(937.048,-32,c),
(945.535,-32,o),
(953.675,-28.629,o),
(959.676,-22.627,c),
(965.677,-16.626,o),
(969.048,-8.487,o),
(969.048,0,c)
);
},
{
closed = 1;
nodes = (
(1067.203,8.487,o),
(1063.832,16.626,o),
(1057.83,22.627,c),
(1051.829,28.629,o),
(1043.69,32,o),
(1035.203,32,c),
(1026.716,32,o),
(1018.577,28.629,o),
(1012.576,22.627,c),
(1006.574,16.626,o),
(1003.203,8.487,o),
(1003.203,0,c),
(1003.203,-8.487,o),
(1006.574,-16.626,o),
(1012.576,-22.627,c),
(1018.577,-28.629,o),
(1026.716,-32,o),
(1035.203,-32,c),
(1043.69,-32,o),
(1051.829,-28.629,o),
(1057.83,-22.627,c),
(1063.832,-16.626,o),
(1067.203,-8.487,o),
(1067.203,0,c)
);
},
{
closed = 1;
nodes = (
(379.97,1708.487,o),
(376.599,1716.626,o),
(370.598,1722.627,c),
(364.597,1728.629,o),
(356.457,1732,o),
(347.97,1732,c),
(339.483,1732,o),
(331.344,1728.629,o),
(325.343,1722.627,c),
(319.342,1716.626,o),
(315.97,1708.487,o),
(315.97,1700,c),
(315.97,1691.513,o),
(319.342,1683.374,o),
(325.343,1677.373,c),
(331.344,1671.371,o),
(339.483,1668,o),
(347.97,1668,c),
(356.457,1668,o),
(364.597,1671.371,o),
(370.598,1677.373,c),
(376.599,1683.374,o),
(379.97,1691.513,o),
(379.97,1700,c)
);
},
{
closed = 1;
nodes = (
(477.954,1708.487,o),
(474.583,1716.626,o),
(468.581,1722.627,c),
(462.58,1728.629,o),
(454.441,1732,o),
(445.954,1732,c),
(437.467,1732,o),
(429.328,1728.629,o),
(423.327,1722.627,c),
(417.325,1716.626,o),
(413.954,1708.487,o),
(413.954,1700,c),
(413.954,1691.513,o),
(417.325,1683.374,o),
(423.327,1677.373,c),
(429.328,1671.371,o),
(437.467,1668,o),
(445.954,1668,c),
(454.441,1668,o),
(462.58,1671.371,o),
(468.581,1677.373,c),
(474.583,1683.374,o),
(477.954,1691.513,o),
(477.954,1700,c)
);
},
{
closed = 1;
nodes = (
(575.786,1708.487,o),
(572.415,1716.626,o),
(566.413,1722.627,c),
(560.412,1728.629,o),
(552.273,1732,o),
(543.786,1732,c),
(535.299,1732,o),
(527.16,1728.629,o),
(521.159,1722.627,c),
(515.158,1716.626,o),
(511.786,1708.487,o),
(511.786,1700,c),
(511.786,1691.513,o),
(515.158,1683.374,o),
(521.159,1677.373,c),
(527.16,1671.371,o),
(535.299,1668,o),
(543.786,1668,c),
(552.273,1668,o),
(560.412,1671.371,o),
(566.413,1677.373,c),
(572.415,1683.374,o),
(575.786,1691.513,o),
(575.786,1700,c)
);
},
{
closed = 1;
nodes = (
(674.11,1708.487,o),
(670.739,1716.626,o),
(664.737,1722.627,c),
(658.736,1728.629,o),
(650.597,1732,o),
(642.11,1732,c),
(633.623,1732,o),
(625.484,1728.629,o),
(619.483,1722.627,c),
(613.481,1716.626,o),
(610.11,1708.487,o),
(610.11,1700,c),
(610.11,1691.513,o),
(613.481,1683.374,o),
(619.483,1677.373,c),
(625.484,1671.371,o),
(633.623,1668,o),
(642.11,1668,c),
(650.597,1668,o),
(658.736,1671.371,o),
(664.737,1677.373,c),
(670.739,1683.374,o),
(674.11,1691.513,o),
(674.11,1700,c)
);
},
{
closed = 1;
nodes = (
(772.218,1708.487,o),
(768.846,1716.626,o),
(762.845,1722.627,c),
(756.844,1728.629,o),
(748.705,1732,o),
(740.218,1732,c),
(731.731,1732,o),
(723.592,1728.629,o),
(717.591,1722.627,c),
(711.589,1716.626,o),
(708.218,1708.487,o),
(708.218,1700,c),
(708.218,1691.513,o),
(711.589,1683.374,o),
(717.591,1677.373,c),
(723.592,1671.371,o),
(731.731,1668,o),
(740.218,1668,c),
(748.705,1668,o),
(756.844,1671.371,o),
(762.845,1677.373,c),
(768.846,1683.374,o),
(772.218,1691.513,o),
(772.218,1700,c)
);
},
{
closed = 1;
nodes = (
(870.44,1708.487,o),
(867.068,1716.626,o),
(861.067,1722.627,c),
(855.066,1728.629,o),
(846.927,1732,o),
(838.44,1732,c),
(829.953,1732,o),
(821.814,1728.629,o),
(815.813,1722.627,c),
(809.811,1716.626,o),
(806.44,1708.487,o),
(806.44,1700,c),
(806.44,1691.513,o),
(809.811,1683.374,o),
(815.813,1677.373,c),
(821.814,1671.371,o),
(829.953,1668,o),
(838.44,1668,c),
(846.927,1668,o),
(855.066,1671.371,o),
(861.067,1677.373,c),
(867.068,1683.374,o),
(870.44,1691.513,o),
(870.44,1700,c)
);
},
{
closed = 1;
nodes = (
(969.048,1708.487,o),
(965.677,1716.626,o),
(959.676,1722.627,c),
(953.675,1728.629,o),
(945.535,1732,o),
(937.048,1732,c),
(928.561,1732,o),
(920.422,1728.629,o),
(914.421,1722.627,c),
(908.42,1716.626,o),
(905.048,1708.487,o),
(905.048,1700,c),
(905.048,1691.513,o),
(908.42,1683.374,o),
(914.421,1677.373,c),
(920.422,1671.371,o),
(928.561,1668,o),
(937.048,1668,c),
(945.535,1668,o),
(953.675,1671.371,o),
(959.676,1677.373,c),
(965.677,1683.374,o),
(969.048,1691.513,o),
(969.048,1700,c)
);
},
{
closed = 1;
nodes = (
(1067.203,1708.487,o),
(1063.832,1716.626,o),
(1057.83,1722.627,c),
(1051.829,1728.629,o),
(1043.69,1732,o),
(1035.203,1732,c),
(1026.716,1732,o),
(1018.577,1728.629,o),
(1012.576,1722.627,c),
(1006.574,1716.626,o),
(1003.203,1708.487,o),
(1003.203,1700,c),
(1003.203,1691.513,o),
(1006.574,1683.374,o),
(1012.576,1677.373,c),
(1018.577,1671.371,o),
(1026.716,1668,o),
(1035.203,1668,c),
(1043.69,1668,o),
(1051.829,1671.371,o),
(1057.83,1677.373,c),
(1063.832,1683.374,o),
(1067.203,1691.513,o),
(1067.203,1700,c)
);
}
);
visible = 1;
width = 1380;
}
);
unicode = 69;
}
{
glyphname = F;
layers = (
{
layerId = m01;
shapes = (
{
ref = _c.stemLA;
},
{
closed = 0;
nodes = (
(250,870,l,{
co.uk.corvelsoftware.Dotter = {
locally_forced = 1;
};
}),
(350,870,o),
(930,870,o),
(1030,870,c)
);
},
{
closed = 0;
nodes = (
(250,1700,l,{
co.uk.corvelsoftware.Dotter = {
locally_forced = 1;
};
}),
(350,1700,o),
(1030,1700,o),
(1130,1700,c)
);
}
);
width = 1380;
},
{
layerId = "FDE4885D-BB7A-448A-91AC-7911E70BCCB6";
shapes = (
{
pos = (250,1700);
ref = _dot;
},
{
pos = (250,870);
ref = _dot;
},
{
pos = (250,0);
ref = _dot;
},
{
pos = (1030,870);
ref = _dot;
},
{
pos = (1130,1700);
ref = _dot;
},
{
pos = (250,1561.667);
ref = _dot;
},
{
pos = (250,1423.333);
ref = _dot;
},
{
pos = (250,1285);
ref = _dot;
},
{
pos = (250,1146.667);
ref = _dot;
},
{
pos = (250,1008.333);
ref = _dot;
},
{
pos = (250,725);
ref = _dot;
},
{
pos = (250,580);
ref = _dot;
},
{
pos = (250,435);
ref = _dot;
},
{
pos = (250,290);
ref = _dot;
},
{
pos = (250,145);
ref = _dot;
},
{
pos = (380,870);
ref = _dot;
},
{
pos = (510,870);
ref = _dot;
},
{
pos = (640,870);
ref = _dot;
},
{
pos = (770,870);
ref = _dot;
},
{
pos = (900,870);
ref = _dot;
},
{
pos = (375.714,1700);
ref = _dot;
},
{
pos = (501.429,1700);
ref = _dot;
},
{
pos = (627.143,1700);
ref = _dot;
},
{
pos = (752.857,1700);
ref = _dot;
},
{
pos = (878.571,1700);
ref = _dot;
},
{
pos = (1004.286,1700);
ref = _dot;
}
);
width = 1380;
}
);
unicode = 70;
}
{
glyphname = G;
layers = (
{
background = {
shapes = (
{
closed = 0;
nodes = (
(1285,1359,l),
(1165,1515,o),
(1000,1600,o),
(760,1600,cs),
(475,1600,o),
(190,1367,o),
(190,817,cs),
(190,267,o),
(475,0,o),
(760,0,cs),
(1000,0,o),
(1155,105,o),
(1300,293,c)
);
},
{
closed = 0;
nodes = (
(530,600,l),
(630,600,o),
(1150,600,o),
(1250,600,c)
);
}
);
};
layerId = m01;
shapes = (
{
closed = 0;
nodes = (
(1290,1440,l),
(1170,1596,o),
(1030,1700,o),
(760,1700,cs),
(435,1700,o),
(180,1420,o),
(180,870,cs),
(180,320,o),
(435,0,o),
(760,0,cs),
(1085,0,o),
(1310,253,o),
(1310,600,cs),
(1310,650,o),
(1310,750,o),
(1310,800,c,{
co.uk.corvelsoftware.Dotter = {
forced = 1;
};
}),
(1210,800,o),
(860,800,o),
(760,800,c)
);
}
);
width = 1510;
},
{
layerId = "FDE4885D-BB7A-448A-91AC-7911E70BCCB6";
shapes = (
{
pos = (1290,1440);
ref = _dot;
},
{
pos = (1310,800);
ref = _dot;
},
{
pos = (760,800);
ref = _dot;
},
{
pos = (1207.1,1534.487);
ref = _dot;
},
{
pos = (1108.701,1612.481);
ref = _dot;
},
{
pos = (995.091,1665.824);
ref = _dot;
},
{
pos = (872.512,1693.228);
ref = _dot;
},
{
pos = (746.989,1699.831);
ref = _dot;
},
{
pos = (622.752,1682.117);
ref = _dot;
},
{
pos = (506.898,1633.995);
ref = _dot;
},
{
pos = (406.936,1558.145);
ref = _dot;
},
{
pos = (326.986,1461.325);
ref = _dot;
},
{
pos = (267.114,1350.864);
ref = _dot;
},
{
pos = (225.113,1232.386);
ref = _dot;
},
{
pos = (198.239,1109.553);
ref = _dot;
},
{
pos = (183.91,984.614);
ref = _dot;
},
{
pos = (180.076,858.901);
ref = _dot;
},
{
pos = (185.56,733.248);
ref = _dot;
},
{
pos = (201.449,608.493);
ref = _dot;
},
{
pos = (229.426,485.9);
ref = _dot;
},
{
pos = (271.473,367.422);
ref = _dot;
},
{
pos = (329.864,256.137);
ref = _dot;
},
{
pos = (406.756,156.817);
ref = _dot;
},
{
pos = (502.982,76.234);
ref = _dot;
},
{
pos = (616.192,22.24);
ref = _dot;
},
{
pos = (739.694,0.427);
ref = _dot;
},
{
pos = (864.95,9.252);
ref = _dot;
},
{
pos = (985.011,45.83);
ref = _dot;
},
{
pos = (1092.691,110.252);
ref = _dot;
},
{
pos = (1181.442,198.978);
ref = _dot;
},
{
pos = (1247.301,305.856);
ref = _dot;
},
{
pos = (1289.236,424.241);
ref = _dot;
},
{
pos = (1308.31,548.425);
ref = _dot;
},
{
pos = (1310,674.195);
ref = _dot;
},
{
pos = (1172.5,800);
ref = _dot;
},
{
pos = (1035,800);
ref = _dot;
},
{
pos = (897.5,800);
ref = _dot;
}
);
width = 1510;
}
);
unicode = 71;
}
{
glyphname = H;
layers = (
{
layerId = m01;
shapes = (
{
ref = _c.stemLA;
},
{
pos = (1020,0);
ref = _c.stemLA;
},
{
closed = 0;
nodes = (
(250,870,l,{
co.uk.corvelsoftware.Dotter = {
locally_forced = 1;
};
}),
(350,870,o),
(1170,870,o),
(1270,870,c,{
co.uk.corvelsoftware.Dotter = {
locally_forced = 1;
};
})
);
}
);
width = 1520;
},
{
layerId = "FDE4885D-BB7A-448A-91AC-7911E70BCCB6";
shapes = (
{
pos = (250,1700);
ref = _dot;
},
{
pos = (250,870);
ref = _dot;
},
{
pos = (250,0);
ref = _dot;
},
{
pos = (1270,1700);
ref = _dot;
},
{
pos = (1270,870);
ref = _dot;
},
{
pos = (1270,0);
ref = _dot;
},
{
pos = (250,1596.25);
ref = _dot;
},
{
pos = (250,1492.5);
ref = _dot;
},
{
pos = (250,1388.75);
ref = _dot;
},
{
pos = (250,1285);
ref = _dot;
},
{
pos = (250,1181.25);
ref = _dot;
},
{
pos = (250,1077.5);
ref = _dot;
},
{
pos = (250,973.75);
ref = _dot;
},
{
pos = (250,773.333);
ref = _dot;
},
{
pos = (250,676.667);
ref = _dot;
},
{
pos = (250,580);
ref = _dot;
},
{
pos = (250,483.333);
ref = _dot;
},
{
pos = (250,386.667);
ref = _dot;
},
{
pos = (250,290);
ref = _dot;
},
{
pos = (250,193.333);
ref = _dot;
},
{
pos = (250,96.667);
ref = _dot;
},
{
pos = (1270,1596.25);
ref = _dot;
},
{
pos = (1270,1492.5);
ref = _dot;
},
{
pos = (1270,1388.75);
ref = _dot;
},
{
pos = (1270,1285);
ref = _dot;
},
{
pos = (1270,1181.25);
ref = _dot;
},
{
pos = (1270,1077.5);
ref = _dot;
},
{
pos = (1270,973.75);
ref = _dot;
},
{
pos = (1270,773.333);
ref = _dot;
},
{
pos = (1270,676.667);
ref = _dot;
},
{
pos = (1270,580);
ref = _dot;
},
{
pos = (1270,483.333);
ref = _dot;
},
{
pos = (1270,386.667);
ref = _dot;
},
{
pos = (1270,290);
ref = _dot;
},
{
pos = (1270,193.333);
ref = _dot;
},
{
pos = (1270,96.667);
ref = _dot;
},
{
pos = (352,870);
ref = _dot;
},
{
pos = (454,870);
ref = _dot;
},
{
pos = (556,870);
ref = _dot;
},
{
pos = (658,870);
ref = _dot;
},
{
pos = (760,870);
ref = _dot;
},
{
pos = (862,870);
ref = _dot;
},
{
pos = (964,870);
ref = _dot;
},
{
pos = (1066,870);
ref = _dot;
},
{
pos = (1168,870);
ref = _dot;
}
);
width = 1520;
}
);
unicode = 72;
}
{
glyphname = I;
layers = (
{
layerId = m01;
shapes = (
{
pos = (500,0);
ref = _c.stemLA;
},
{
closed = 0;
nodes = (
(250,0,l),
(350,0,o),
(1150,0,o),
(1250,0,c)
);
},
{
closed = 0;
nodes = (
(250,1700,l),
(350,1700,o),
(1150,1700,o),
(1250,1700,c)
);
}
);
width = 1500;
},
{
layerId = "FDE4885D-BB7A-448A-91AC-7911E70BCCB6";
shapes = (
{
pos = (750,1700);
ref = _dot;
},
{
pos = (750,870);
ref = _dot;
},
{
pos = (750,0);
ref = _dot;
},
{
pos = (250,0);
ref = _dot;
},
{
pos = (1250,0);
ref = _dot;
},
{
pos = (250,1700);
ref = _dot;
},
{
pos = (1250,1700);
ref = _dot;
},
{
pos = (750,1561.667);
ref = _dot;
},
{
pos = (750,1423.333);
ref = _dot;
},
{
pos = (750,1285);
ref = _dot;
},
{
pos = (750,1146.667);
ref = _dot;
},
{
pos = (750,1008.333);
ref = _dot;
},
{
pos = (750,725);
ref = _dot;
},
{
pos = (750,580);
ref = _dot;
},
{
pos = (750,435);
ref = _dot;
},
{
pos = (750,290);
ref = _dot;
},
{
pos = (750,145);
ref = _dot;
},
{
pos = (375,0);
ref = _dot;
},
{
pos = (500,0);
ref = _dot;
},
{
pos = (625,0);
ref = _dot;
},
{
pos = (875,0);
ref = _dot;
},
{
pos = (1000,0);
ref = _dot;
},
{
pos = (1125,0);
ref = _dot;
},
{
pos = (375,1700);
ref = _dot;
},
{
pos = (500,1700);
ref = _dot;
},
{
pos = (625,1700);
ref = _dot;
},
{
pos = (875,1700);
ref = _dot;
},
{
pos = (1000,1700);
ref = _dot;
},
{
pos = (1125,1700);
ref = _dot;
}
);
width = 1500;
}
);
unicode = 73;
}
{
glyphname = J;
layers = (
{
layerId = m01;
shapes = (
{
closed = 0;
nodes = (
(980,1700,l),
(980,1533,o),
(980,766,o),
(980,600,cs),
(980,140,o),
(768,0,o),
(570,0,cs),
(388,0,o),
(235,140,o),
(180,330,c)
);
}
);
width = 1230;
},
{
layerId = "FDE4885D-BB7A-448A-91AC-7911E70BCCB6";
shapes = (
{
pos = (980,1700);
ref = _dot;
},
{
pos = (180,330);
ref = _dot;
},
{
pos = (980,1600.667);
ref = _dot;
},
{
pos = (980,1501.882);
ref = _dot;
},
{
pos = (980,1402.395);
ref = _dot;
},
{
pos = (980,1303.429);
ref = _dot;
},
{
pos = (980,1204.166);
ref = _dot;
},
{
pos = (980,1104.858);
ref = _dot;
},
{
pos = (980,1005.366);
ref = _dot;
},
{
pos = (980,905.916);
ref = _dot;
},
{
pos = (980,806.77);
ref = _dot;
},
{
pos = (980,707.403);
ref = _dot;
},
{
pos = (980,608.425);
ref = _dot;
},
{
pos = (977.046,509.291);
ref = _dot;
},
{
pos = (965.921,410.688);
ref = _dot;
},
{
pos = (944.331,314.058);
ref = _dot;
},
{
pos = (909.225,221.501);
ref = _dot;
},
{
pos = (857.549,137.715);
ref = _dot;
},
{
pos = (787.268,68.946);
ref = _dot;
},
{
pos = (700.306,22.245);
ref = _dot;
},
{
pos = (603.953,1.398);
ref = _dot;
},
{
pos = (505.33,5.99);
ref = _dot;
},
{
pos = (412.101,37.213);
ref = _dot;
},
{
pos = (329.825,91.645);
ref = _dot;
},
{
pos = (262.31,163.683);
ref = _dot;
},
{
pos = (211.132,248.179);
ref = _dot;
}
);
width = 1230;
}
);
unicode = 74;
}
{
glyphname = K;
layers = (
{
anchors = (
{
name = bottom;
pos = (640,-100);
},
{
name = top;
pos = (640,1770);
}
);
layerId = m01;
shapes = (
{
closed = 0;
nodes = (
(1130,1700,l),
(250,900,l),
(1170,0,l)
);
},
{
ref = _c.stemLA;
}
);
userData = {
"co.uk.corvelsoftware.Dotter.Dot ExtraLight.contourSource" = Alt;
"co.uk.corvelsoftware.Dotter.Dot Light.contourSource" = Alt;
"co.uk.corvelsoftware.Dotter.Dot Regular.contourSource" = Alt;
};
width = 1320;
},
{
layerId = "FDE4885D-BB7A-448A-91AC-7911E70BCCB6";
shapes = (
{
pos = (1130,1700);
ref = _dot;
},
{
pos = (250,870);
ref = _dot;
},
{
pos = (1170,0);
ref = _dot;
},
{
pos = (250,1700);
ref = _dot;
},
{
pos = (250,0);
ref = _dot;
},
{
pos = (1032.222,1607.778);
ref = _dot;
},
{
pos = (934.444,1515.556);
ref = _dot;
},
{
pos = (836.667,1423.333);
ref = _dot;
},
{
pos = (738.889,1331.111);
ref = _dot;
},
{
pos = (641.111,1238.889);
ref = _dot;
},
{
pos = (543.333,1146.667);
ref = _dot;
},
{
pos = (445.556,1054.444);
ref = _dot;
},
{
pos = (347.778,962.222);
ref = _dot;
},
{
pos = (342,783);
ref = _dot;
},
{
pos = (434,696);
ref = _dot;
},
{
pos = (526,609);
ref = _dot;
},
{
pos = (618,522);
ref = _dot;
},
{
pos = (710,435);
ref = _dot;
},
{
pos = (802,348);
ref = _dot;
},
{
pos = (894,261);
ref = _dot;
},
{
pos = (986,174);
ref = _dot;
},
{
pos = (1078,87);
ref = _dot;
},
{
pos = (250,1561.667);
ref = _dot;
},
{
pos = (250,1423.333);
ref = _dot;
},
{
pos = (250,1285);
ref = _dot;
},
{
pos = (250,1146.667);
ref = _dot;
},
{
pos = (250,1008.333);
ref = _dot;
},
{
pos = (250,725);
ref = _dot;
},
{
pos = (250,580);
ref = _dot;
},
{
pos = (250,435);
ref = _dot;
},
{
pos = (250,290);
ref = _dot;
},
{
pos = (250,145);
ref = _dot;
}
);
width = 1320;
},
{
anchors = (
{
name = bottom;
pos = (640,-100);
},
{
name = top;
pos = (640,1770);
}
);
layerId = "88FD4E68-2D1A-46CE-87AD-7FBA89BDFB80";
shapes = (
{
closed = 0;
nodes = (
(1130,1700,l),
(250,870,l),
(1170,0,l)
);
},
{
ref = _c.stemLA;
}
);
userData = {
"co.uk.corvelsoftware.Dotter.Dot Regular.contourSource" = Alt;
};
width = 1320;
},
{
associatedMasterId = m01;
layerId = "23138250-9F5B-4AA7-835F-B9E9AFAE5C2E";
name = "Pendot Quick Preview";
shapes = (
{
closed = 1;
nodes = (
(1151.5,1705.702,o),
(1149.235,1711.171,o),
(1145.203,1715.203,c),
(1141.171,1719.235,o),
(1135.702,1721.5,o),
(1130,1721.5,c),
(1124.298,1721.5,o),
(1118.829,1719.235,o),
(1114.797,1715.203,c),
(1110.765,1711.171,o),
(1108.5,1705.702,o),
(1108.5,1700,c),
(1108.5,1694.298,o),
(1110.765,1688.829,o),
(1114.797,1684.797,c),
(1118.829,1680.765,o),
(1124.298,1678.5,o),
(1130,1678.5,c),
(1135.702,1678.5,o),
(1141.171,1680.765,o),
(1145.203,1684.797,c),
(1149.235,1688.829,o),
(1151.5,1694.298,o),
(1151.5,1700,c)
);
},
{
closed = 1;
nodes = (
(271.5,875.702,o),
(269.235,881.171,o),
(265.203,885.203,c),
(261.171,889.235,o),
(255.702,891.5,o),
(250,891.5,c),
(244.298,891.5,o),
(238.829,889.235,o),
(234.797,885.203,c),
(230.765,881.171,o),
(228.5,875.702,o),
(228.5,870,c),
(228.5,864.298,o),
(230.765,858.829,o),
(234.797,854.797,c),
(238.829,850.765,o),
(244.298,848.5,o),
(250,848.5,c),
(255.702,848.5,o),
(261.171,850.765,o),
(265.203,854.797,c),
(269.235,858.829,o),
(271.5,864.298,o),
(271.5,870,c)
);
},
{
closed = 1;
nodes = (
(1191.5,5.702,o),
(1189.235,11.171,o),
(1185.203,15.203,c),
(1181.171,19.235,o),
(1175.702,21.5,o),
(1170,21.5,c),
(1164.298,21.5,o),
(1158.829,19.235,o),
(1154.797,15.203,c),
(1150.765,11.171,o),
(1148.5,5.702,o),
(1148.5,0,c),
(1148.5,-5.702,o),
(1150.765,-11.171,o),
(1154.797,-15.203,c),
(1158.829,-19.235,o),
(1164.298,-21.5,o),
(1170,-21.5,c),
(1175.702,-21.5,o),
(1181.171,-19.235,o),
(1185.203,-15.203,c),
(1189.235,-11.171,o),
(1191.5,-5.702,o),
(1191.5,0,c)
);
},
{
closed = 1;
nodes = (
(271.5,1705.702,o),
(269.235,1711.171,o),
(265.203,1715.203,c),
(261.171,1719.235,o),
(255.702,1721.5,o),
(250,1721.5,c),
(244.298,1721.5,o),
(238.829,1719.235,o),
(234.797,1715.203,c),
(230.765,1711.171,o),
(228.5,1705.702,o),
(228.5,1700,c),
(228.5,1694.298,o),
(230.765,1688.829,o),
(234.797,1684.797,c),
(238.829,1680.765,o),
(244.298,1678.5,o),
(250,1678.5,c),
(255.702,1678.5,o),
(261.171,1680.765,o),
(265.203,1684.797,c),
(269.235,1688.829,o),
(271.5,1694.298,o),
(271.5,1700,c)
);
},
{
closed = 1;
nodes = (
(271.5,5.702,o),
(269.235,11.171,o),
(265.203,15.203,c),
(261.171,19.235,o),
(255.702,21.5,o),
(250,21.5,c),
(244.298,21.5,o),
(238.829,19.235,o),
(234.797,15.203,c),
(230.765,11.171,o),
(228.5,5.702,o),
(228.5,0,c),
(228.5,-5.702,o),
(230.765,-11.171,o),
(234.797,-15.203,c),
(238.829,-19.235,o),
(244.298,-21.5,o),
(250,-21.5,c),
(255.702,-21.5,o),
(261.171,-19.235,o),
(265.203,-15.203,c),
(269.235,-11.171,o),
(271.5,-5.702,o),
(271.5,0,c)
);
},
{
closed = 1;
nodes = (
(1092.833,1650.369,o),
(1090.568,1655.837,o),
(1086.536,1659.869,c),
(1082.504,1663.901,o),
(1077.035,1666.167,o),
(1071.333,1666.167,c),
(1065.631,1666.167,o),
(1060.163,1663.901,o),
(1056.131,1659.869,c),
(1052.099,1655.837,o),
(1049.833,1650.369,o),
(1049.833,1644.667,c),
(1049.833,1638.965,o),
(1052.099,1633.496,o),
(1056.131,1629.464,c),
(1060.163,1625.432,o),
(1065.631,1623.167,o),
(1071.333,1623.167,c),
(1077.035,1623.167,o),
(1082.504,1625.432,o),
(1086.536,1629.464,c),
(1090.568,1633.496,o),
(1092.833,1638.965,o),
(1092.833,1644.667,c)
);
},
{
closed = 1;
nodes = (
(1034.167,1595.035,o),
(1031.901,1600.504,o),
(1027.869,1604.536,c),
(1023.837,1608.568,o),
(1018.369,1610.833,o),
(1012.667,1610.833,c),
(1006.965,1610.833,o),
(1001.496,1608.568,o),
(997.464,1604.536,c),
(993.432,1600.504,o),
(991.167,1595.035,o),
(991.167,1589.333,c),
(991.167,1583.631,o),
(993.432,1578.163,o),
(997.464,1574.131,c),
(1001.496,1570.099,o),
(1006.965,1567.833,o),
(1012.667,1567.833,c),
(1018.369,1567.833,o),
(1023.837,1570.099,o),
(1027.869,1574.131,c),
(1031.901,1578.163,o),
(1034.167,1583.631,o),
(1034.167,1589.333,c)
);
},
{
closed = 1;
nodes = (
(975.5,1539.702,o),
(973.235,1545.171,o),
(969.203,1549.203,c),
(965.171,1553.235,o),
(959.702,1555.5,o),
(954,1555.5,c),
(948.298,1555.5,o),
(942.829,1553.235,o),
(938.797,1549.203,c),
(934.765,1545.171,o),
(932.5,1539.702,o),
(932.5,1534,c),
(932.5,1528.298,o),
(934.765,1522.829,o),
(938.797,1518.797,c),
(942.829,1514.765,o),
(948.298,1512.5,o),
(954,1512.5,c),
(959.702,1512.5,o),
(965.171,1514.765,o),
(969.203,1518.797,c),
(973.235,1522.829,o),
(975.5,1528.298,o),
(975.5,1534,c)
);
},
{
closed = 1;
nodes = (
(916.833,1484.369,o),
(914.568,1489.837,o),
(910.536,1493.869,c),
(906.504,1497.901,o),
(901.035,1500.167,o),
(895.333,1500.167,c),
(889.631,1500.167,o),
(884.163,1497.901,o),
(880.131,1493.869,c),
(876.099,1489.837,o),
(873.833,1484.369,o),
(873.833,1478.667,c),
(873.833,1472.965,o),
(876.099,1467.496,o),
(880.131,1463.464,c),
(884.163,1459.432,o),
(889.631,1457.167,o),
(895.333,1457.167,c),
(901.035,1457.167,o),
(906.504,1459.432,o),
(910.536,1463.464,c),
(914.568,1467.496,o),
(916.833,1472.965,o),
(916.833,1478.667,c)
);
},
{
closed = 1;
nodes = (
(858.167,1429.035,o),
(855.901,1434.504,o),
(851.869,1438.536,c),
(847.837,1442.568,o),
(842.369,1444.833,o),
(836.667,1444.833,c),
(830.965,1444.833,o),
(825.496,1442.568,o),
(821.464,1438.536,c),
(817.432,1434.504,o),
(815.167,1429.035,o),
(815.167,1423.333,c),
(815.167,1417.631,o),
(817.432,1412.163,o),
(821.464,1408.131,c),
(825.496,1404.099,o),
(830.965,1401.833,o),
(836.667,1401.833,c),
(842.369,1401.833,o),
(847.837,1404.099,o),
(851.869,1408.131,c),
(855.901,1412.163,o),
(858.167,1417.631,o),
(858.167,1423.333,c)
);
},
{
closed = 1;
nodes = (
(799.5,1373.702,o),
(797.235,1379.171,o),
(793.203,1383.203,c),
(789.171,1387.235,o),
(783.702,1389.5,o),
(778,1389.5,c),
(772.298,1389.5,o),
(766.829,1387.235,o),
(762.797,1383.203,c),
(758.765,1379.171,o),
(756.5,1373.702,o),
(756.5,1368,c),
(756.5,1362.298,o),
(758.765,1356.829,o),
(762.797,1352.797,c),
(766.829,1348.765,o),
(772.298,1346.5,o),
(778,1346.5,c),
(783.702,1346.5,o),
(789.171,1348.765,o),
(793.203,1352.797,c),
(797.235,1356.829,o),
(799.5,1362.298,o),
(799.5,1368,c)
);
},
{
closed = 1;
nodes = (
(740.833,1318.369,o),
(738.568,1323.837,o),
(734.536,1327.869,c),
(730.504,1331.901,o),
(725.035,1334.167,o),
(719.333,1334.167,c),
(713.631,1334.167,o),
(708.163,1331.901,o),
(704.131,1327.869,c),
(700.099,1323.837,o),
(697.833,1318.369,o),
(697.833,1312.667,c),
(697.833,1306.965,o),
(700.099,1301.496,o),
(704.131,1297.464,c),
(708.163,1293.432,o),
(713.631,1291.167,o),
(719.333,1291.167,c),
(725.035,1291.167,o),
(730.504,1293.432,o),
(734.536,1297.464,c),
(738.568,1301.496,o),
(740.833,1306.965,o),
(740.833,1312.667,c)
);
},
{
closed = 1;
nodes = (
(682.167,1263.035,o),
(679.901,1268.504,o),
(675.869,1272.536,c),
(671.837,1276.568,o),
(666.369,1278.833,o),
(660.667,1278.833,c),
(654.965,1278.833,o),
(649.496,1276.568,o),
(645.464,1272.536,c),
(641.432,1268.504,o),
(639.167,1263.035,o),
(639.167,1257.333,c),
(639.167,1251.631,o),
(641.432,1246.163,o),
(645.464,1242.131,c),
(649.496,1238.099,o),
(654.965,1235.833,o),
(660.667,1235.833,c),
(666.369,1235.833,o),
(671.837,1238.099,o),
(675.869,1242.131,c),
(679.901,1246.163,o),
(682.167,1251.631,o),
(682.167,1257.333,c)
);
},
{
closed = 1;
nodes = (
(623.5,1207.702,o),
(621.235,1213.171,o),
(617.203,1217.203,c),
(613.171,1221.235,o),
(607.702,1223.5,o),
(602,1223.5,c),
(596.298,1223.5,o),
(590.829,1221.235,o),
(586.797,1217.203,c),
(582.765,1213.171,o),
(580.5,1207.702,o),
(580.5,1202,c),
(580.5,1196.298,o),
(582.765,1190.829,o),
(586.797,1186.797,c),
(590.829,1182.765,o),
(596.298,1180.5,o),
(602,1180.5,c),
(607.702,1180.5,o),
(613.171,1182.765,o),
(617.203,1186.797,c),
(621.235,1190.829,o),
(623.5,1196.298,o),
(623.5,1202,c)
);
},
{
closed = 1;
nodes = (
(564.833,1152.369,o),
(562.568,1157.837,o),
(558.536,1161.869,c),
(554.504,1165.901,o),
(549.035,1168.167,o),
(543.333,1168.167,c),
(537.631,1168.167,o),
(532.163,1165.901,o),
(528.131,1161.869,c),
(524.099,1157.837,o),
(521.833,1152.369,o),
(521.833,1146.667,c),
(521.833,1140.965,o),
(524.099,1135.496,o),
(528.131,1131.464,c),
(532.163,1127.432,o),
(537.631,1125.167,o),
(543.333,1125.167,c),
(549.035,1125.167,o),
(554.504,1127.432,o),
(558.536,1131.464,c),
(562.568,1135.496,o),
(564.833,1140.965,o),
(564.833,1146.667,c)
);
},
{
closed = 1;
nodes = (
(506.167,1097.035,o),
(503.901,1102.504,o),
(499.869,1106.536,c),
(495.837,1110.568,o),
(490.369,1112.833,o),
(484.667,1112.833,c),
(478.965,1112.833,o),
(473.496,1110.568,o),
(469.464,1106.536,c),
(465.432,1102.504,o),
(463.167,1097.035,o),
(463.167,1091.333,c),
(463.167,1085.631,o),
(465.432,1080.163,o),
(469.464,1076.131,c),
(473.496,1072.099,o),
(478.965,1069.833,o),
(484.667,1069.833,c),
(490.369,1069.833,o),
(495.837,1072.099,o),
(499.869,1076.131,c),
(503.901,1080.163,o),
(506.167,1085.631,o),
(506.167,1091.333,c)
);
},
{
closed = 1;
nodes = (
(447.5,1041.702,o),
(445.235,1047.171,o),
(441.203,1051.203,c),
(437.171,1055.235,o),
(431.702,1057.5,o),
(426,1057.5,c),
(420.298,1057.5,o),
(414.829,1055.235,o),
(410.797,1051.203,c),
(406.765,1047.171,o),
(404.5,1041.702,o),
(404.5,1036,c),
(404.5,1030.298,o),
(406.765,1024.829,o),
(410.797,1020.797,c),
(414.829,1016.765,o),
(420.298,1014.5,o),
(426,1014.5,c),
(431.702,1014.5,o),
(437.171,1016.765,o),
(441.203,1020.797,c),
(445.235,1024.829,o),
(447.5,1030.298,o),
(447.5,1036,c)
);
},
{
closed = 1;
nodes = (
(388.833,986.369,o),
(386.568,991.837,o),
(382.536,995.869,c),
(378.504,999.901,o),
(373.035,1002.167,o),
(367.333,1002.167,c),
(361.631,1002.167,o),
(356.163,999.901,o),
(352.131,995.869,c),
(348.099,991.837,o),
(345.833,986.369,o),
(345.833,980.667,c),
(345.833,974.965,o),
(348.099,969.496,o),
(352.131,965.464,c),
(356.163,961.432,o),
(361.631,959.167,o),
(367.333,959.167,c),
(373.035,959.167,o),
(378.504,961.432,o),
(382.536,965.464,c),
(386.568,969.496,o),
(388.833,974.965,o),
(388.833,980.667,c)
);
},
{
closed = 1;
nodes = (
(330.167,931.035,o),
(327.901,936.504,o),
(323.869,940.536,c),
(319.837,944.568,o),
(314.369,946.833,o),
(308.667,946.833,c),
(302.965,946.833,o),
(297.496,944.568,o),
(293.464,940.536,c),
(289.432,936.504,o),
(287.167,931.035,o),
(287.167,925.333,c),
(287.167,919.631,o),
(289.432,914.163,o),
(293.464,910.131,c),
(297.496,906.099,o),
(302.965,903.833,o),
(308.667,903.833,c),
(314.369,903.833,o),
(319.837,906.099,o),
(323.869,910.131,c),
(327.901,914.163,o),
(330.167,919.631,o),
(330.167,925.333,c)
);
},
{
closed = 1;
nodes = (
(329,821.327,o),
(326.735,826.796,o),
(322.703,830.828,c),
(318.671,834.86,o),
(313.202,837.125,o),
(307.5,837.125,c),
(301.798,837.125,o),
(296.329,834.86,o),
(292.297,830.828,c),
(288.265,826.796,o),
(286,821.327,o),
(286,815.625,c),
(286,809.923,o),
(288.265,804.454,o),
(292.297,800.422,c),
(296.329,796.39,o),
(301.798,794.125,o),
(307.5,794.125,c),
(313.202,794.125,o),
(318.671,796.39,o),
(322.703,800.422,c),
(326.735,804.454,o),
(329,809.923,o),
(329,815.625,c)
);
},
{
closed = 1;
nodes = (
(386.5,766.952,o),
(384.235,772.421,o),
(380.203,776.453,c),
(376.171,780.485,o),
(370.702,782.75,o),
(365,782.75,c),
(359.298,782.75,o),
(353.829,780.485,o),
(349.797,776.453,c),
(345.765,772.421,o),
(343.5,766.952,o),
(343.5,761.25,c),
(343.5,755.548,o),
(345.765,750.079,o),
(349.797,746.047,c),
(353.829,742.015,o),
(359.298,739.75,o),
(365,739.75,c),
(370.702,739.75,o),
(376.171,742.015,o),
(380.203,746.047,c),
(384.235,750.079,o),
(386.5,755.548,o),
(386.5,761.25,c)
);
},
{
closed = 1;
nodes = (
(444,712.577,o),
(441.735,718.046,o),
(437.703,722.078,c),
(433.671,726.11,o),
(428.202,728.375,o),
(422.5,728.375,c),
(416.798,728.375,o),
(411.329,726.11,o),
(407.297,722.078,c),
(403.265,718.046,o),
(401,712.577,o),
(401,706.875,c),
(401,701.173,o),
(403.265,695.704,o),
(407.297,691.672,c),
(411.329,687.64,o),
(416.798,685.375,o),
(422.5,685.375,c),
(428.202,685.375,o),
(433.671,687.64,o),
(437.703,691.672,c),
(441.735,695.704,o),
(444,701.173,o),
(444,706.875,c)
);
},
{
closed = 1;
nodes = (
(501.5,658.202,o),
(499.235,663.671,o),
(495.203,667.703,c),
(491.171,671.735,o),
(485.702,674,o),
(480,674,c),
(474.298,674,o),
(468.829,671.735,o),
(464.797,667.703,c),
(460.765,663.671,o),
(458.5,658.202,o),
(458.5,652.5,c),
(458.5,646.798,o),
(460.765,641.329,o),
(464.797,637.297,c),
(468.829,633.265,o),
(474.298,631,o),
(480,631,c),
(485.702,631,o),
(491.171,633.265,o),
(495.203,637.297,c),
(499.235,641.329,o),
(501.5,646.798,o),
(501.5,652.5,c)
);
},
{
closed = 1;
nodes = (
(559,603.827,o),
(556.735,609.296,o),
(552.703,613.328,c),
(548.671,617.36,o),
(543.202,619.625,o),
(537.5,619.625,c),
(531.798,619.625,o),
(526.329,617.36,o),
(522.297,613.328,c),
(518.265,609.296,o),
(516,603.827,o),
(516,598.125,c),
(516,592.423,o),
(518.265,586.954,o),
(522.297,582.922,c),
(526.329,578.89,o),
(531.798,576.625,o),
(537.5,576.625,c),
(543.202,576.625,o),
(548.671,578.89,o),
(552.703,582.922,c),
(556.735,586.954,o),
(559,592.423,o),
(559,598.125,c)
);
},
{
closed = 1;
nodes = (
(616.5,549.452,o),
(614.235,554.921,o),
(610.203,558.953,c),
(606.171,562.985,o),
(600.702,565.25,o),
(595,565.25,c),
(589.298,565.25,o),
(583.829,562.985,o),
(579.797,558.953,c),
(575.765,554.921,o),
(573.5,549.452,o),
(573.5,543.75,c),
(573.5,538.048,o),
(575.765,532.579,o),
(579.797,528.547,c),
(583.829,524.515,o),
(589.298,522.25,o),
(595,522.25,c),
(600.702,522.25,o),
(606.171,524.515,o),
(610.203,528.547,c),
(614.235,532.579,o),
(616.5,538.048,o),
(616.5,543.75,c)
);
},
{
closed = 1;
nodes = (
(674,495.077,o),
(671.735,500.546,o),
(667.703,504.578,c),
(663.671,508.61,o),
(658.202,510.875,o),
(652.5,510.875,c),
(646.798,510.875,o),
(641.329,508.61,o),
(637.297,504.578,c),
(633.265,500.546,o),
(631,495.077,o),
(631,489.375,c),
(631,483.673,o),
(633.265,478.204,o),
(637.297,474.172,c),
(641.329,470.14,o),
(646.798,467.875,o),
(652.5,467.875,c),
(658.202,467.875,o),
(663.671,470.14,o),
(667.703,474.172,c),
(671.735,478.204,o),
(674,483.673,o),
(674,489.375,c)
);
},
{
closed = 1;
nodes = (
(731.5,440.702,o),
(729.235,446.171,o),
(725.203,450.203,c),
(721.171,454.235,o),
(715.702,456.5,o),
(710,456.5,c),
(704.298,456.5,o),
(698.829,454.235,o),
(694.797,450.203,c),
(690.765,446.171,o),
(688.5,440.702,o),
(688.5,435,c),
(688.5,429.298,o),
(690.765,423.829,o),
(694.797,419.797,c),
(698.829,415.765,o),
(704.298,413.5,o),
(710,413.5,c),
(715.702,413.5,o),
(721.171,415.765,o),
(725.203,419.797,c),
(729.235,423.829,o),
(731.5,429.298,o),
(731.5,435,c)
);
},
{
closed = 1;
nodes = (
(789,386.327,o),
(786.735,391.796,o),
(782.703,395.828,c),
(778.671,399.86,o),
(773.202,402.125,o),
(767.5,402.125,c),
(761.798,402.125,o),
(756.329,399.86,o),
(752.297,395.828,c),
(748.265,391.796,o),
(746,386.327,o),
(746,380.625,c),
(746,374.923,o),
(748.265,369.454,o),
(752.297,365.422,c),
(756.329,361.39,o),
(761.798,359.125,o),
(767.5,359.125,c),
(773.202,359.125,o),
(778.671,361.39,o),
(782.703,365.422,c),
(786.735,369.454,o),
(789,374.923,o),
(789,380.625,c)
);
},
{
closed = 1;
nodes = (
(846.5,331.952,o),
(844.235,337.421,o),
(840.203,341.453,c),
(836.171,345.485,o),
(830.702,347.75,o),
(825,347.75,c),
(819.298,347.75,o),
(813.829,345.485,o),
(809.797,341.453,c),
(805.765,337.421,o),
(803.5,331.952,o),
(803.5,326.25,c),
(803.5,320.548,o),
(805.765,315.079,o),
(809.797,311.047,c),
(813.829,307.015,o),
(819.298,304.75,o),
(825,304.75,c),
(830.702,304.75,o),
(836.171,307.015,o),
(840.203,311.047,c),
(844.235,315.079,o),
(846.5,320.548,o),
(846.5,326.25,c)
);
},
{
closed = 1;
nodes = (
(904,277.577,o),
(901.735,283.046,o),
(897.703,287.078,c),
(893.671,291.11,o),
(888.202,293.375,o),
(882.5,293.375,c),
(876.798,293.375,o),
(871.329,291.11,o),
(867.297,287.078,c),
(863.265,283.046,o),
(861,277.577,o),
(861,271.875,c),
(861,266.173,o),
(863.265,260.704,o),
(867.297,256.672,c),
(871.329,252.64,o),
(876.798,250.375,o),
(882.5,250.375,c),
(888.202,250.375,o),
(893.671,252.64,o),
(897.703,256.672,c),
(901.735,260.704,o),
(904,266.173,o),
(904,271.875,c)
);
},
{
closed = 1;
nodes = (
(961.5,223.202,o),
(959.235,228.671,o),
(955.203,232.703,c),
(951.171,236.735,o),
(945.702,239,o),
(940,239,c),
(934.298,239,o),
(928.829,236.735,o),
(924.797,232.703,c),
(920.765,228.671,o),
(918.5,223.202,o),
(918.5,217.5,c),
(918.5,211.798,o),
(920.765,206.329,o),
(924.797,202.297,c),
(928.829,198.265,o),
(934.298,196,o),
(940,196,c),
(945.702,196,o),
(951.171,198.265,o),
(955.203,202.297,c),
(959.235,206.329,o),
(961.5,211.798,o),
(961.5,217.5,c)
);
},
{
closed = 1;
nodes = (
(1019,168.827,o),
(1016.735,174.296,o),
(1012.703,178.328,c),
(1008.671,182.36,o),
(1003.202,184.625,o),
(997.5,184.625,c),
(991.798,184.625,o),
(986.329,182.36,o),
(982.297,178.328,c),
(978.265,174.296,o),
(976,168.827,o),
(976,163.125,c),
(976,157.423,o),
(978.265,151.954,o),
(982.297,147.922,c),
(986.329,143.89,o),
(991.798,141.625,o),
(997.5,141.625,c),
(1003.202,141.625,o),
(1008.671,143.89,o),
(1012.703,147.922,c),
(1016.735,151.954,o),
(1019,157.423,o),
(1019,163.125,c)
);
},
{
closed = 1;
nodes = (
(1076.5,114.452,o),
(1074.235,119.921,o),
(1070.203,123.953,c),
(1066.171,127.985,o),
(1060.702,130.25,o),
(1055,130.25,c),
(1049.298,130.25,o),
(1043.829,127.985,o),
(1039.797,123.953,c),
(1035.765,119.921,o),
(1033.5,114.452,o),
(1033.5,108.75,c),
(1033.5,103.048,o),
(1035.765,97.579,o),
(1039.797,93.547,c),
(1043.829,89.515,o),
(1049.298,87.25,o),
(1055,87.25,c),
(1060.702,87.25,o),
(1066.171,89.515,o),
(1070.203,93.547,c),
(1074.235,97.579,o),
(1076.5,103.048,o),
(1076.5,108.75,c)
);
},
{
closed = 1;
nodes = (
(1134,60.077,o),
(1131.735,65.546,o),
(1127.703,69.578,c),
(1123.671,73.61,o),
(1118.202,75.875,o),
(1112.5,75.875,c),
(1106.798,75.875,o),
(1101.329,73.61,o),
(1097.297,69.578,c),
(1093.265,65.546,o),
(1091,60.077,o),
(1091,54.375,c),
(1091,48.673,o),
(1093.265,43.204,o),
(1097.297,39.172,c),
(1101.329,35.14,o),
(1106.798,32.875,o),
(1112.5,32.875,c),
(1118.202,32.875,o),
(1123.671,35.14,o),
(1127.703,39.172,c),
(1131.735,43.204,o),
(1134,48.673,o),
(1134,54.375,c)
);
},
{
closed = 1;
nodes = (
(271.5,1622.702,o),
(269.235,1628.171,o),
(265.203,1632.203,c),
(261.171,1636.235,o),
(255.702,1638.5,o),
(250,1638.5,c),
(244.298,1638.5,o),
(238.829,1636.235,o),
(234.797,1632.203,c),
(230.765,1628.171,o),
(228.5,1622.702,o),
(228.5,1617,c),
(228.5,1611.298,o),
(230.765,1605.829,o),
(234.797,1601.797,c),
(238.829,1597.765,o),
(244.298,1595.5,o),
(250,1595.5,c),
(255.702,1595.5,o),
(261.171,1597.765,o),
(265.203,1601.797,c),
(269.235,1605.829,o),
(271.5,1611.298,o),
(271.5,1617,c)
);
},
{
closed = 1;
nodes = (
(271.5,1539.702,o),
(269.235,1545.171,o),
(265.203,1549.203,c),
(261.171,1553.235,o),
(255.702,1555.5,o),
(250,1555.5,c),
(244.298,1555.5,o),
(238.829,1553.235,o),
(234.797,1549.203,c),
(230.765,1545.171,o),
(228.5,1539.702,o),
(228.5,1534,c),
(228.5,1528.298,o),
(230.765,1522.829,o),
(234.797,1518.797,c),
(238.829,1514.765,o),
(244.298,1512.5,o),
(250,1512.5,c),
(255.702,1512.5,o),
(261.171,1514.765,o),
(265.203,1518.797,c),
(269.235,1522.829,o),
(271.5,1528.298,o),
(271.5,1534,c)
);
},
{
closed = 1;
nodes = (
(271.5,1456.702,o),
(269.235,1462.171,o),
(265.203,1466.203,c),
(261.171,1470.235,o),
(255.702,1472.5,o),
(250,1472.5,c),
(244.298,1472.5,o),
(238.829,1470.235,o),
(234.797,1466.203,c),
(230.765,1462.171,o),
(228.5,1456.702,o),
(228.5,1451,c),
(228.5,1445.298,o),
(230.765,1439.829,o),
(234.797,1435.797,c),
(238.829,1431.765,o),
(244.298,1429.5,o),
(250,1429.5,c),
(255.702,1429.5,o),
(261.171,1431.765,o),
(265.203,1435.797,c),
(269.235,1439.829,o),
(271.5,1445.298,o),
(271.5,1451,c)
);
},
{
closed = 1;
nodes = (
(271.5,1373.702,o),
(269.235,1379.171,o),
(265.203,1383.203,c),
(261.171,1387.235,o),
(255.702,1389.5,o),
(250,1389.5,c),
(244.298,1389.5,o),
(238.829,1387.235,o),
(234.797,1383.203,c),
(230.765,1379.171,o),
(228.5,1373.702,o),
(228.5,1368,c),
(228.5,1362.298,o),
(230.765,1356.829,o),
(234.797,1352.797,c),
(238.829,1348.765,o),
(244.298,1346.5,o),
(250,1346.5,c),
(255.702,1346.5,o),
(261.171,1348.765,o),
(265.203,1352.797,c),
(269.235,1356.829,o),
(271.5,1362.298,o),
(271.5,1368,c)
);
},
{
closed = 1;
nodes = (
(271.5,1290.702,o),
(269.235,1296.171,o),
(265.203,1300.203,c),
(261.171,1304.235,o),
(255.702,1306.5,o),
(250,1306.5,c),
(244.298,1306.5,o),
(238.829,1304.235,o),
(234.797,1300.203,c),
(230.765,1296.171,o),
(228.5,1290.702,o),
(228.5,1285,c),
(228.5,1279.298,o),
(230.765,1273.829,o),
(234.797,1269.797,c),
(238.829,1265.765,o),
(244.298,1263.5,o),
(250,1263.5,c),
(255.702,1263.5,o),
(261.171,1265.765,o),
(265.203,1269.797,c),
(269.235,1273.829,o),
(271.5,1279.298,o),
(271.5,1285,c)
);
},
{
closed = 1;
nodes = (
(271.5,1207.702,o),
(269.235,1213.171,o),
(265.203,1217.203,c),
(261.171,1221.235,o),
(255.702,1223.5,o),
(250,1223.5,c),
(244.298,1223.5,o),
(238.829,1221.235,o),
(234.797,1217.203,c),
(230.765,1213.171,o),
(228.5,1207.702,o),
(228.5,1202,c),
(228.5,1196.298,o),
(230.765,1190.829,o),
(234.797,1186.797,c),
(238.829,1182.765,o),
(244.298,1180.5,o),
(250,1180.5,c),
(255.702,1180.5,o),
(261.171,1182.765,o),
(265.203,1186.797,c),
(269.235,1190.829,o),
(271.5,1196.298,o),
(271.5,1202,c)
);
},
{
closed = 1;
nodes = (
(271.5,1124.702,o),
(269.235,1130.171,o),
(265.203,1134.203,c),
(261.171,1138.235,o),
(255.702,1140.5,o),
(250,1140.5,c),
(244.298,1140.5,o),
(238.829,1138.235,o),
(234.797,1134.203,c),
(230.765,1130.171,o),
(228.5,1124.702,o),
(228.5,1119,c),
(228.5,1113.298,o),
(230.765,1107.829,o),
(234.797,1103.797,c),
(238.829,1099.765,o),
(244.298,1097.5,o),
(250,1097.5,c),
(255.702,1097.5,o),
(261.171,1099.765,o),
(265.203,1103.797,c),
(269.235,1107.829,o),
(271.5,1113.298,o),
(271.5,1119,c)
);
},
{
closed = 1;
nodes = (
(271.5,1041.702,o),
(269.235,1047.171,o),
(265.203,1051.203,c),
(261.171,1055.235,o),
(255.702,1057.5,o),
(250,1057.5,c),
(244.298,1057.5,o),
(238.829,1055.235,o),
(234.797,1051.203,c),
(230.765,1047.171,o),
(228.5,1041.702,o),
(228.5,1036,c),
(228.5,1030.298,o),
(230.765,1024.829,o),
(234.797,1020.797,c),
(238.829,1016.765,o),
(244.298,1014.5,o),
(250,1014.5,c),
(255.702,1014.5,o),
(261.171,1016.765,o),
(265.203,1020.797,c),
(269.235,1024.829,o),
(271.5,1030.298,o),
(271.5,1036,c)
);
},
{
closed = 1;
nodes = (
(271.5,958.702,o),
(269.235,964.171,o),
(265.203,968.203,c),
(261.171,972.235,o),
(255.702,974.5,o),
(250,974.5,c),
(244.298,974.5,o),
(238.829,972.235,o),
(234.797,968.203,c),
(230.765,964.171,o),
(228.5,958.702,o),
(228.5,953,c),
(228.5,947.298,o),
(230.765,941.829,o),
(234.797,937.797,c),
(238.829,933.765,o),
(244.298,931.5,o),
(250,931.5,c),
(255.702,931.5,o),
(261.171,933.765,o),
(265.203,937.797,c),
(269.235,941.829,o),
(271.5,947.298,o),
(271.5,953,c)
);
},
{
closed = 1;
nodes = (
(271.5,796.611,o),
(269.235,802.08,o),
(265.203,806.112,c),
(261.171,810.144,o),
(255.702,812.409,o),
(250,812.409,c),
(244.298,812.409,o),
(238.829,810.144,o),
(234.797,806.112,c),
(230.765,802.08,o),
(228.5,796.611,o),
(228.5,790.909,c),
(228.5,785.207,o),
(230.765,779.738,o),
(234.797,775.706,c),
(238.829,771.674,o),
(244.298,769.409,o),
(250,769.409,c),
(255.702,769.409,o),
(261.171,771.674,o),
(265.203,775.706,c),
(269.235,779.738,o),
(271.5,785.207,o),
(271.5,790.909,c)
);
},
{
closed = 1;
nodes = (
(271.5,717.52,o),
(269.235,722.989,o),
(265.203,727.021,c),
(261.171,731.053,o),
(255.702,733.318,o),
(250,733.318,c),
(244.298,733.318,o),
(238.829,731.053,o),
(234.797,727.021,c),
(230.765,722.989,o),
(228.5,717.52,o),
(228.5,711.818,c),
(228.5,706.116,o),
(230.765,700.647,o),
(234.797,696.616,c),
(238.829,692.583,o),
(244.298,690.318,o),
(250,690.318,c),
(255.702,690.318,o),
(261.171,692.583,o),
(265.203,696.616,c),
(269.235,700.647,o),
(271.5,706.116,o),
(271.5,711.818,c)
);
},
{
closed = 1;
nodes = (
(271.5,638.429,o),
(269.235,643.898,o),
(265.203,647.93,c),
(261.171,651.962,o),
(255.702,654.227,o),
(250,654.227,c),
(244.298,654.227,o),
(238.829,651.962,o),
(234.797,647.93,c),
(230.765,643.898,o),
(228.5,638.429,o),
(228.5,632.727,c),
(228.5,627.025,o),
(230.765,621.557,o),
(234.797,617.525,c),
(238.829,613.492,o),
(244.298,611.227,o),
(250,611.227,c),
(255.702,611.227,o),
(261.171,613.492,o),
(265.203,617.525,c),
(269.235,621.557,o),
(271.5,627.025,o),
(271.5,632.727,c)
);
},
{
closed = 1;
nodes = (
(271.5,559.339,o),
(269.235,564.807,o),
(265.203,568.839,c),
(261.171,572.871,o),
(255.702,575.136,o),
(250,575.136,c),
(244.298,575.136,o),
(238.829,572.871,o),
(234.797,568.839,c),
(230.765,564.807,o),
(228.5,559.339,o),
(228.5,553.636,c),
(228.5,547.934,o),
(230.765,542.466,o),
(234.797,538.434,c),
(238.829,534.402,o),
(244.298,532.136,o),
(250,532.136,c),
(255.702,532.136,o),
(261.171,534.402,o),
(265.203,538.434,c),
(269.235,542.466,o),
(271.5,547.934,o),
(271.5,553.636,c)
);
},
{
closed = 1;
nodes = (
(271.5,480.248,o),
(269.235,485.716,o),
(265.203,489.748,c),
(261.171,493.78,o),
(255.702,496.045,o),
(250,496.045,c),
(244.298,496.045,o),
(238.829,493.78,o),
(234.797,489.748,c),
(230.765,485.716,o),
(228.5,480.248,o),
(228.5,474.545,c),
(228.5,468.843,o),
(230.765,463.375,o),
(234.797,459.343,c),
(238.829,455.311,o),
(244.298,453.045,o),
(250,453.045,c),
(255.702,453.045,o),
(261.171,455.311,o),
(265.203,459.343,c),
(269.235,463.375,o),
(271.5,468.843,o),
(271.5,474.545,c)
);
},
{
closed = 1;
nodes = (
(271.5,401.157,o),
(269.235,406.625,o),
(265.203,410.657,c),
(261.171,414.689,o),
(255.702,416.955,o),
(250,416.955,c),
(244.298,416.955,o),
(238.829,414.689,o),
(234.797,410.657,c),
(230.765,406.625,o),
(228.5,401.157,o),
(228.5,395.455,c),
(228.5,389.752,o),
(230.765,384.284,o),
(234.797,380.252,c),
(238.829,376.22,o),
(244.298,373.955,o),
(250,373.955,c),
(255.702,373.955,o),
(261.171,376.22,o),
(265.203,380.252,c),
(269.235,384.284,o),
(271.5,389.752,o),
(271.5,395.455,c)
);
},
{
closed = 1;
nodes = (
(271.5,322.066,o),
(269.235,327.534,o),
(265.203,331.566,c),
(261.171,335.598,o),
(255.702,337.864,o),
(250,337.864,c),
(244.298,337.864,o),
(238.829,335.598,o),
(234.797,331.566,c),
(230.765,327.534,o),
(228.5,322.066,o),
(228.5,316.364,c),
(228.5,310.661,o),
(230.765,305.193,o),
(234.797,301.161,c),
(238.829,297.129,o),
(244.298,294.864,o),
(250,294.864,c),
(255.702,294.864,o),
(261.171,297.129,o),
(265.203,301.161,c),
(269.235,305.193,o),
(271.5,310.661,o),
(271.5,316.364,c)
);
},
{
closed = 1;
nodes = (
(271.5,242.975,o),
(269.235,248.443,o),
(265.203,252.475,c),
(261.171,256.508,o),
(255.702,258.773,o),
(250,258.773,c),
(244.298,258.773,o),
(238.829,256.508,o),
(234.797,252.475,c),
(230.765,248.443,o),
(228.5,242.975,o),
(228.5,237.273,c),
(228.5,231.571,o),
(230.765,226.102,o),
(234.797,222.07,c),
(238.829,218.038,o),
(244.298,215.773,o),
(250,215.773,c),
(255.702,215.773,o),
(261.171,218.038,o),
(265.203,222.07,c),
(269.235,226.102,o),
(271.5,231.571,o),
(271.5,237.273,c)
);
},
{
closed = 1;
nodes = (
(271.5,163.884,o),
(269.235,169.353,o),
(265.203,173.384,c),
(261.171,177.417,o),
(255.702,179.682,o),
(250,179.682,c),
(244.298,179.682,o),
(238.829,177.417,o),
(234.797,173.384,c),
(230.765,169.353,o),
(228.5,163.884,o),
(228.5,158.182,c),
(228.5,152.48,o),
(230.765,147.011,o),
(234.797,142.979,c),
(238.829,138.947,o),
(244.298,136.682,o),
(250,136.682,c),
(255.702,136.682,o),
(261.171,138.947,o),
(265.203,142.979,c),
(269.235,147.011,o),
(271.5,152.48,o),
(271.5,158.182,c)
);
},
{
closed = 1;
nodes = (
(271.5,84.793,o),
(269.235,90.262,o),
(265.203,94.294,c),
(261.171,98.326,o),
(255.702,100.591,o),
(250,100.591,c),
(244.298,100.591,o),
(238.829,98.326,o),
(234.797,94.294,c),
(230.765,90.262,o),
(228.5,84.793,o),
(228.5,79.091,c),
(228.5,73.389,o),
(230.765,67.92,o),
(234.797,63.888,c),
(238.829,59.856,o),
(244.298,57.591,o),
(250,57.591,c),
(255.702,57.591,o),
(261.171,59.856,o),
(265.203,63.888,c),
(269.235,67.92,o),
(271.5,73.389,o),
(271.5,79.091,c)
);
}
);
visible = 1;
width = 1320;
}
);
unicode = 75;
}
{
glyphname = L;
layers = (
{
layerId = m01;
shapes = (
{
ref = _c.stemLA;
},
{
closed = 0;
nodes = (
(250,0,l,{
co.uk.corvelsoftware.Dotter = {
locally_forced = 1;
};
}),
(350,0,o),
(1050,0,o),
(1150,0,c)
);
}
);
width = 1300;
},
{
layerId = "FDE4885D-BB7A-448A-91AC-7911E70BCCB6";
shapes = (
{
pos = (250,1700);
ref = _dot;
},
{
pos = (250,870);
ref = _dot;
},
{
pos = (250,0);
ref = _dot;
},
{
pos = (1150,0);
ref = _dot;
},
{
pos = (250,1596.25);
ref = _dot;
},
{
pos = (250,1492.5);
ref = _dot;
},
{
pos = (250,1388.75);
ref = _dot;
},
{
pos = (250,1285);
ref = _dot;
},
{
pos = (250,1181.25);
ref = _dot;
},
{
pos = (250,1077.5);
ref = _dot;
},
{
pos = (250,973.75);
ref = _dot;
},
{
pos = (250,773.333);
ref = _dot;
},
{
pos = (250,676.667);
ref = _dot;
},
{
pos = (250,580);
ref = _dot;
},
{
pos = (250,483.333);
ref = _dot;
},
{
pos = (250,386.667);
ref = _dot;
},
{
pos = (250,290);
ref = _dot;
},
{
pos = (250,193.333);
ref = _dot;
},
{
pos = (250,96.667);
ref = _dot;
},
{
pos = (350,0);
ref = _dot;
},
{
pos = (450,0);
ref = _dot;
},
{
pos = (550,0);
ref = _dot;
},
{
pos = (650,0);
ref = _dot;
},
{
pos = (750,0);
ref = _dot;
},
{
pos = (850,0);
ref = _dot;
},
{
pos = (950,0);
ref = _dot;
},
{
pos = (1050,0);
ref = _dot;
}
);
width = 1300;
}
);
unicode = 76;
}
{
glyphname = M;
layers = (
{
layerId = m01;
shapes = (
{
ref = _c.stemLA;
},
{
pos = (1460,0);
ref = _c.stemLA;
},
{
closed = 0;
nodes = (
(250,1700,l,{
co.uk.corvelsoftware.Dotter = {
locally_forced = 1;
};
}),
(980,0,l,{
co.uk.corvelsoftware.Dotter = {
forced = 1;
};
}),
(1710,1704,l)
);
}
);
width = 1960;
},
{
layerId = "FDE4885D-BB7A-448A-91AC-7911E70BCCB6";
shapes = (
{
pos = (250,1700);
ref = _dot;
},
{
pos = (250,870);
ref = _dot;
},
{
pos = (250,0);
ref = _dot;
},
{
pos = (1710,1700);
ref = _dot;
},
{
pos = (1710,870);
ref = _dot;
},
{
pos = (1710,0);
ref = _dot;
},
{
pos = (980,0);
ref = _dot;
},
{
pos = (250,1607.638);
ref = _dot;
},
{
pos = (250,1514.814);
ref = _dot;
},
{
pos = (250,1422.555);
ref = _dot;
},
{
pos = (250,1329.501);
ref = _dot;
},
{
pos = (250,1236.539);
ref = _dot;
},
{
pos = (250,1143.415);
ref = _dot;
},
{
pos = (250,1051.027);
ref = _dot;
},
{
pos = (250,958.696);
ref = _dot;
},
{
pos = (250,772.552);
ref = _dot;
},
{
pos = (250,674.671);
ref = _dot;
},
{
pos = (250,577.459);
ref = _dot;
},
{
pos = (250,479.931);
ref = _dot;
},
{
pos = (250,382.905);
ref = _dot;
},
{
pos = (250,286.091);
ref = _dot;
},
{
pos = (250,188.888);
ref = _dot;
},
{
pos = (250,91.916);
ref = _dot;
},
{
pos = (1710,1607.638);
ref = _dot;
},
{
pos = (1710,1514.814);
ref = _dot;
},
{
pos = (1710,1422.555);
ref = _dot;
},
{
pos = (1710,1329.501);
ref = _dot;
},
{
pos = (1710,1236.539);
ref = _dot;
},
{
pos = (1710,1143.415);
ref = _dot;
},
{
pos = (1710,1051.027);
ref = _dot;
},
{
pos = (1710,958.696);
ref = _dot;
},
{
pos = (1710,772.552);
ref = _dot;
},
{
pos = (1710,674.671);
ref = _dot;
},
{
pos = (1710,577.459);
ref = _dot;
},
{
pos = (1710,479.931);
ref = _dot;
},
{
pos = (1710,382.905);
ref = _dot;
},
{
pos = (1710,286.091);
ref = _dot;
},
{
pos = (1710,188.888);
ref = _dot;
},
{
pos = (1710,91.916);
ref = _dot;
},
{
pos = (327.38,1519.8);
ref = _dot;
},
{
pos = (366.07,1429.7);
ref = _dot;
},
{
pos = (404.76,1339.6);
ref = _dot;
},
{
pos = (443.45,1249.5);
ref = _dot;
},
{
pos = (482.14,1159.4);
ref = _dot;
},
{
pos = (520.83,1069.3);
ref = _dot;
},
{
pos = (559.52,979.2);
ref = _dot;
},
{
pos = (598.21,889.1);
ref = _dot;
},
{
pos = (636.9,799);
ref = _dot;
},
{
pos = (675.59,708.9);
ref = _dot;
},
{
pos = (714.28,618.8);
ref = _dot;
},
{
pos = (752.97,528.7);
ref = _dot;
},
{
pos = (791.66,438.6);
ref = _dot;
},
{
pos = (830.35,348.5);
ref = _dot;
},
{
pos = (869.04,258.4);
ref = _dot;
},
{
pos = (907.73,168.3);
ref = _dot;
},
{
pos = (946.42,78.2);
ref = _dot;
},
{
pos = (1018.69,90.312);
ref = _dot;
},
{
pos = (1057.38,180.624);
ref = _dot;
},
{
pos = (1096.07,270.936);
ref = _dot;
},
{
pos = (1134.76,361.248);
ref = _dot;
},
{
pos = (1173.45,451.56);
ref = _dot;
},
{
pos = (1212.14,541.872);
ref = _dot;
},
{
pos = (1250.83,632.184);
ref = _dot;
},
{
pos = (1289.52,722.496);
ref = _dot;
},
{
pos = (1328.21,812.808);
ref = _dot;
},
{
pos = (1366.9,903.12);
ref = _dot;
},
{
pos = (1405.59,993.432);
ref = _dot;
},
{
pos = (1444.28,1083.744);
ref = _dot;
},
{
pos = (1482.97,1174.056);
ref = _dot;
},
{
pos = (1521.66,1264.368);
ref = _dot;
},
{
pos = (1560.35,1354.68);
ref = _dot;
},
{
pos = (1599.04,1444.992);
ref = _dot;
},
{
pos = (1637.73,1535.304);
ref = _dot;
}
);
width = 1960;
},
{
associatedMasterId = m01;
layerId = "ED8687CB-BA89-4F1E-81BD-715018629766";
name = "Pendot Quick Preview";
shapes = (
{
closed = 1;
nodes = (
(282,1708.487,o),
(278.629,1716.626,o),
(272.627,1722.627,c),
(266.626,1728.629,o),
(258.487,1732,o),
(250,1732,c),
(241.513,1732,o),
(233.374,1728.629,o),
(227.373,1722.627,c),
(221.371,1716.626,o),
(218,1708.487,o),
(218,1700,c),
(218,1691.513,o),
(221.371,1683.374,o),
(227.373,1677.373,c),
(233.374,1671.371,o),
(241.513,1668,o),
(250,1668,c),
(258.487,1668,o),
(266.626,1671.371,o),
(272.627,1677.373,c),
(278.629,1683.374,o),
(282,1691.513,o),
(282,1700,c)
);
},
{
closed = 1;
nodes = (
(282,878.487,o),
(278.629,886.626,o),
(272.627,892.627,c),
(266.626,898.629,o),
(258.487,902,o),
(250,902,c),
(241.513,902,o),
(233.374,898.629,o),
(227.373,892.627,c),
(221.371,886.626,o),
(218,878.487,o),
(218,870,c),
(218,861.513,o),
(221.371,853.374,o),
(227.373,847.373,c),
(233.374,841.371,o),
(241.513,838,o),
(250,838,c),
(258.487,838,o),
(266.626,841.371,o),
(272.627,847.373,c),
(278.629,853.374,o),
(282,861.513,o),
(282,870,c)
);
},
{
closed = 1;
nodes = (
(282,8.487,o),
(278.629,16.626,o),
(272.627,22.627,c),
(266.626,28.629,o),
(258.487,32,o),
(250,32,c),
(241.513,32,o),
(233.374,28.629,o),
(227.373,22.627,c),
(221.371,16.626,o),
(218,8.487,o),
(218,0,c),
(218,-8.487,o),
(221.371,-16.626,o),
(227.373,-22.627,c),
(233.374,-28.629,o),
(241.513,-32,o),
(250,-32,c),
(258.487,-32,o),
(266.626,-28.629,o),
(272.627,-22.627,c),
(278.629,-16.626,o),
(282,-8.487,o),
(282,0,c)
);
},
{
closed = 1;
nodes = (
(1742,1708.487,o),
(1738.629,1716.626,o),
(1732.627,1722.627,c),
(1726.626,1728.629,o),
(1718.487,1732,o),
(1710,1732,c),
(1701.513,1732,o),
(1693.374,1728.629,o),
(1687.373,1722.627,c),
(1681.371,1716.626,o),
(1678,1708.487,o),
(1678,1700,c),
(1678,1691.513,o),
(1681.371,1683.374,o),
(1687.373,1677.373,c),
(1693.374,1671.371,o),
(1701.513,1668,o),
(1710,1668,c),
(1718.487,1668,o),
(1726.626,1671.371,o),
(1732.627,1677.373,c),
(1738.629,1683.374,o),
(1742,1691.513,o),
(1742,1700,c)
);
},
{
closed = 1;
nodes = (
(1742,878.487,o),
(1738.629,886.626,o),
(1732.627,892.627,c),
(1726.626,898.629,o),
(1718.487,902,o),
(1710,902,c),
(1701.513,902,o),
(1693.374,898.629,o),
(1687.373,892.627,c),
(1681.371,886.626,o),
(1678,878.487,o),
(1678,870,c),
(1678,861.513,o),
(1681.371,853.374,o),
(1687.373,847.373,c),
(1693.374,841.371,o),
(1701.513,838,o),
(1710,838,c),
(1718.487,838,o),
(1726.626,841.371,o),
(1732.627,847.373,c),
(1738.629,853.374,o),
(1742,861.513,o),
(1742,870,c)
);
},
{
closed = 1;
nodes = (
(1742,8.487,o),
(1738.629,16.626,o),
(1732.627,22.627,c),
(1726.626,28.629,o),
(1718.487,32,o),
(1710,32,c),
(1701.513,32,o),
(1693.374,28.629,o),
(1687.373,22.627,c),
(1681.371,16.626,o),
(1678,8.487,o),
(1678,0,c),
(1678,-8.487,o),
(1681.371,-16.626,o),
(1687.373,-22.627,c),
(1693.374,-28.629,o),
(1701.513,-32,o),
(1710,-32,c),
(1718.487,-32,o),
(1726.626,-28.629,o),
(1732.627,-22.627,c),
(1738.629,-16.626,o),
(1742,-8.487,o),
(1742,0,c)
);
},
{
closed = 1;
nodes = (
(1012,8.487,o),
(1008.629,16.626,o),
(1002.627,22.627,c),
(996.626,28.629,o),
(988.487,32,o),
(980,32,c),
(971.513,32,o),
(963.374,28.629,o),
(957.373,22.627,c),
(951.371,16.626,o),
(948,8.487,o),
(948,0,c),
(948,-8.487,o),
(951.371,-16.626,o),
(957.373,-22.627,c),
(963.374,-28.629,o),
(971.513,-32,o),
(980,-32,c),
(988.487,-32,o),
(996.626,-28.629,o),
(1002.627,-22.627,c),
(1008.629,-16.626,o),
(1012,-8.487,o),
(1012,0,c)
);
},
{
closed = 1;
nodes = (
(282,1616.125,o),
(278.629,1624.264,o),
(272.627,1630.265,c),
(266.626,1636.266,o),
(258.487,1639.638,o),
(250,1639.638,c),
(241.513,1639.638,o),
(233.374,1636.266,o),
(227.373,1630.265,c),
(221.371,1624.264,o),
(218,1616.125,o),
(218,1607.638,c),
(218,1599.151,o),
(221.371,1591.011,o),
(227.373,1585.01,c),
(233.374,1579.009,o),
(241.513,1575.638,o),
(250,1575.638,c),
(258.487,1575.638,o),
(266.626,1579.009,o),
(272.627,1585.01,c),
(278.629,1591.011,o),
(282,1599.151,o),
(282,1607.638,c)
);
},
{
closed = 1;
nodes = (
(282,1523.301,o),
(278.629,1531.441,o),
(272.627,1537.442,c),
(266.626,1543.443,o),
(258.487,1546.814,o),
(250,1546.814,c),
(241.513,1546.814,o),
(233.374,1543.443,o),
(227.373,1537.442,c),
(221.371,1531.441,o),
(218,1523.301,o),
(218,1514.814,c),
(218,1506.328,o),
(221.371,1498.188,o),
(227.373,1492.187,c),
(233.374,1486.186,o),
(241.513,1482.814,o),
(250,1482.814,c),
(258.487,1482.814,o),
(266.626,1486.186,o),
(272.627,1492.187,c),
(278.629,1498.188,o),
(282,1506.328,o),
(282,1514.814,c)
);
},
{
closed = 1;
nodes = (
(282,1431.042,o),
(278.629,1439.181,o),
(272.627,1445.182,c),
(266.626,1451.183,o),
(258.487,1454.555,o),
(250,1454.555,c),
(241.513,1454.555,o),
(233.374,1451.183,o),
(227.373,1445.182,c),
(221.371,1439.181,o),
(218,1431.042,o),
(218,1422.555,c),
(218,1414.068,o),
(221.371,1405.929,o),
(227.373,1399.928,c),
(233.374,1393.926,o),
(241.513,1390.555,o),
(250,1390.555,c),
(258.487,1390.555,o),
(266.626,1393.926,o),
(272.627,1399.928,c),
(278.629,1405.929,o),
(282,1414.068,o),
(282,1422.555,c)
);
},
{
closed = 1;
nodes = (
(282,1337.988,o),
(278.629,1346.128,o),
(272.627,1352.129,c),
(266.626,1358.13,o),
(258.487,1361.501,o),
(250,1361.501,c),
(241.513,1361.501,o),
(233.374,1358.13,o),
(227.373,1352.129,c),
(221.371,1346.128,o),
(218,1337.988,o),
(218,1329.501,c),
(218,1321.014,o),
(221.371,1312.875,o),
(227.373,1306.874,c),
(233.374,1300.873,o),
(241.513,1297.501,o),
(250,1297.501,c),
(258.487,1297.501,o),
(266.626,1300.873,o),
(272.627,1306.874,c),
(278.629,1312.875,o),
(282,1321.014,o),
(282,1329.501,c)
);
},
{
closed = 1;
nodes = (
(282,1245.026,o),
(278.629,1253.165,o),
(272.627,1259.166,c),
(266.626,1265.167,o),
(258.487,1268.539,o),
(250,1268.539,c),
(241.513,1268.539,o),
(233.374,1265.167,o),
(227.373,1259.166,c),
(221.371,1253.165,o),
(218,1245.026,o),
(218,1236.539,c),
(218,1228.052,o),
(221.371,1219.912,o),
(227.373,1213.911,c),
(233.374,1207.91,o),
(241.513,1204.539,o),
(250,1204.539,c),
(258.487,1204.539,o),
(266.626,1207.91,o),
(272.627,1213.911,c),
(278.629,1219.912,o),
(282,1228.052,o),
(282,1236.539,c)
);
},
{
closed = 1;
nodes = (
(282,1151.902,o),
(278.629,1160.042,o),
(272.627,1166.043,c),
(266.626,1172.044,o),
(258.487,1175.415,o),
(250,1175.415,c),
(241.513,1175.415,o),
(233.374,1172.044,o),
(227.373,1166.043,c),
(221.371,1160.042,o),
(218,1151.902,o),
(218,1143.415,c),
(218,1134.929,o),
(221.371,1126.789,o),
(227.373,1120.788,c),
(233.374,1114.787,o),
(241.513,1111.415,o),
(250,1111.415,c),
(258.487,1111.415,o),
(266.626,1114.787,o),
(272.627,1120.788,c),
(278.629,1126.789,o),
(282,1134.929,o),
(282,1143.415,c)
);
},
{
closed = 1;
nodes = (
(282,1059.514,o),
(278.629,1067.653,o),
(272.627,1073.654,c),
(266.626,1079.656,o),
(258.487,1083.027,o),
(250,1083.027,c),
(241.513,1083.027,o),
(233.374,1079.656,o),
(227.373,1073.654,c),
(221.371,1067.653,o),
(218,1059.514,o),
(218,1051.027,c),
(218,1042.54,o),
(221.371,1034.401,o),
(227.373,1028.4,c),
(233.374,1022.398,o),
(241.513,1019.027,o),
(250,1019.027,c),
(258.487,1019.027,o),
(266.626,1022.398,o),
(272.627,1028.4,c),
(278.629,1034.401,o),
(282,1042.54,o),
(282,1051.027,c)
);
},
{
closed = 1;
nodes = (
(282,967.182,o),
(278.629,975.322,o),
(272.627,981.323,c),
(266.626,987.324,o),
(258.487,990.696,o),
(250,990.696,c),
(241.513,990.696,o),
(233.374,987.324,o),
(227.373,981.323,c),
(221.371,975.322,o),
(218,967.182,o),
(218,958.696,c),
(218,950.209,o),
(221.371,942.069,o),
(227.373,936.068,c),
(233.374,930.067,o),
(241.513,926.696,o),
(250,926.696,c),
(258.487,926.696,o),
(266.626,930.067,o),
(272.627,936.068,c),
(278.629,942.069,o),
(282,950.209,o),
(282,958.696,c)
);
},
{
closed = 1;
nodes = (
(282,781.039,o),
(278.629,789.178,o),
(272.627,795.179,c),
(266.626,801.18,o),
(258.487,804.552,o),
(250,804.552,c),
(241.513,804.552,o),
(233.374,801.18,o),
(227.373,795.179,c),
(221.371,789.178,o),
(218,781.039,o),
(218,772.552,c),
(218,764.065,o),
(221.371,755.925,o),
(227.373,749.924,c),
(233.374,743.923,o),
(241.513,740.552,o),
(250,740.552,c),
(258.487,740.552,o),
(266.626,743.923,o),
(272.627,749.924,c),
(278.629,755.925,o),
(282,764.065,o),
(282,772.552,c)
);
},
{
closed = 1;
nodes = (
(282,683.158,o),
(278.629,691.297,o),
(272.627,697.298,c),
(266.626,703.3,o),
(258.487,706.671,o),
(250,706.671,c),
(241.513,706.671,o),
(233.374,703.3,o),
(227.373,697.298,c),
(221.371,691.297,o),
(218,683.158,o),
(218,674.671,c),
(218,666.184,o),
(221.371,658.045,o),
(227.373,652.044,c),
(233.374,646.042,o),
(241.513,642.671,o),
(250,642.671,c),
(258.487,642.671,o),
(266.626,646.042,o),
(272.627,652.044,c),
(278.629,658.045,o),
(282,666.184,o),
(282,674.671,c)
);
},
{
closed = 1;
nodes = (
(282,585.946,o),
(278.629,594.085,o),
(272.627,600.086,c),
(266.626,606.088,o),
(258.487,609.459,o),
(250,609.459,c),
(241.513,609.459,o),
(233.374,606.088,o),
(227.373,600.086,c),
(221.371,594.085,o),
(218,585.946,o),
(218,577.459,c),
(218,568.972,o),
(221.371,560.833,o),
(227.373,554.832,c),
(233.374,548.831,o),
(241.513,545.459,o),
(250,545.459,c),
(258.487,545.459,o),
(266.626,548.831,o),
(272.627,554.832,c),
(278.629,560.833,o),
(282,568.972,o),
(282,577.459,c)
);
},
{
closed = 1;
nodes = (
(282,488.418,o),
(278.629,496.557,o),
(272.627,502.558,c),
(266.626,508.559,o),
(258.487,511.931,o),
(250,511.931,c),
(241.513,511.931,o),
(233.374,508.559,o),
(227.373,502.558,c),
(221.371,496.557,o),
(218,488.418,o),
(218,479.931,c),
(218,471.444,o),
(221.371,463.305,o),
(227.373,457.304,c),
(233.374,451.302,o),
(241.513,447.931,o),
(250,447.931,c),
(258.487,447.931,o),
(266.626,451.302,o),
(272.627,457.304,c),
(278.629,463.305,o),
(282,471.444,o),
(282,479.931,c)
);
},
{
closed = 1;
nodes = (
(282,391.392,o),
(278.629,399.531,o),
(272.627,405.532,c),
(266.626,411.533,o),
(258.487,414.905,o),
(250,414.905,c),
(241.513,414.905,o),
(233.374,411.533,o),
(227.373,405.532,c),
(221.371,399.531,o),
(218,391.392,o),
(218,382.905,c),
(218,374.418,o),
(221.371,366.278,o),
(227.373,360.277,c),
(233.374,354.276,o),
(241.513,350.905,o),
(250,350.905,c),
(258.487,350.905,o),
(266.626,354.276,o),
(272.627,360.277,c),
(278.629,366.278,o),
(282,374.418,o),
(282,382.905,c)
);
},
{
closed = 1;
nodes = (
(282,294.578,o),
(278.629,302.717,o),
(272.627,308.718,c),
(266.626,314.72,o),
(258.487,318.091,o),
(250,318.091,c),
(241.513,318.091,o),
(233.374,314.72,o),
(227.373,308.718,c),
(221.371,302.717,o),
(218,294.578,o),
(218,286.091,c),
(218,277.604,o),
(221.371,269.465,o),
(227.373,263.464,c),
(233.374,257.463,o),
(241.513,254.091,o),
(250,254.091,c),
(258.487,254.091,o),
(266.626,257.463,o),
(272.627,263.464,c),
(278.629,269.465,o),
(282,277.604,o),
(282,286.091,c)
);
},
{
closed = 1;
nodes = (
(282,197.375,o),
(278.629,205.514,o),
(272.627,211.515,c),
(266.626,217.516,o),
(258.487,220.888,o),
(250,220.888,c),
(241.513,220.888,o),
(233.374,217.516,o),
(227.373,211.515,c),
(221.371,205.514,o),
(218,197.375,o),
(218,188.888,c),
(218,180.401,o),
(221.371,172.262,o),
(227.373,166.261,c),
(233.374,160.259,o),
(241.513,156.888,o),
(250,156.888,c),
(258.487,156.888,o),
(266.626,160.259,o),
(272.627,166.261,c),
(278.629,172.262,o),
(282,180.401,o),
(282,188.888,c)
);
},
{
closed = 1;
nodes = (
(282,100.402,o),
(278.629,108.542,o),
(272.627,114.543,c),
(266.626,120.544,o),
(258.487,123.916,o),
(250,123.916,c),
(241.513,123.916,o),
(233.374,120.544,o),
(227.373,114.543,c),
(221.371,108.542,o),
(218,100.402,o),
(218,91.916,c),
(218,83.429,o),
(221.371,75.289,o),
(227.373,69.288,c),
(233.374,63.287,o),
(241.513,59.916,o),
(250,59.916,c),
(258.487,59.916,o),
(266.626,63.287,o),
(272.627,69.288,c),
(278.629,75.289,o),
(282,83.429,o),
(282,91.916,c)
);
},
{
closed = 1;
nodes = (
(1742,1616.125,o),
(1738.629,1624.264,o),
(1732.627,1630.265,c),
(1726.626,1636.266,o),
(1718.487,1639.638,o),
(1710,1639.638,c),
(1701.513,1639.638,o),
(1693.374,1636.266,o),
(1687.373,1630.265,c),
(1681.371,1624.264,o),
(1678,1616.125,o),
(1678,1607.638,c),
(1678,1599.151,o),
(1681.371,1591.011,o),
(1687.373,1585.01,c),
(1693.374,1579.009,o),
(1701.513,1575.638,o),
(1710,1575.638,c),
(1718.487,1575.638,o),
(1726.626,1579.009,o),
(1732.627,1585.01,c),
(1738.629,1591.011,o),
(1742,1599.151,o),
(1742,1607.638,c)
);
},
{
closed = 1;
nodes = (
(1742,1523.301,o),
(1738.629,1531.441,o),
(1732.627,1537.442,c),
(1726.626,1543.443,o),
(1718.487,1546.814,o),
(1710,1546.814,c),
(1701.513,1546.814,o),
(1693.374,1543.443,o),
(1687.373,1537.442,c),
(1681.371,1531.441,o),
(1678,1523.301,o),
(1678,1514.814,c),
(1678,1506.328,o),
(1681.371,1498.188,o),
(1687.373,1492.187,c),
(1693.374,1486.186,o),
(1701.513,1482.814,o),
(1710,1482.814,c),
(1718.487,1482.814,o),
(1726.626,1486.186,o),
(1732.627,1492.187,c),
(1738.629,1498.188,o),
(1742,1506.328,o),
(1742,1514.814,c)
);
},
{
closed = 1;
nodes = (
(1742,1431.042,o),
(1738.629,1439.181,o),
(1732.627,1445.182,c),
(1726.626,1451.183,o),
(1718.487,1454.555,o),
(1710,1454.555,c),
(1701.513,1454.555,o),
(1693.374,1451.183,o),
(1687.373,1445.182,c),
(1681.371,1439.181,o),
(1678,1431.042,o),
(1678,1422.555,c),
(1678,1414.068,o),
(1681.371,1405.929,o),
(1687.373,1399.928,c),
(1693.374,1393.926,o),
(1701.513,1390.555,o),
(1710,1390.555,c),
(1718.487,1390.555,o),
(1726.626,1393.926,o),
(1732.627,1399.928,c),
(1738.629,1405.929,o),
(1742,1414.068,o),
(1742,1422.555,c)
);
},
{
closed = 1;
nodes = (
(1742,1337.988,o),
(1738.629,1346.128,o),
(1732.627,1352.129,c),
(1726.626,1358.13,o),
(1718.487,1361.501,o),
(1710,1361.501,c),
(1701.513,1361.501,o),
(1693.374,1358.13,o),
(1687.373,1352.129,c),
(1681.371,1346.128,o),
(1678,1337.988,o),
(1678,1329.501,c),
(1678,1321.014,o),
(1681.371,1312.875,o),
(1687.373,1306.874,c),
(1693.374,1300.873,o),
(1701.513,1297.501,o),
(1710,1297.501,c),
(1718.487,1297.501,o),
(1726.626,1300.873,o),
(1732.627,1306.874,c),
(1738.629,1312.875,o),
(1742,1321.014,o),
(1742,1329.501,c)
);
},
{
closed = 1;
nodes = (
(1742,1245.026,o),
(1738.629,1253.165,o),
(1732.627,1259.166,c),
(1726.626,1265.167,o),
(1718.487,1268.539,o),
(1710,1268.539,c),
(1701.513,1268.539,o),
(1693.374,1265.167,o),
(1687.373,1259.166,c),
(1681.371,1253.165,o),
(1678,1245.026,o),
(1678,1236.539,c),
(1678,1228.052,o),
(1681.371,1219.912,o),
(1687.373,1213.911,c),
(1693.374,1207.91,o),
(1701.513,1204.539,o),
(1710,1204.539,c),
(1718.487,1204.539,o),
(1726.626,1207.91,o),
(1732.627,1213.911,c),
(1738.629,1219.912,o),
(1742,1228.052,o),
(1742,1236.539,c)
);
},
{
closed = 1;
nodes = (
(1742,1151.902,o),
(1738.629,1160.042,o),
(1732.627,1166.043,c),
(1726.626,1172.044,o),
(1718.487,1175.415,o),
(1710,1175.415,c),
(1701.513,1175.415,o),
(1693.374,1172.044,o),
(1687.373,1166.043,c),
(1681.371,1160.042,o),
(1678,1151.902,o),
(1678,1143.415,c),
(1678,1134.929,o),
(1681.371,1126.789,o),
(1687.373,1120.788,c),
(1693.374,1114.787,o),
(1701.513,1111.415,o),
(1710,1111.415,c),
(1718.487,1111.415,o),
(1726.626,1114.787,o),
(1732.627,1120.788,c),
(1738.629,1126.789,o),
(1742,1134.929,o),
(1742,1143.415,c)
);
},
{
closed = 1;
nodes = (
(1742,1059.514,o),
(1738.629,1067.653,o),
(1732.627,1073.654,c),
(1726.626,1079.656,o),
(1718.487,1083.027,o),
(1710,1083.027,c),
(1701.513,1083.027,o),
(1693.374,1079.656,o),
(1687.373,1073.654,c),
(1681.371,1067.653,o),
(1678,1059.514,o),
(1678,1051.027,c),
(1678,1042.54,o),
(1681.371,1034.401,o),
(1687.373,1028.4,c),
(1693.374,1022.398,o),
(1701.513,1019.027,o),
(1710,1019.027,c),
(1718.487,1019.027,o),
(1726.626,1022.398,o),
(1732.627,1028.4,c),
(1738.629,1034.401,o),
(1742,1042.54,o),
(1742,1051.027,c)
);
},
{
closed = 1;
nodes = (
(1742,967.182,o),
(1738.629,975.322,o),
(1732.627,981.323,c),
(1726.626,987.324,o),
(1718.487,990.696,o),
(1710,990.696,c),
(1701.513,990.696,o),
(1693.374,987.324,o),
(1687.373,981.323,c),
(1681.371,975.322,o),
(1678,967.182,o),
(1678,958.696,c),
(1678,950.209,o),
(1681.371,942.069,o),
(1687.373,936.068,c),
(1693.374,930.067,o),
(1701.513,926.696,o),
(1710,926.696,c),
(1718.487,926.696,o),
(1726.626,930.067,o),
(1732.627,936.068,c),
(1738.629,942.069,o),
(1742,950.209,o),
(1742,958.696,c)
);
},
{
closed = 1;
nodes = (
(1742,781.039,o),
(1738.629,789.178,o),
(1732.627,795.179,c),
(1726.626,801.18,o),
(1718.487,804.552,o),
(1710,804.552,c),
(1701.513,804.552,o),
(1693.374,801.18,o),
(1687.373,795.179,c),
(1681.371,789.178,o),
(1678,781.039,o),
(1678,772.552,c),
(1678,764.065,o),
(1681.371,755.925,o),
(1687.373,749.924,c),
(1693.374,743.923,o),
(1701.513,740.552,o),
(1710,740.552,c),
(1718.487,740.552,o),
(1726.626,743.923,o),
(1732.627,749.924,c),
(1738.629,755.925,o),
(1742,764.065,o),
(1742,772.552,c)
);
},
{
closed = 1;
nodes = (
(1742,683.158,o),
(1738.629,691.297,o),
(1732.627,697.298,c),
(1726.626,703.3,o),
(1718.487,706.671,o),
(1710,706.671,c),
(1701.513,706.671,o),
(1693.374,703.3,o),
(1687.373,697.298,c),
(1681.371,691.297,o),
(1678,683.158,o),
(1678,674.671,c),
(1678,666.184,o),
(1681.371,658.045,o),
(1687.373,652.044,c),
(1693.374,646.042,o),
(1701.513,642.671,o),
(1710,642.671,c),
(1718.487,642.671,o),
(1726.626,646.042,o),
(1732.627,652.044,c),
(1738.629,658.045,o),
(1742,666.184,o),
(1742,674.671,c)
);
},
{
closed = 1;
nodes = (
(1742,585.946,o),
(1738.629,594.085,o),
(1732.627,600.086,c),
(1726.626,606.088,o),
(1718.487,609.459,o),
(1710,609.459,c),
(1701.513,609.459,o),
(1693.374,606.088,o),
(1687.373,600.086,c),
(1681.371,594.085,o),
(1678,585.946,o),
(1678,577.459,c),
(1678,568.972,o),
(1681.371,560.833,o),
(1687.373,554.832,c),
(1693.374,548.831,o),
(1701.513,545.459,o),
(1710,545.459,c),
(1718.487,545.459,o),
(1726.626,548.831,o),
(1732.627,554.832,c),
(1738.629,560.833,o),
(1742,568.972,o),
(1742,577.459,c)
);
},
{
closed = 1;
nodes = (
(1742,488.418,o),
(1738.629,496.557,o),
(1732.627,502.558,c),
(1726.626,508.559,o),
(1718.487,511.931,o),
(1710,511.931,c),
(1701.513,511.931,o),
(1693.374,508.559,o),
(1687.373,502.558,c),
(1681.371,496.557,o),
(1678,488.418,o),
(1678,479.931,c),
(1678,471.444,o),
(1681.371,463.305,o),
(1687.373,457.304,c),
(1693.374,451.302,o),
(1701.513,447.931,o),
(1710,447.931,c),
(1718.487,447.931,o),
(1726.626,451.302,o),
(1732.627,457.304,c),
(1738.629,463.305,o),
(1742,471.444,o),
(1742,479.931,c)
);
},
{
closed = 1;
nodes = (
(1742,391.392,o),
(1738.629,399.531,o),
(1732.627,405.532,c),
(1726.626,411.533,o),
(1718.487,414.905,o),
(1710,414.905,c),
(1701.513,414.905,o),
(1693.374,411.533,o),
(1687.373,405.532,c),
(1681.371,399.531,o),
(1678,391.392,o),
(1678,382.905,c),
(1678,374.418,o),
(1681.371,366.278,o),
(1687.373,360.277,c),
(1693.374,354.276,o),
(1701.513,350.905,o),
(1710,350.905,c),
(1718.487,350.905,o),
(1726.626,354.276,o),
(1732.627,360.277,c),
(1738.629,366.278,o),
(1742,374.418,o),
(1742,382.905,c)
);
},
{
closed = 1;
nodes = (
(1742,294.578,o),
(1738.629,302.717,o),
(1732.627,308.718,c),
(1726.626,314.72,o),
(1718.487,318.091,o),
(1710,318.091,c),
(1701.513,318.091,o),
(1693.374,314.72,o),
(1687.373,308.718,c),
(1681.371,302.717,o),
(1678,294.578,o),
(1678,286.091,c),
(1678,277.604,o),
(1681.371,269.465,o),
(1687.373,263.464,c),
(1693.374,257.463,o),
(1701.513,254.091,o),
(1710,254.091,c),
(1718.487,254.091,o),
(1726.626,257.463,o),
(1732.627,263.464,c),
(1738.629,269.465,o),
(1742,277.604,o),
(1742,286.091,c)
);
},
{
closed = 1;
nodes = (
(1742,197.375,o),
(1738.629,205.514,o),
(1732.627,211.515,c),
(1726.626,217.516,o),
(1718.487,220.888,o),
(1710,220.888,c),
(1701.513,220.888,o),
(1693.374,217.516,o),
(1687.373,211.515,c),
(1681.371,205.514,o),
(1678,197.375,o),
(1678,188.888,c),
(1678,180.401,o),
(1681.371,172.262,o),
(1687.373,166.261,c),
(1693.374,160.259,o),
(1701.513,156.888,o),
(1710,156.888,c),
(1718.487,156.888,o),
(1726.626,160.259,o),
(1732.627,166.261,c),
(1738.629,172.262,o),
(1742,180.401,o),
(1742,188.888,c)
);
},
{
closed = 1;
nodes = (
(1742,100.402,o),
(1738.629,108.542,o),
(1732.627,114.543,c),
(1726.626,120.544,o),
(1718.487,123.916,o),
(1710,123.916,c),
(1701.513,123.916,o),
(1693.374,120.544,o),
(1687.373,114.543,c),
(1681.371,108.542,o),
(1678,100.402,o),
(1678,91.916,c),
(1678,83.429,o),
(1681.371,75.289,o),
(1687.373,69.288,c),
(1693.374,63.287,o),
(1701.513,59.916,o),
(1710,59.916,c),
(1718.487,59.916,o),
(1726.626,63.287,o),
(1732.627,69.288,c),
(1738.629,75.289,o),
(1742,83.429,o),
(1742,91.916,c)
);
},
{
closed = 1;
nodes = (
(359.38,1528.287,o),
(356.009,1536.426,o),
(350.007,1542.427,c),
(344.006,1548.429,o),
(335.867,1551.8,o),
(327.38,1551.8,c),
(318.893,1551.8,o),
(310.754,1548.429,o),
(304.753,1542.427,c),
(298.751,1536.426,o),
(295.38,1528.287,o),
(295.38,1519.8,c),
(295.38,1511.313,o),
(298.751,1503.174,o),
(304.753,1497.173,c),
(310.754,1491.171,o),
(318.893,1487.8,o),
(327.38,1487.8,c),
(335.867,1487.8,o),
(344.006,1491.171,o),
(350.007,1497.173,c),
(356.009,1503.174,o),
(359.38,1511.313,o),
(359.38,1519.8,c)
);
},
{
closed = 1;
nodes = (
(398.07,1438.187,o),
(394.699,1446.326,o),
(388.697,1452.327,c),
(382.696,1458.329,o),
(374.557,1461.7,o),
(366.07,1461.7,c),
(357.583,1461.7,o),
(349.444,1458.329,o),
(343.443,1452.327,c),
(337.441,1446.326,o),
(334.07,1438.187,o),
(334.07,1429.7,c),
(334.07,1421.213,o),
(337.441,1413.074,o),
(343.443,1407.073,c),
(349.444,1401.071,o),
(357.583,1397.7,o),
(366.07,1397.7,c),
(374.557,1397.7,o),
(382.696,1401.071,o),
(388.697,1407.073,c),
(394.699,1413.074,o),
(398.07,1421.213,o),
(398.07,1429.7,c)
);
},
{
closed = 1;
nodes = (
(436.76,1348.087,o),
(433.389,1356.226,o),
(427.387,1362.227,c),
(421.386,1368.229,o),
(413.247,1371.6,o),
(404.76,1371.6,c),
(396.273,1371.6,o),
(388.134,1368.229,o),
(382.133,1362.227,c),
(376.131,1356.226,o),
(372.76,1348.087,o),
(372.76,1339.6,c),
(372.76,1331.113,o),
(376.131,1322.974,o),
(382.133,1316.973,c),
(388.134,1310.971,o),
(396.273,1307.6,o),
(404.76,1307.6,c),
(413.247,1307.6,o),
(421.386,1310.971,o),
(427.387,1316.973,c),
(433.389,1322.974,o),
(436.76,1331.113,o),
(436.76,1339.6,c)
);
},
{
closed = 1;
nodes = (
(475.45,1257.987,o),
(472.079,1266.126,o),
(466.077,1272.127,c),
(460.076,1278.129,o),
(451.937,1281.5,o),
(443.45,1281.5,c),
(434.963,1281.5,o),
(426.824,1278.129,o),
(420.823,1272.127,c),
(414.821,1266.126,o),
(411.45,1257.987,o),
(411.45,1249.5,c),
(411.45,1241.013,o),
(414.821,1232.874,o),
(420.823,1226.873,c),
(426.824,1220.871,o),
(434.963,1217.5,o),
(443.45,1217.5,c),
(451.937,1217.5,o),
(460.076,1220.871,o),
(466.077,1226.873,c),
(472.079,1232.874,o),
(475.45,1241.013,o),
(475.45,1249.5,c)
);
},
{
closed = 1;
nodes = (
(514.14,1167.887,o),
(510.769,1176.026,o),
(504.767,1182.027,c),
(498.766,1188.029,o),
(490.627,1191.4,o),
(482.14,1191.4,c),
(473.653,1191.4,o),
(465.514,1188.029,o),
(459.513,1182.027,c),
(453.511,1176.026,o),
(450.14,1167.887,o),
(450.14,1159.4,c),
(450.14,1150.913,o),
(453.511,1142.774,o),
(459.513,1136.773,c),
(465.514,1130.771,o),
(473.653,1127.4,o),
(482.14,1127.4,c),
(490.627,1127.4,o),
(498.766,1130.771,o),
(504.767,1136.773,c),
(510.769,1142.774,o),
(514.14,1150.913,o),
(514.14,1159.4,c)
);
},
{
closed = 1;
nodes = (
(552.83,1077.787,o),
(549.459,1085.926,o),
(543.457,1091.927,c),
(537.456,1097.929,o),
(529.317,1101.3,o),
(520.83,1101.3,c),
(512.343,1101.3,o),
(504.204,1097.929,o),
(498.203,1091.927,c),
(492.201,1085.926,o),
(488.83,1077.787,o),
(488.83,1069.3,c),
(488.83,1060.813,o),
(492.201,1052.674,o),
(498.203,1046.673,c),
(504.204,1040.671,o),
(512.343,1037.3,o),
(520.83,1037.3,c),
(529.317,1037.3,o),
(537.456,1040.671,o),
(543.457,1046.673,c),
(549.459,1052.674,o),
(552.83,1060.813,o),
(552.83,1069.3,c)
);
},
{
closed = 1;
nodes = (
(591.52,987.687,o),
(588.149,995.826,o),
(582.147,1001.827,c),
(576.146,1007.829,o),
(568.007,1011.2,o),
(559.52,1011.2,c),
(551.033,1011.2,o),
(542.894,1007.829,o),
(536.893,1001.827,c),
(530.891,995.826,o),
(527.52,987.687,o),
(527.52,979.2,c),
(527.52,970.713,o),
(530.891,962.574,o),
(536.893,956.573,c),
(542.894,950.571,o),
(551.033,947.2,o),
(559.52,947.2,c),
(568.007,947.2,o),
(576.146,950.571,o),
(582.147,956.573,c),
(588.149,962.574,o),
(591.52,970.713,o),
(591.52,979.2,c)
);
},
{
closed = 1;
nodes = (
(630.21,897.587,o),
(626.839,905.726,o),
(620.837,911.727,c),
(614.836,917.729,o),
(606.697,921.1,o),
(598.21,921.1,c),
(589.723,921.1,o),
(581.584,917.729,o),
(575.583,911.727,c),
(569.581,905.726,o),
(566.21,897.587,o),
(566.21,889.1,c),
(566.21,880.613,o),
(569.581,872.474,o),
(575.583,866.473,c),
(581.584,860.471,o),
(589.723,857.1,o),
(598.21,857.1,c),
(606.697,857.1,o),
(614.836,860.471,o),
(620.837,866.473,c),
(626.839,872.474,o),
(630.21,880.613,o),
(630.21,889.1,c)
);
},
{
closed = 1;
nodes = (
(668.9,807.487,o),
(665.529,815.626,o),
(659.527,821.627,c),
(653.526,827.629,o),
(645.387,831,o),
(636.9,831,c),
(628.413,831,o),
(620.274,827.629,o),
(614.273,821.627,c),
(608.271,815.626,o),
(604.9,807.487,o),
(604.9,799,c),
(604.9,790.513,o),
(608.271,782.374,o),
(614.273,776.373,c),
(620.274,770.371,o),
(628.413,767,o),
(636.9,767,c),
(645.387,767,o),
(653.526,770.371,o),
(659.527,776.373,c),
(665.529,782.374,o),
(668.9,790.513,o),
(668.9,799,c)
);
},
{
closed = 1;
nodes = (
(707.59,717.387,o),
(704.219,725.526,o),
(698.217,731.527,c),
(692.216,737.529,o),
(684.077,740.9,o),
(675.59,740.9,c),
(667.103,740.9,o),
(658.964,737.529,o),
(652.963,731.527,c),
(646.961,725.526,o),
(643.59,717.387,o),
(643.59,708.9,c),
(643.59,700.413,o),
(646.961,692.274,o),
(652.963,686.273,c),
(658.964,680.271,o),
(667.103,676.9,o),
(675.59,676.9,c),
(684.077,676.9,o),
(692.216,680.271,o),
(698.217,686.273,c),
(704.219,692.274,o),
(707.59,700.413,o),
(707.59,708.9,c)
);
},
{
closed = 1;
nodes = (
(746.28,627.287,o),
(742.909,635.426,o),
(736.907,641.427,c),
(730.906,647.429,o),
(722.767,650.8,o),
(714.28,650.8,c),
(705.793,650.8,o),
(697.654,647.429,o),
(691.653,641.427,c),
(685.651,635.426,o),
(682.28,627.287,o),
(682.28,618.8,c),
(682.28,610.313,o),
(685.651,602.174,o),
(691.653,596.173,c),
(697.654,590.171,o),
(705.793,586.8,o),
(714.28,586.8,c),
(722.767,586.8,o),
(730.906,590.171,o),
(736.907,596.173,c),
(742.909,602.174,o),
(746.28,610.313,o),
(746.28,618.8,c)
);
},
{
closed = 1;
nodes = (
(784.97,537.187,o),
(781.599,545.326,o),
(775.597,551.327,c),
(769.596,557.329,o),
(761.457,560.7,o),
(752.97,560.7,c),
(744.483,560.7,o),
(736.344,557.329,o),
(730.343,551.327,c),
(724.341,545.326,o),
(720.97,537.187,o),
(720.97,528.7,c),
(720.97,520.213,o),
(724.341,512.074,o),
(730.343,506.073,c),
(736.344,500.071,o),
(744.483,496.7,o),
(752.97,496.7,c),
(761.457,496.7,o),
(769.596,500.071,o),
(775.597,506.073,c),
(781.599,512.074,o),
(784.97,520.213,o),
(784.97,528.7,c)
);
},
{
closed = 1;
nodes = (
(823.66,447.087,o),
(820.289,455.226,o),
(814.287,461.227,c),
(808.286,467.229,o),
(800.147,470.6,o),
(791.66,470.6,c),
(783.173,470.6,o),
(775.034,467.229,o),
(769.033,461.227,c),
(763.031,455.226,o),
(759.66,447.087,o),
(759.66,438.6,c),
(759.66,430.113,o),
(763.031,421.974,o),
(769.033,415.973,c),
(775.034,409.971,o),
(783.173,406.6,o),
(791.66,406.6,c),
(800.147,406.6,o),
(808.286,409.971,o),
(814.287,415.973,c),
(820.289,421.974,o),
(823.66,430.113,o),
(823.66,438.6,c)
);
},
{
closed = 1;
nodes = (
(862.35,356.987,o),
(858.979,365.126,o),
(852.977,371.127,c),
(846.976,377.129,o),
(838.837,380.5,o),
(830.35,380.5,c),
(821.863,380.5,o),
(813.724,377.129,o),
(807.723,371.127,c),
(801.721,365.126,o),
(798.35,356.987,o),
(798.35,348.5,c),
(798.35,340.013,o),
(801.721,331.874,o),
(807.723,325.873,c),
(813.724,319.871,o),
(821.863,316.5,o),
(830.35,316.5,c),
(838.837,316.5,o),
(846.976,319.871,o),
(852.977,325.873,c),
(858.979,331.874,o),
(862.35,340.013,o),
(862.35,348.5,c)
);
},
{
closed = 1;
nodes = (
(901.04,266.887,o),
(897.669,275.026,o),
(891.667,281.027,c),
(885.666,287.029,o),
(877.527,290.4,o),
(869.04,290.4,c),
(860.553,290.4,o),
(852.414,287.029,o),
(846.413,281.027,c),
(840.411,275.026,o),
(837.04,266.887,o),
(837.04,258.4,c),
(837.04,249.913,o),
(840.411,241.774,o),
(846.413,235.773,c),
(852.414,229.771,o),
(860.553,226.4,o),
(869.04,226.4,c),
(877.527,226.4,o),
(885.666,229.771,o),
(891.667,235.773,c),
(897.669,241.774,o),
(901.04,249.913,o),
(901.04,258.4,c)
);
},
{
closed = 1;
nodes = (
(939.73,176.787,o),
(936.359,184.926,o),
(930.357,190.927,c),
(924.356,196.929,o),
(916.217,200.3,o),
(907.73,200.3,c),
(899.243,200.3,o),
(891.104,196.929,o),
(885.103,190.927,c),
(879.101,184.926,o),
(875.73,176.787,o),
(875.73,168.3,c),
(875.73,159.813,o),
(879.101,151.674,o),
(885.103,145.673,c),
(891.104,139.671,o),
(899.243,136.3,o),
(907.73,136.3,c),
(916.217,136.3,o),
(924.356,139.671,o),
(930.357,145.673,c),
(936.359,151.674,o),
(939.73,159.813,o),
(939.73,168.3,c)
);
},
{
closed = 1;
nodes = (
(978.42,86.687,o),
(975.049,94.826,o),
(969.047,100.827,c),
(963.046,106.829,o),
(954.907,110.2,o),
(946.42,110.2,c),
(937.933,110.2,o),
(929.794,106.829,o),
(923.793,100.827,c),
(917.791,94.826,o),
(914.42,86.687,o),
(914.42,78.2,c),
(914.42,69.713,o),
(917.791,61.574,o),
(923.793,55.573,c),
(929.794,49.571,o),
(937.933,46.2,o),
(946.42,46.2,c),
(954.907,46.2,o),
(963.046,49.571,o),
(969.047,55.573,c),
(975.049,61.574,o),
(978.42,69.713,o),
(978.42,78.2,c)
);
},
{
closed = 1;
nodes = (
(1050.69,98.799,o),
(1047.319,106.938,o),
(1041.317,112.939,c),
(1035.316,118.941,o),
(1027.177,122.312,o),
(1018.69,122.312,c),
(1010.203,122.312,o),
(1002.064,118.941,o),
(996.063,112.939,c),
(990.061,106.938,o),
(986.69,98.799,o),
(986.69,90.312,c),
(986.69,81.825,o),
(990.061,73.686,o),
(996.063,67.685,c),
(1002.064,61.683,o),
(1010.203,58.312,o),
(1018.69,58.312,c),
(1027.177,58.312,o),
(1035.316,61.683,o),
(1041.317,67.685,c),
(1047.319,73.686,o),
(1050.69,81.825,o),
(1050.69,90.312,c)
);
},
{
closed = 1;
nodes = (
(1089.38,189.111,o),
(1086.009,197.25,o),
(1080.007,203.251,c),
(1074.006,209.253,o),
(1065.867,212.624,o),
(1057.38,212.624,c),
(1048.893,212.624,o),
(1040.754,209.253,o),
(1034.753,203.251,c),
(1028.751,197.25,o),
(1025.38,189.111,o),
(1025.38,180.624,c),
(1025.38,172.137,o),
(1028.751,163.998,o),
(1034.753,157.997,c),
(1040.754,151.995,o),
(1048.893,148.624,o),
(1057.38,148.624,c),
(1065.867,148.624,o),
(1074.006,151.995,o),
(1080.007,157.997,c),
(1086.009,163.998,o),
(1089.38,172.137,o),
(1089.38,180.624,c)
);
},
{
closed = 1;
nodes = (
(1128.07,279.423,o),
(1124.699,287.562,o),
(1118.697,293.563,c),
(1112.696,299.565,o),
(1104.557,302.936,o),
(1096.07,302.936,c),
(1087.583,302.936,o),
(1079.444,299.565,o),
(1073.443,293.563,c),
(1067.441,287.562,o),
(1064.07,279.423,o),
(1064.07,270.936,c),
(1064.07,262.449,o),
(1067.441,254.31,o),
(1073.443,248.309,c),
(1079.444,242.307,o),
(1087.583,238.936,o),
(1096.07,238.936,c),
(1104.557,238.936,o),
(1112.696,242.307,o),
(1118.697,248.309,c),
(1124.699,254.31,o),
(1128.07,262.449,o),
(1128.07,270.936,c)
);
},
{
closed = 1;
nodes = (
(1166.76,369.735,o),
(1163.389,377.874,o),
(1157.387,383.875,c),
(1151.386,389.877,o),
(1143.247,393.248,o),
(1134.76,393.248,c),
(1126.273,393.248,o),
(1118.134,389.877,o),
(1112.133,383.875,c),
(1106.131,377.874,o),
(1102.76,369.735,o),
(1102.76,361.248,c),
(1102.76,352.761,o),
(1106.131,344.622,o),
(1112.133,338.621,c),
(1118.134,332.619,o),
(1126.273,329.248,o),
(1134.76,329.248,c),
(1143.247,329.248,o),
(1151.386,332.619,o),
(1157.387,338.621,c),
(1163.389,344.622,o),
(1166.76,352.761,o),
(1166.76,361.248,c)
);
},
{
closed = 1;
nodes = (
(1205.45,460.047,o),
(1202.079,468.186,o),
(1196.077,474.187,c),
(1190.076,480.189,o),
(1181.937,483.56,o),
(1173.45,483.56,c),
(1164.963,483.56,o),
(1156.824,480.189,o),
(1150.823,474.187,c),
(1144.821,468.186,o),
(1141.45,460.047,o),
(1141.45,451.56,c),
(1141.45,443.073,o),
(1144.821,434.934,o),
(1150.823,428.933,c),
(1156.824,422.931,o),
(1164.963,419.56,o),
(1173.45,419.56,c),
(1181.937,419.56,o),
(1190.076,422.931,o),
(1196.077,428.933,c),
(1202.079,434.934,o),
(1205.45,443.073,o),
(1205.45,451.56,c)
);
},
{
closed = 1;
nodes = (
(1244.14,550.359,o),
(1240.769,558.498,o),
(1234.767,564.499,c),
(1228.766,570.501,o),
(1220.627,573.872,o),
(1212.14,573.872,c),
(1203.653,573.872,o),
(1195.514,570.501,o),
(1189.513,564.499,c),
(1183.511,558.498,o),
(1180.14,550.359,o),
(1180.14,541.872,c),
(1180.14,533.385,o),
(1183.511,525.246,o),
(1189.513,519.245,c),
(1195.514,513.243,o),
(1203.653,509.872,o),
(1212.14,509.872,c),
(1220.627,509.872,o),
(1228.766,513.243,o),
(1234.767,519.245,c),
(1240.769,525.246,o),
(1244.14,533.385,o),
(1244.14,541.872,c)
);
},
{
closed = 1;
nodes = (
(1282.83,640.671,o),
(1279.459,648.81,o),
(1273.457,654.811,c),
(1267.456,660.813,o),
(1259.317,664.184,o),
(1250.83,664.184,c),
(1242.343,664.184,o),
(1234.204,660.813,o),
(1228.203,654.811,c),
(1222.201,648.81,o),
(1218.83,640.671,o),
(1218.83,632.184,c),
(1218.83,623.697,o),
(1222.201,615.558,o),
(1228.203,609.557,c),
(1234.204,603.555,o),
(1242.343,600.184,o),
(1250.83,600.184,c),
(1259.317,600.184,o),
(1267.456,603.555,o),
(1273.457,609.557,c),
(1279.459,615.558,o),
(1282.83,623.697,o),
(1282.83,632.184,c)
);
},
{
closed = 1;
nodes = (
(1321.52,730.983,o),
(1318.149,739.122,o),
(1312.147,745.123,c),
(1306.146,751.125,o),
(1298.007,754.496,o),
(1289.52,754.496,c),
(1281.033,754.496,o),
(1272.894,751.125,o),
(1266.893,745.123,c),
(1260.891,739.122,o),
(1257.52,730.983,o),
(1257.52,722.496,c),
(1257.52,714.009,o),
(1260.891,705.87,o),
(1266.893,699.869,c),
(1272.894,693.867,o),
(1281.033,690.496,o),
(1289.52,690.496,c),
(1298.007,690.496,o),
(1306.146,693.867,o),
(1312.147,699.869,c),
(1318.149,705.87,o),
(1321.52,714.009,o),
(1321.52,722.496,c)
);
},
{
closed = 1;
nodes = (
(1360.21,821.295,o),
(1356.839,829.434,o),
(1350.837,835.435,c),
(1344.836,841.437,o),
(1336.697,844.808,o),
(1328.21,844.808,c),
(1319.723,844.808,o),
(1311.584,841.437,o),
(1305.583,835.435,c),
(1299.581,829.434,o),
(1296.21,821.295,o),
(1296.21,812.808,c),
(1296.21,804.321,o),
(1299.581,796.182,o),
(1305.583,790.181,c),
(1311.584,784.179,o),
(1319.723,780.808,o),
(1328.21,780.808,c),
(1336.697,780.808,o),
(1344.836,784.179,o),
(1350.837,790.181,c),
(1356.839,796.182,o),
(1360.21,804.321,o),
(1360.21,812.808,c)
);
},
{
closed = 1;
nodes = (
(1398.9,911.607,o),
(1395.529,919.746,o),
(1389.527,925.747,c),
(1383.526,931.749,o),
(1375.387,935.12,o),
(1366.9,935.12,c),
(1358.413,935.12,o),
(1350.274,931.749,o),
(1344.273,925.747,c),
(1338.271,919.746,o),
(1334.9,911.607,o),
(1334.9,903.12,c),
(1334.9,894.633,o),
(1338.271,886.494,o),
(1344.273,880.493,c),
(1350.274,874.491,o),
(1358.413,871.12,o),
(1366.9,871.12,c),
(1375.387,871.12,o),
(1383.526,874.491,o),
(1389.527,880.493,c),
(1395.529,886.494,o),
(1398.9,894.633,o),
(1398.9,903.12,c)
);
},
{
closed = 1;
nodes = (
(1437.59,1001.919,o),
(1434.219,1010.058,o),
(1428.217,1016.059,c),
(1422.216,1022.061,o),
(1414.077,1025.432,o),
(1405.59,1025.432,c),
(1397.103,1025.432,o),
(1388.964,1022.061,o),
(1382.963,1016.059,c),
(1376.961,1010.058,o),
(1373.59,1001.919,o),
(1373.59,993.432,c),
(1373.59,984.945,o),
(1376.961,976.806,o),
(1382.963,970.805,c),
(1388.964,964.803,o),
(1397.103,961.432,o),
(1405.59,961.432,c),
(1414.077,961.432,o),
(1422.216,964.803,o),
(1428.217,970.805,c),
(1434.219,976.806,o),
(1437.59,984.945,o),
(1437.59,993.432,c)
);
},
{
closed = 1;
nodes = (
(1476.28,1092.231,o),
(1472.909,1100.37,o),
(1466.907,1106.371,c),
(1460.906,1112.373,o),
(1452.767,1115.744,o),
(1444.28,1115.744,c),
(1435.793,1115.744,o),
(1427.654,1112.373,o),
(1421.653,1106.371,c),
(1415.651,1100.37,o),
(1412.28,1092.231,o),
(1412.28,1083.744,c),
(1412.28,1075.257,o),
(1415.651,1067.118,o),
(1421.653,1061.117,c),
(1427.654,1055.115,o),
(1435.793,1051.744,o),
(1444.28,1051.744,c),
(1452.767,1051.744,o),
(1460.906,1055.115,o),
(1466.907,1061.117,c),
(1472.909,1067.118,o),
(1476.28,1075.257,o),
(1476.28,1083.744,c)
);
},
{
closed = 1;
nodes = (
(1514.97,1182.543,o),
(1511.599,1190.682,o),
(1505.597,1196.683,c),
(1499.596,1202.685,o),
(1491.457,1206.056,o),
(1482.97,1206.056,c),
(1474.483,1206.056,o),
(1466.344,1202.685,o),
(1460.343,1196.683,c),
(1454.341,1190.682,o),
(1450.97,1182.543,o),
(1450.97,1174.056,c),
(1450.97,1165.569,o),
(1454.341,1157.43,o),
(1460.343,1151.429,c),
(1466.344,1145.427,o),
(1474.483,1142.056,o),
(1482.97,1142.056,c),
(1491.457,1142.056,o),
(1499.596,1145.427,o),
(1505.597,1151.429,c),
(1511.599,1157.43,o),
(1514.97,1165.569,o),
(1514.97,1174.056,c)
);
},
{
closed = 1;
nodes = (
(1553.66,1272.855,o),
(1550.289,1280.994,o),
(1544.287,1286.995,c),
(1538.286,1292.997,o),
(1530.147,1296.368,o),
(1521.66,1296.368,c),
(1513.173,1296.368,o),
(1505.034,1292.997,o),
(1499.033,1286.995,c),
(1493.031,1280.994,o),
(1489.66,1272.855,o),
(1489.66,1264.368,c),
(1489.66,1255.881,o),
(1493.031,1247.742,o),
(1499.033,1241.741,c),
(1505.034,1235.739,o),
(1513.173,1232.368,o),
(1521.66,1232.368,c),
(1530.147,1232.368,o),
(1538.286,1235.739,o),
(1544.287,1241.741,c),
(1550.289,1247.742,o),
(1553.66,1255.881,o),
(1553.66,1264.368,c)
);
},
{
closed = 1;
nodes = (
(1592.35,1363.167,o),
(1588.979,1371.306,o),
(1582.977,1377.307,c),
(1576.976,1383.309,o),
(1568.837,1386.68,o),
(1560.35,1386.68,c),
(1551.863,1386.68,o),
(1543.724,1383.309,o),
(1537.723,1377.307,c),
(1531.721,1371.306,o),
(1528.35,1363.167,o),
(1528.35,1354.68,c),
(1528.35,1346.193,o),
(1531.721,1338.054,o),
(1537.723,1332.053,c),
(1543.724,1326.051,o),
(1551.863,1322.68,o),
(1560.35,1322.68,c),
(1568.837,1322.68,o),
(1576.976,1326.051,o),
(1582.977,1332.053,c),
(1588.979,1338.054,o),
(1592.35,1346.193,o),
(1592.35,1354.68,c)
);
},
{
closed = 1;
nodes = (
(1631.04,1453.479,o),
(1627.669,1461.618,o),
(1621.667,1467.619,c),
(1615.666,1473.621,o),
(1607.527,1476.992,o),
(1599.04,1476.992,c),
(1590.553,1476.992,o),
(1582.414,1473.621,o),
(1576.413,1467.619,c),
(1570.411,1461.618,o),
(1567.04,1453.479,o),
(1567.04,1444.992,c),
(1567.04,1436.505,o),
(1570.411,1428.366,o),
(1576.413,1422.365,c),
(1582.414,1416.363,o),
(1590.553,1412.992,o),
(1599.04,1412.992,c),
(1607.527,1412.992,o),
(1615.666,1416.363,o),
(1621.667,1422.365,c),
(1627.669,1428.366,o),
(1631.04,1436.505,o),
(1631.04,1444.992,c)
);
},
{
closed = 1;
nodes = (
(1669.73,1543.791,o),
(1666.359,1551.93,o),
(1660.357,1557.931,c),
(1654.356,1563.933,o),
(1646.217,1567.304,o),
(1637.73,1567.304,c),
(1629.243,1567.304,o),
(1621.104,1563.933,o),
(1615.103,1557.931,c),
(1609.101,1551.93,o),
(1605.73,1543.791,o),
(1605.73,1535.304,c),
(1605.73,1526.817,o),
(1609.101,1518.678,o),
(1615.103,1512.677,c),
(1621.104,1506.675,o),
(1629.243,1503.304,o),
(1637.73,1503.304,c),
(1646.217,1503.304,o),
(1654.356,1506.675,o),
(1660.357,1512.677,c),
(1666.359,1518.678,o),
(1669.73,1526.817,o),
(1669.73,1535.304,c)
);
}
);
visible = 1;
width = 1880;
}
);
unicode = 77;
}
{
glyphname = N;
layers = (
{
layerId = m01;
shapes = (
{
ref = _c.stemLA;
},
{
pos = (1060,0);
ref = _c.stemLA;
},
{
closed = 0;
nodes = (
(250,1700,l,{
co.uk.corvelsoftware.Dotter = {
locally_forced = 1;
};
}),
(1310,0,l,{
co.uk.corvelsoftware.Dotter = {
locally_forced = 1;
};
})
);
}
);
width = 1560;
},
{
layerId = "FDE4885D-BB7A-448A-91AC-7911E70BCCB6";
shapes = (
{
pos = (250,1700);
ref = _dot;
},
{
pos = (250,870);
ref = _dot;
},
{
pos = (250,0);
ref = _dot;
},
{
pos = (1310,1700);
ref = _dot;
},
{
pos = (1310,870);
ref = _dot;
},
{
pos = (1310,0);
ref = _dot;
},
{
pos = (250,1596.25);
ref = _dot;
},
{
pos = (250,1492.5);
ref = _dot;
},
{
pos = (250,1388.75);
ref = _dot;
},
{
pos = (250,1285);
ref = _dot;
},
{
pos = (250,1181.25);
ref = _dot;
},
{
pos = (250,1077.5);
ref = _dot;
},
{
pos = (250,973.75);
ref = _dot;
},
{
pos = (250,773.333);
ref = _dot;
},
{
pos = (250,676.667);
ref = _dot;
},
{
pos = (250,580);
ref = _dot;
},
{
pos = (250,483.333);
ref = _dot;
},
{
pos = (250,386.667);
ref = _dot;
},
{
pos = (250,290);
ref = _dot;
},
{
pos = (250,193.333);
ref = _dot;
},
{
pos = (250,96.667);
ref = _dot;
},
{
pos = (1310,1596.25);
ref = _dot;
},
{
pos = (1310,1492.5);
ref = _dot;
},
{
pos = (1310,1388.75);
ref = _dot;
},
{
pos = (1310,1285);
ref = _dot;
},
{
pos = (1310,1181.25);
ref = _dot;
},
{
pos = (1310,1077.5);
ref = _dot;
},
{
pos = (1310,973.75);
ref = _dot;
},
{
pos = (1310,773.333);
ref = _dot;
},
{
pos = (1310,676.667);
ref = _dot;
},
{
pos = (1310,580);
ref = _dot;
},
{
pos = (1310,483.333);
ref = _dot;
},
{
pos = (1310,386.667);
ref = _dot;
},
{
pos = (1310,290);
ref = _dot;
},
{
pos = (1310,193.333);
ref = _dot;
},
{
pos = (1310,96.667);
ref = _dot;
},
{
pos = (356,1530);
ref = _dot;
},
{
pos = (409,1445);
ref = _dot;
},
{
pos = (462,1360);
ref = _dot;
},
{
pos = (515,1275);
ref = _dot;
},
{
pos = (568,1190);
ref = _dot;
},
{
pos = (621,1105);
ref = _dot;
},
{
pos = (674,1020);
ref = _dot;
},
{
pos = (727,935);
ref = _dot;
},
{
pos = (780,850);
ref = _dot;
},
{
pos = (833,765);
ref = _dot;
},
{
pos = (886,680);
ref = _dot;
},
{
pos = (939,595);
ref = _dot;
},
{
pos = (992,510);
ref = _dot;
},
{
pos = (1045,425);
ref = _dot;
},
{
pos = (1098,340);
ref = _dot;
},
{
pos = (1151,255);
ref = _dot;
},
{
pos = (1204,170);
ref = _dot;
}
);
width = 1560;
}
);
unicode = 78;
}
{
glyphname = O;
layers = (
{
layerId = m01;
shapes = (
{
closed = 0;
nodes = (
(762,1700,l),
(437,1700,o),
(180,1420,o),
(180,870,cs,{
co.uk.corvelsoftware.Dotter = {
forced = 1;
};
}),
(180,310,o),
(435,0,o),
(760,0,cs,{
co.uk.corvelsoftware.Dotter = {
forced = 1;
};
}),
(1085,0,o),
(1340,310,o),
(1340,870,cs,{
co.uk.corvelsoftware.Dotter = {
forced = 1;
};
}),
(1340,1420,o),
(1086,1700,o),
(761,1700,cs)
);
}
);
width = 1520;
},
{
layerId = "FDE4885D-BB7A-448A-91AC-7911E70BCCB6";
shapes = (
{
pos = (762,1700);
ref = _dot;
},
{
pos = (180,870);
ref = _dot;
},
{
pos = (760,0);
ref = _dot;
},
{
pos = (1340,870);
ref = _dot;
},
{
pos = (667.658,1691.777);
ref = _dot;
},
{
pos = (575.802,1666.144);
ref = _dot;
},
{
pos = (491.361,1623.664);
ref = _dot;
},
{
pos = (416.015,1565.572);
ref = _dot;
},
{
pos = (352.283,1495.392);
ref = _dot;
},
{
pos = (299.82,1415.505);
ref = _dot;
},
{
pos = (258.516,1329.261);
ref = _dot;
},
{
pos = (227.357,1239.148);
ref = _dot;
},
{
pos = (204.926,1146.114);
ref = _dot;
},
{
pos = (190.252,1051.946);
ref = _dot;
},
{
pos = (182.218,956.736);
ref = _dot;
},
{
pos = (182.714,771.913);
ref = _dot;
},
{
pos = (191.229,674.818);
ref = _dot;
},
{
pos = (206.348,578.287);
ref = _dot;
},
{
pos = (228.823,483.678);
ref = _dot;
},
{
pos = (259.8,391.313);
ref = _dot;
},
{
pos = (300.696,302.164);
ref = _dot;
},
{
pos = (351.9,219.72);
ref = _dot;
},
{
pos = (414.722,145.676);
ref = _dot;
},
{
pos = (489.798,83.167);
ref = _dot;
},
{
pos = (575.749,36.356);
ref = _dot;
},
{
pos = (669.429,8.342);
ref = _dot;
},
{
pos = (857.069,9.612);
ref = _dot;
},
{
pos = (950.321,38.941);
ref = _dot;
},
{
pos = (1034.973,86.47);
ref = _dot;
},
{
pos = (1109.566,150.008);
ref = _dot;
},
{
pos = (1171.875,225);
ref = _dot;
},
{
pos = (1222.547,308.313);
ref = _dot;
},
{
pos = (1262.449,397.104);
ref = _dot;
},
{
pos = (1292.969,490.079);
ref = _dot;
},
{
pos = (1314.989,585.249);
ref = _dot;
},
{
pos = (1329.652,682.302);
ref = _dot;
},
{
pos = (1337.717,779.879);
ref = _dot;
},
{
pos = (1337.385,964.528);
ref = _dot;
},
{
pos = (1328.991,1059.226);
ref = _dot;
},
{
pos = (1314.016,1152.848);
ref = _dot;
},
{
pos = (1291.345,1245.294);
ref = _dot;
},
{
pos = (1260.013,1334.776);
ref = _dot;
},
{
pos = (1218.598,1420.339);
ref = _dot;
},
{
pos = (1166.079,1499.492);
ref = _dot;
},
{
pos = (1101.613,1569.555);
ref = _dot;
},
{
pos = (1026.192,1626.662);
ref = _dot;
},
{
pos = (940.797,1668.459);
ref = _dot;
},
{
pos = (848.755,1692.898);
ref = _dot;
}
);
width = 1520;
},
{
associatedMasterId = m01;
layerId = "7C3E7AE3-04CD-43D9-9A35-CF7A41871A37";
name = "Pendot Quick Preview";
shapes = (
{
closed = 1;
nodes = (
(794,1708.487,o),
(790.629,1716.626,o),
(784.627,1722.627,c),
(778.626,1728.629,o),
(770.487,1732,o),
(762,1732,c),
(753.513,1732,o),
(745.374,1728.629,o),
(739.373,1722.627,c),
(733.371,1716.626,o),
(730,1708.487,o),
(730,1700,c),
(730,1691.513,o),
(733.371,1683.374,o),
(739.373,1677.373,c),
(745.374,1671.371,o),
(753.513,1668,o),
(762,1668,c),
(770.487,1668,o),
(778.626,1671.371,o),
(784.627,1677.373,c),
(790.629,1683.374,o),
(794,1691.513,o),
(794,1700,c)
);
},
{
closed = 1;
nodes = (
(212,878.487,o),
(208.629,886.626,o),
(202.627,892.627,c),
(196.626,898.629,o),
(188.487,902,o),
(180,902,c),
(171.513,902,o),
(163.374,898.629,o),
(157.373,892.627,c),
(151.371,886.626,o),
(148,878.487,o),
(148,870,c),
(148,861.513,o),
(151.371,853.374,o),
(157.373,847.373,c),
(163.374,841.371,o),
(171.513,838,o),
(180,838,c),
(188.487,838,o),
(196.626,841.371,o),
(202.627,847.373,c),
(208.629,853.374,o),
(212,861.513,o),
(212,870,c)
);
},
{
closed = 1;
nodes = (
(792,8.487,o),
(788.629,16.626,o),
(782.627,22.627,c),
(776.626,28.629,o),
(768.487,32,o),
(760,32,c),
(751.513,32,o),
(743.374,28.629,o),
(737.373,22.627,c),
(731.371,16.626,o),
(728,8.487,o),
(728,0,c),
(728,-8.487,o),
(731.371,-16.626,o),
(737.373,-22.627,c),
(743.374,-28.629,o),
(751.513,-32,o),
(760,-32,c),
(768.487,-32,o),
(776.626,-28.629,o),
(782.627,-22.627,c),
(788.629,-16.626,o),
(792,-8.487,o),
(792,0,c)
);
},
{
closed = 1;
nodes = (
(1372,878.487,o),
(1368.629,886.626,o),
(1362.627,892.627,c),
(1356.626,898.629,o),
(1348.487,902,o),
(1340,902,c),
(1331.513,902,o),
(1323.374,898.629,o),
(1317.373,892.627,c),
(1311.371,886.626,o),
(1308,878.487,o),
(1308,870,c),
(1308,861.513,o),
(1311.371,853.374,o),
(1317.373,847.373,c),
(1323.374,841.371,o),
(1331.513,838,o),
(1340,838,c),
(1348.487,838,o),
(1356.626,841.371,o),
(1362.627,847.373,c),
(1368.629,853.374,o),
(1372,861.513,o),
(1372,870,c)
);
},
{
closed = 1;
nodes = (
(699.658,1700.264,o),
(696.286,1708.403,o),
(690.285,1714.404,c),
(684.284,1720.405,o),
(676.145,1723.777,o),
(667.658,1723.777,c),
(659.171,1723.777,o),
(651.032,1720.405,o),
(645.031,1714.404,c),
(639.029,1708.403,o),
(635.658,1700.264,o),
(635.658,1691.777,c),
(635.658,1683.29,o),
(639.029,1675.151,o),
(645.031,1669.15,c),
(651.032,1663.148,o),
(659.171,1659.777,o),
(667.658,1659.777,c),
(676.145,1659.777,o),
(684.284,1663.148,o),
(690.285,1669.15,c),
(696.286,1675.151,o),
(699.658,1683.29,o),
(699.658,1691.777,c)
);
},
{
closed = 1;
nodes = (
(607.802,1674.631,o),
(604.43,1682.771,o),
(598.429,1688.772,c),
(592.428,1694.773,o),
(584.289,1698.144,o),
(575.802,1698.144,c),
(567.315,1698.144,o),
(559.175,1694.773,o),
(553.174,1688.772,c),
(547.173,1682.771,o),
(543.802,1674.631,o),
(543.802,1666.144,c),
(543.802,1657.657,o),
(547.173,1649.518,o),
(553.174,1643.517,c),
(559.175,1637.516,o),
(567.315,1634.144,o),
(575.802,1634.144,c),
(584.289,1634.144,o),
(592.428,1637.516,o),
(598.429,1643.517,c),
(604.43,1649.518,o),
(607.802,1657.657,o),
(607.802,1666.144,c)
);
},
{
closed = 1;
nodes = (
(523.361,1632.151,o),
(519.99,1640.29,o),
(513.989,1646.291,c),
(507.988,1652.293,o),
(499.848,1655.664,o),
(491.361,1655.664,c),
(482.874,1655.664,o),
(474.735,1652.293,o),
(468.734,1646.291,c),
(462.733,1640.29,o),
(459.361,1632.151,o),
(459.361,1623.664,c),
(459.361,1615.177,o),
(462.733,1607.038,o),
(468.734,1601.037,c),
(474.735,1595.036,o),
(482.874,1591.664,o),
(491.361,1591.664,c),
(499.848,1591.664,o),
(507.988,1595.036,o),
(513.989,1601.037,c),
(519.99,1607.038,o),
(523.361,1615.177,o),
(523.361,1623.664,c)
);
},
{
closed = 1;
nodes = (
(448.015,1574.059,o),
(444.644,1582.198,o),
(438.643,1588.199,c),
(432.642,1594.201,o),
(424.502,1597.572,o),
(416.015,1597.572,c),
(407.528,1597.572,o),
(399.389,1594.201,o),
(393.388,1588.199,c),
(387.387,1582.198,o),
(384.015,1574.059,o),
(384.015,1565.572,c),
(384.015,1557.085,o),
(387.387,1548.946,o),
(393.388,1542.945,c),
(399.389,1536.943,o),
(407.528,1533.572,o),
(416.015,1533.572,c),
(424.502,1533.572,o),
(432.642,1536.943,o),
(438.643,1542.945,c),
(444.644,1548.946,o),
(448.015,1557.085,o),
(448.015,1565.572,c)
);
},
{
closed = 1;
nodes = (
(384.283,1503.879,o),
(380.912,1512.018,o),
(374.911,1518.019,c),
(368.91,1524.02,o),
(360.77,1527.392,o),
(352.283,1527.392,c),
(343.797,1527.392,o),
(335.657,1524.02,o),
(329.656,1518.019,c),
(323.655,1512.018,o),
(320.283,1503.879,o),
(320.283,1495.392,c),
(320.283,1486.905,o),
(323.655,1478.766,o),
(329.656,1472.765,c),
(335.657,1466.763,o),
(343.797,1463.392,o),
(352.283,1463.392,c),
(360.77,1463.392,o),
(368.91,1466.763,o),
(374.911,1472.765,c),
(380.912,1478.766,o),
(384.283,1486.905,o),
(384.283,1495.392,c)
);
},
{
closed = 1;
nodes = (
(331.82,1423.992,o),
(328.448,1432.131,o),
(322.447,1438.132,c),
(316.446,1444.133,o),
(308.307,1447.505,o),
(299.82,1447.505,c),
(291.333,1447.505,o),
(283.194,1444.133,o),
(277.193,1438.132,c),
(271.191,1432.131,o),
(267.82,1423.992,o),
(267.82,1415.505,c),
(267.82,1407.018,o),
(271.191,1398.878,o),
(277.193,1392.878,c),
(283.194,1386.876,o),
(291.333,1383.505,o),
(299.82,1383.505,c),
(308.307,1383.505,o),
(316.446,1386.876,o),
(322.447,1392.878,c),
(328.448,1398.878,o),
(331.82,1407.018,o),
(331.82,1415.505,c)
);
},
{
closed = 1;
nodes = (
(290.516,1337.748,o),
(287.145,1345.887,o),
(281.144,1351.888,c),
(275.143,1357.889,o),
(267.003,1361.261,o),
(258.516,1361.261,c),
(250.029,1361.261,o),
(241.89,1357.889,o),
(235.889,1351.888,c),
(229.888,1345.887,o),
(226.516,1337.748,o),
(226.516,1329.261,c),
(226.516,1320.774,o),
(229.888,1312.634,o),
(235.889,1306.633,c),
(241.89,1300.632,o),
(250.029,1297.261,o),
(258.516,1297.261,c),
(267.003,1297.261,o),
(275.143,1300.632,o),
(281.144,1306.633,c),
(287.145,1312.634,o),
(290.516,1320.774,o),
(290.516,1329.261,c)
);
},
{
closed = 1;
nodes = (
(259.357,1247.635,o),
(255.986,1255.774,o),
(249.985,1261.775,c),
(243.984,1267.777,o),
(235.844,1271.148,o),
(227.357,1271.148,c),
(218.87,1271.148,o),
(210.731,1267.777,o),
(204.73,1261.775,c),
(198.729,1255.774,o),
(195.357,1247.635,o),
(195.357,1239.148,c),
(195.357,1230.661,o),
(198.729,1222.522,o),
(204.73,1216.521,c),
(210.731,1210.519,o),
(218.87,1207.148,o),
(227.357,1207.148,c),
(235.844,1207.148,o),
(243.984,1210.519,o),
(249.985,1216.521,c),
(255.986,1222.522,o),
(259.357,1230.661,o),
(259.357,1239.148,c)
);
},
{
closed = 1;
nodes = (
(236.926,1154.601,o),
(233.554,1162.741,o),
(227.553,1168.742,c),
(221.552,1174.743,o),
(213.413,1178.114,o),
(204.926,1178.114,c),
(196.439,1178.114,o),
(188.299,1174.743,o),
(182.298,1168.742,c),
(176.297,1162.741,o),
(172.926,1154.601,o),
(172.926,1146.114,c),
(172.926,1137.627,o),
(176.297,1129.488,o),
(182.298,1123.487,c),
(188.299,1117.486,o),
(196.439,1114.114,o),
(204.926,1114.114,c),
(213.413,1114.114,o),
(221.552,1117.486,o),
(227.553,1123.487,c),
(233.554,1129.488,o),
(236.926,1137.627,o),
(236.926,1146.114,c)
);
},
{
closed = 1;
nodes = (
(222.252,1060.433,o),
(218.88,1068.572,o),
(212.879,1074.573,c),
(206.878,1080.574,o),
(198.738,1083.946,o),
(190.252,1083.946,c),
(181.765,1083.946,o),
(173.625,1080.574,o),
(167.624,1074.573,c),
(161.623,1068.572,o),
(158.252,1060.433,o),
(158.252,1051.946,c),
(158.252,1043.459,o),
(161.623,1035.32,o),
(167.624,1029.319,c),
(173.625,1023.317,o),
(181.765,1019.946,o),
(190.252,1019.946,c),
(198.738,1019.946,o),
(206.878,1023.317,o),
(212.879,1029.319,c),
(218.88,1035.32,o),
(222.252,1043.459,o),
(222.252,1051.946,c)
);
},
{
closed = 1;
nodes = (
(214.218,965.223,o),
(210.847,973.363,o),
(204.846,979.364,c),
(198.845,985.365,o),
(190.705,988.736,o),
(182.218,988.736,c),
(173.732,988.736,o),
(165.592,985.365,o),
(159.591,979.364,c),
(153.59,973.363,o),
(150.218,965.223,o),
(150.218,956.736,c),
(150.218,948.25,o),
(153.59,940.11,o),
(159.591,934.109,c),
(165.592,928.108,o),
(173.732,924.736,o),
(182.218,924.736,c),
(190.705,924.736,o),
(198.845,928.108,o),
(204.846,934.109,c),
(210.847,940.11,o),
(214.218,948.25,o),
(214.218,956.736,c)
);
},
{
closed = 1;
nodes = (
(214.714,780.4,o),
(211.343,788.539,o),
(205.341,794.54,c),
(199.34,800.542,o),
(191.201,803.913,o),
(182.714,803.913,c),
(174.227,803.913,o),
(166.088,800.542,o),
(160.087,794.54,c),
(154.085,788.539,o),
(150.714,780.4,o),
(150.714,771.913,c),
(150.714,763.426,o),
(154.085,755.287,o),
(160.087,749.286,c),
(166.088,743.284,o),
(174.227,739.913,o),
(182.714,739.913,c),
(191.201,739.913,o),
(199.34,743.284,o),
(205.341,749.286,c),
(211.343,755.287,o),
(214.714,763.426,o),
(214.714,771.913,c)
);
},
{
closed = 1;
nodes = (
(223.229,683.305,o),
(219.858,691.445,o),
(213.857,697.446,c),
(207.856,703.447,o),
(199.716,706.818,o),
(191.229,706.818,c),
(182.743,706.818,o),
(174.603,703.447,o),
(168.602,697.446,c),
(162.601,691.445,o),
(159.229,683.305,o),
(159.229,674.818,c),
(159.229,666.331,o),
(162.601,658.192,o),
(168.602,652.191,c),
(174.603,646.19,o),
(182.743,642.818,o),
(191.229,642.818,c),
(199.716,642.818,o),
(207.856,646.19,o),
(213.857,652.191,c),
(219.858,658.192,o),
(223.229,666.331,o),
(223.229,674.818,c)
);
},
{
closed = 1;
nodes = (
(238.348,586.773,o),
(234.976,594.913,o),
(228.975,600.914,c),
(222.974,606.915,o),
(214.834,610.287,o),
(206.348,610.287,c),
(197.861,610.287,o),
(189.721,606.915,o),
(183.72,600.914,c),
(177.719,594.913,o),
(174.348,586.773,o),
(174.348,578.287,c),
(174.348,569.8,o),
(177.719,561.66,o),
(183.72,555.659,c),
(189.721,549.658,o),
(197.861,546.287,o),
(206.348,546.287,c),
(214.834,546.287,o),
(222.974,549.658,o),
(228.975,555.659,c),
(234.976,561.66,o),
(238.348,569.8,o),
(238.348,578.287,c)
);
},
{
closed = 1;
nodes = (
(260.823,492.164,o),
(257.452,500.304,o),
(251.451,506.305,c),
(245.45,512.306,o),
(237.31,515.678,o),
(228.823,515.678,c),
(220.336,515.678,o),
(212.197,512.306,o),
(206.196,506.305,c),
(200.195,500.304,o),
(196.823,492.164,o),
(196.823,483.678,c),
(196.823,475.191,o),
(200.195,467.051,o),
(206.196,461.05,c),
(212.197,455.049,o),
(220.336,451.678,o),
(228.823,451.678,c),
(237.31,451.678,o),
(245.45,455.049,o),
(251.451,461.05,c),
(257.452,467.051,o),
(260.823,475.191,o),
(260.823,483.678,c)
);
},
{
closed = 1;
nodes = (
(291.8,399.8,o),
(288.428,407.939,o),
(282.427,413.94,c),
(276.426,419.942,o),
(268.287,423.313,o),
(259.8,423.313,c),
(251.313,423.313,o),
(243.174,419.942,o),
(237.173,413.94,c),
(231.171,407.939,o),
(227.8,399.8,o),
(227.8,391.313,c),
(227.8,382.826,o),
(231.171,374.687,o),
(237.173,368.686,c),
(243.174,362.685,o),
(251.313,359.313,o),
(259.8,359.313,c),
(268.287,359.313,o),
(276.426,362.685,o),
(282.427,368.686,c),
(288.428,374.687,o),
(291.8,382.826,o),
(291.8,391.313,c)
);
},
{
closed = 1;
nodes = (
(332.696,310.651,o),
(329.324,318.791,o),
(323.323,324.792,c),
(317.322,330.793,o),
(309.182,334.164,o),
(300.696,334.164,c),
(292.209,334.164,o),
(284.069,330.793,o),
(278.068,324.792,c),
(272.067,318.791,o),
(268.696,310.651,o),
(268.696,302.164,c),
(268.696,293.677,o),
(272.067,285.538,o),
(278.068,279.537,c),
(284.069,273.536,o),
(292.209,270.164,o),
(300.696,270.164,c),
(309.182,270.164,o),
(317.322,273.536,o),
(323.323,279.537,c),
(329.324,285.538,o),
(332.696,293.677,o),
(332.696,302.164,c)
);
},
{
closed = 1;
nodes = (
(383.9,228.207,o),
(380.529,236.346,o),
(374.527,242.347,c),
(368.526,248.349,o),
(360.387,251.72,o),
(351.9,251.72,c),
(343.413,251.72,o),
(335.274,248.349,o),
(329.273,242.347,c),
(323.271,236.346,o),
(319.9,228.207,o),
(319.9,219.72,c),
(319.9,211.233,o),
(323.271,203.094,o),
(329.273,197.093,c),
(335.274,191.092,o),
(343.413,187.72,o),
(351.9,187.72,c),
(360.387,187.72,o),
(368.526,191.092,o),
(374.527,197.093,c),
(380.529,203.094,o),
(383.9,211.233,o),
(383.9,219.72,c)
);
},
{
closed = 1;
nodes = (
(446.722,154.163,o),
(443.351,162.302,o),
(437.349,168.303,c),
(431.348,174.305,o),
(423.209,177.676,o),
(414.722,177.676,c),
(406.235,177.676,o),
(398.096,174.305,o),
(392.095,168.303,c),
(386.094,162.302,o),
(382.722,154.163,o),
(382.722,145.676,c),
(382.722,137.189,o),
(386.094,129.05,o),
(392.095,123.049,c),
(398.096,117.047,o),
(406.235,113.676,o),
(414.722,113.676,c),
(423.209,113.676,o),
(431.348,117.047,o),
(437.349,123.049,c),
(443.351,129.05,o),
(446.722,137.189,o),
(446.722,145.676,c)
);
},
{
closed = 1;
nodes = (
(521.798,91.654,o),
(518.427,99.793,o),
(512.426,105.794,c),
(506.425,111.796,o),
(498.285,115.167,o),
(489.798,115.167,c),
(481.311,115.167,o),
(473.172,111.796,o),
(467.171,105.794,c),
(461.17,99.793,o),
(457.798,91.654,o),
(457.798,83.167,c),
(457.798,74.68,o),
(461.17,66.541,o),
(467.171,60.54,c),
(473.172,54.539,o),
(481.311,51.167,o),
(489.798,51.167,c),
(498.285,51.167,o),
(506.425,54.539,o),
(512.426,60.54,c),
(518.427,66.541,o),
(521.798,74.68,o),
(521.798,83.167,c)
);
},
{
closed = 1;
nodes = (
(607.749,44.843,o),
(604.378,52.982,o),
(598.376,58.983,c),
(592.375,64.985,o),
(584.236,68.356,o),
(575.749,68.356,c),
(567.262,68.356,o),
(559.123,64.985,o),
(553.122,58.983,c),
(547.121,52.982,o),
(543.749,44.843,o),
(543.749,36.356,c),
(543.749,27.869,o),
(547.121,19.73,o),
(553.122,13.729,c),
(559.123,7.728,o),
(567.262,4.356,o),
(575.749,4.356,c),
(584.236,4.356,o),
(592.375,7.728,o),
(598.376,13.729,c),
(604.378,19.73,o),
(607.749,27.869,o),
(607.749,36.356,c)
);
},
{
closed = 1;
nodes = (
(701.429,16.829,o),
(698.057,24.968,o),
(692.056,30.969,c),
(686.055,36.97,o),
(677.916,40.342,o),
(669.429,40.342,c),
(660.942,40.342,o),
(652.803,36.97,o),
(646.802,30.969,c),
(640.8,24.968,o),
(637.429,16.829,o),
(637.429,8.342,c),
(637.429,-0.145,o),
(640.8,-8.284,o),
(646.802,-14.285,c),
(652.803,-20.287,o),
(660.942,-23.658,o),
(669.429,-23.658,c),
(677.916,-23.658,o),
(686.055,-20.287,o),
(692.056,-14.285,c),
(698.057,-8.284,o),
(701.429,-0.145,o),
(701.429,8.342,c)
);
},
{
closed = 1;
nodes = (
(889.069,18.099,o),
(885.697,26.238,o),
(879.696,32.239,c),
(873.695,38.241,o),
(865.556,41.612,o),
(857.069,41.612,c),
(848.582,41.612,o),
(840.443,38.241,o),
(834.442,32.239,c),
(828.44,26.238,o),
(825.069,18.099,o),
(825.069,9.612,c),
(825.069,1.125,o),
(828.44,-7.014,o),
(834.442,-13.015,c),
(840.443,-19.017,o),
(848.582,-22.388,o),
(857.069,-22.388,c),
(865.556,-22.388,o),
(873.695,-19.017,o),
(879.696,-13.015,c),
(885.697,-7.014,o),
(889.069,1.125,o),
(889.069,9.612,c)
);
},
{
closed = 1;
nodes = (
(982.321,47.428,o),
(978.95,55.567,o),
(972.948,61.568,c),
(966.947,67.57,o),
(958.808,70.941,o),
(950.321,70.941,c),
(941.834,70.941,o),
(933.695,67.57,o),
(927.694,61.568,c),
(921.693,55.567,o),
(918.321,47.428,o),
(918.321,38.941,c),
(918.321,30.454,o),
(921.693,22.315,o),
(927.694,16.314,c),
(933.695,10.312,o),
(941.834,6.941,o),
(950.321,6.941,c),
(958.808,6.941,o),
(966.947,10.312,o),
(972.948,16.314,c),
(978.95,22.315,o),
(982.321,30.454,o),
(982.321,38.941,c)
);
},
{
closed = 1;
nodes = (
(1066.973,94.957,o),
(1063.602,103.097,o),
(1057.6,109.098,c),
(1051.599,115.099,o),
(1043.46,118.47,o),
(1034.973,118.47,c),
(1026.486,118.47,o),
(1018.347,115.099,o),
(1012.346,109.098,c),
(1006.345,103.097,o),
(1002.973,94.957,o),
(1002.973,86.47,c),
(1002.973,77.984,o),
(1006.345,69.844,o),
(1012.346,63.843,c),
(1018.347,57.842,o),
(1026.486,54.47,o),
(1034.973,54.47,c),
(1043.46,54.47,o),
(1051.599,57.842,o),
(1057.6,63.843,c),
(1063.602,69.844,o),
(1066.973,77.984,o),
(1066.973,86.47,c)
);
},
{
closed = 1;
nodes = (
(1141.566,158.495,o),
(1138.195,166.635,o),
(1132.193,172.636,c),
(1126.192,178.637,o),
(1118.053,182.008,o),
(1109.566,182.008,c),
(1101.079,182.008,o),
(1092.94,178.637,o),
(1086.939,172.636,c),
(1080.938,166.635,o),
(1077.566,158.495,o),
(1077.566,150.008,c),
(1077.566,141.522,o),
(1080.938,133.382,o),
(1086.939,127.381,c),
(1092.94,121.38,o),
(1101.079,118.008,o),
(1109.566,118.008,c),
(1118.053,118.008,o),
(1126.192,121.38,o),
(1132.193,127.381,c),
(1138.195,133.382,o),
(1141.566,141.522,o),
(1141.566,150.008,c)
);
},
{
closed = 1;
nodes = (
(1203.875,233.487,o),
(1200.504,241.626,o),
(1194.502,247.627,c),
(1188.501,253.629,o),
(1180.362,257,o),
(1171.875,257,c),
(1163.388,257,o),
(1155.249,253.629,o),
(1149.248,247.627,c),
(1143.246,241.626,o),
(1139.875,233.487,o),
(1139.875,225,c),
(1139.875,216.513,o),
(1143.246,208.374,o),
(1149.248,202.373,c),
(1155.249,196.371,o),
(1163.388,193,o),
(1171.875,193,c),
(1180.362,193,o),
(1188.501,196.371,o),
(1194.502,202.373,c),
(1200.504,208.374,o),
(1203.875,216.513,o),
(1203.875,225,c)
);
},
{
closed = 1;
nodes = (
(1254.547,316.8,o),
(1251.176,324.94,o),
(1245.174,330.941,c),
(1239.173,336.942,o),
(1231.034,340.313,o),
(1222.547,340.313,c),
(1214.06,340.313,o),
(1205.921,336.942,o),
(1199.92,330.941,c),
(1193.918,324.94,o),
(1190.547,316.8,o),
(1190.547,308.313,c),
(1190.547,299.827,o),
(1193.918,291.687,o),
(1199.92,285.686,c),
(1205.921,279.685,o),
(1214.06,276.313,o),
(1222.547,276.313,c),
(1231.034,276.313,o),
(1239.173,279.685,o),
(1245.174,285.686,c),
(1251.176,291.687,o),
(1254.547,299.827,o),
(1254.547,308.313,c)
);
},
{
closed = 1;
nodes = (
(1294.449,405.591,o),
(1291.077,413.73,o),
(1285.076,419.731,c),
(1279.075,425.732,o),
(1270.936,429.104,o),
(1262.449,429.104,c),
(1253.962,429.104,o),
(1245.822,425.732,o),
(1239.821,419.731,c),
(1233.82,413.73,o),
(1230.449,405.591,o),
(1230.449,397.104,c),
(1230.449,388.617,o),
(1233.82,380.477,o),
(1239.821,374.476,c),
(1245.822,368.475,o),
(1253.962,365.104,o),
(1262.449,365.104,c),
(1270.936,365.104,o),
(1279.075,368.475,o),
(1285.076,374.476,c),
(1291.077,380.477,o),
(1294.449,388.617,o),
(1294.449,397.104,c)
);
},
{
closed = 1;
nodes = (
(1324.969,498.566,o),
(1321.597,506.705,o),
(1315.596,512.706,c),
(1309.595,518.707,o),
(1301.456,522.079,o),
(1292.969,522.079,c),
(1284.482,522.079,o),
(1276.343,518.707,o),
(1270.342,512.706,c),
(1264.34,506.705,o),
(1260.969,498.566,o),
(1260.969,490.079,c),
(1260.969,481.592,o),
(1264.34,473.452,o),
(1270.342,467.451,c),
(1276.343,461.45,o),
(1284.482,458.079,o),
(1292.969,458.079,c),
(1301.456,458.079,o),
(1309.595,461.45,o),
(1315.596,467.451,c),
(1321.597,473.452,o),
(1324.969,481.592,o),
(1324.969,490.079,c)
);
},
{
closed = 1;
nodes = (
(1346.989,593.736,o),
(1343.618,601.875,o),
(1337.616,607.876,c),
(1331.615,613.877,o),
(1323.476,617.249,o),
(1314.989,617.249,c),
(1306.502,617.249,o),
(1298.363,613.877,o),
(1292.362,607.876,c),
(1286.361,601.875,o),
(1282.989,593.736,o),
(1282.989,585.249,c),
(1282.989,576.762,o),
(1286.361,568.622,o),
(1292.362,562.621,c),
(1298.363,556.62,o),
(1306.502,553.249,o),
(1314.989,553.249,c),
(1323.476,553.249,o),
(1331.615,556.62,o),
(1337.616,562.621,c),
(1343.618,568.622,o),
(1346.989,576.762,o),
(1346.989,585.249,c)
);
},
{
closed = 1;
nodes = (
(1361.652,690.788,o),
(1358.281,698.928,o),
(1352.279,704.929,c),
(1346.278,710.93,o),
(1338.139,714.302,o),
(1329.652,714.302,c),
(1321.165,714.302,o),
(1313.026,710.93,o),
(1307.025,704.929,c),
(1301.024,698.928,o),
(1297.652,690.788,o),
(1297.652,682.302,c),
(1297.652,673.815,o),
(1301.024,665.675,o),
(1307.025,659.674,c),
(1313.026,653.673,o),
(1321.165,650.302,o),
(1329.652,650.302,c),
(1338.139,650.302,o),
(1346.278,653.673,o),
(1352.279,659.674,c),
(1358.281,665.675,o),
(1361.652,673.815,o),
(1361.652,682.302,c)
);
},
{
closed = 1;
nodes = (
(1369.717,788.366,o),
(1366.345,796.505,o),
(1360.344,802.506,c),
(1354.343,808.507,o),
(1346.204,811.879,o),
(1337.717,811.879,c),
(1329.23,811.879,o),
(1321.09,808.507,o),
(1315.089,802.506,c),
(1309.088,796.505,o),
(1305.717,788.366,o),
(1305.717,779.879,c),
(1305.717,771.392,o),
(1309.088,763.252,o),
(1315.089,757.252,c),
(1321.09,751.25,o),
(1329.23,747.879,o),
(1337.717,747.879,c),
(1346.204,747.879,o),
(1354.343,751.25,o),
(1360.344,757.252,c),
(1366.345,763.252,o),
(1369.717,771.392,o),
(1369.717,779.879,c)
);
},
{
closed = 1;
nodes = (
(1369.385,973.015,o),
(1366.014,981.155,o),
(1360.012,987.156,c),
(1354.011,993.157,o),
(1345.872,996.528,o),
(1337.385,996.528,c),
(1328.898,996.528,o),
(1320.759,993.157,o),
(1314.758,987.156,c),
(1308.756,981.155,o),
(1305.385,973.015,o),
(1305.385,964.528,c),
(1305.385,956.041,o),
(1308.756,947.902,o),
(1314.758,941.901,c),
(1320.759,935.9,o),
(1328.898,932.528,o),
(1337.385,932.528,c),
(1345.872,932.528,o),
(1354.011,935.9,o),
(1360.012,941.901,c),
(1366.014,947.902,o),
(1369.385,956.041,o),
(1369.385,964.528,c)
);
},
{
closed = 1;
nodes = (
(1360.991,1067.713,o),
(1357.619,1075.852,o),
(1351.618,1081.853,c),
(1345.617,1087.854,o),
(1337.478,1091.226,o),
(1328.991,1091.226,c),
(1320.504,1091.226,o),
(1312.364,1087.854,o),
(1306.363,1081.853,c),
(1300.362,1075.852,o),
(1296.991,1067.713,o),
(1296.991,1059.226,c),
(1296.991,1050.739,o),
(1300.362,1042.6,o),
(1306.363,1036.599,c),
(1312.364,1030.597,o),
(1320.504,1027.226,o),
(1328.991,1027.226,c),
(1337.478,1027.226,o),
(1345.617,1030.597,o),
(1351.618,1036.599,c),
(1357.619,1042.6,o),
(1360.991,1050.739,o),
(1360.991,1059.226,c)
);
},
{
closed = 1;
nodes = (
(1346.016,1161.335,o),
(1342.645,1169.475,o),
(1336.643,1175.476,c),
(1330.642,1181.477,o),
(1322.503,1184.848,o),
(1314.016,1184.848,c),
(1305.529,1184.848,o),
(1297.39,1181.477,o),
(1291.389,1175.476,c),
(1285.388,1169.475,o),
(1282.016,1161.335,o),
(1282.016,1152.848,c),
(1282.016,1144.362,o),
(1285.388,1136.222,o),
(1291.389,1130.221,c),
(1297.39,1124.22,o),
(1305.529,1120.848,o),
(1314.016,1120.848,c),
(1322.503,1120.848,o),
(1330.642,1124.22,o),
(1336.643,1130.221,c),
(1342.645,1136.222,o),
(1346.016,1144.362,o),
(1346.016,1152.848,c)
);
},
{
closed = 1;
nodes = (
(1323.345,1253.781,o),
(1319.974,1261.92,o),
(1313.973,1267.921,c),
(1307.972,1273.923,o),
(1299.832,1277.294,o),
(1291.345,1277.294,c),
(1282.859,1277.294,o),
(1274.719,1273.923,o),
(1268.718,1267.921,c),
(1262.717,1261.92,o),
(1259.345,1253.781,o),
(1259.345,1245.294,c),
(1259.345,1236.807,o),
(1262.717,1228.668,o),
(1268.718,1222.667,c),
(1274.719,1216.666,o),
(1282.859,1213.294,o),
(1291.345,1213.294,c),
(1299.832,1213.294,o),
(1307.972,1216.666,o),
(1313.973,1222.667,c),
(1319.974,1228.668,o),
(1323.345,1236.807,o),
(1323.345,1245.294,c)
);
},
{
closed = 1;
nodes = (
(1292.013,1343.263,o),
(1288.641,1351.402,o),
(1282.64,1357.403,c),
(1276.639,1363.405,o),
(1268.499,1366.776,o),
(1260.013,1366.776,c),
(1251.526,1366.776,o),
(1243.386,1363.405,o),
(1237.385,1357.403,c),
(1231.384,1351.402,o),
(1228.013,1343.263,o),
(1228.013,1334.776,c),
(1228.013,1326.289,o),
(1231.384,1318.15,o),
(1237.385,1312.149,c),
(1243.386,1306.148,o),
(1251.526,1302.776,o),
(1260.013,1302.776,c),
(1268.499,1302.776,o),
(1276.639,1306.148,o),
(1282.64,1312.149,c),
(1288.641,1318.15,o),
(1292.013,1326.289,o),
(1292.013,1334.776,c)
);
},
{
closed = 1;
nodes = (
(1250.598,1428.826,o),
(1247.226,1436.965,o),
(1241.225,1442.966,c),
(1235.224,1448.967,o),
(1227.084,1452.339,o),
(1218.598,1452.339,c),
(1210.111,1452.339,o),
(1201.971,1448.967,o),
(1195.97,1442.966,c),
(1189.969,1436.965,o),
(1186.598,1428.826,o),
(1186.598,1420.339,c),
(1186.598,1411.852,o),
(1189.969,1403.712,o),
(1195.97,1397.711,c),
(1201.971,1391.71,o),
(1210.111,1388.339,o),
(1218.598,1388.339,c),
(1227.084,1388.339,o),
(1235.224,1391.71,o),
(1241.225,1397.711,c),
(1247.226,1403.712,o),
(1250.598,1411.852,o),
(1250.598,1420.339,c)
);
},
{
closed = 1;
nodes = (
(1198.079,1507.979,o),
(1194.708,1516.119,o),
(1188.706,1522.12,c),
(1182.705,1528.121,o),
(1174.566,1531.492,o),
(1166.079,1531.492,c),
(1157.592,1531.492,o),
(1149.453,1528.121,o),
(1143.452,1522.12,c),
(1137.45,1516.119,o),
(1134.079,1507.979,o),
(1134.079,1499.492,c),
(1134.079,1491.006,o),
(1137.45,1482.866,o),
(1143.452,1476.865,c),
(1149.453,1470.864,o),
(1157.592,1467.492,o),
(1166.079,1467.492,c),
(1174.566,1467.492,o),
(1182.705,1470.864,o),
(1188.706,1476.865,c),
(1194.708,1482.866,o),
(1198.079,1491.006,o),
(1198.079,1499.492,c)
);
},
{
closed = 1;
nodes = (
(1133.613,1578.042,o),
(1130.242,1586.182,o),
(1124.241,1592.182,c),
(1118.24,1598.184,o),
(1110.1,1601.555,o),
(1101.613,1601.555,c),
(1093.126,1601.555,o),
(1084.987,1598.184,o),
(1078.986,1592.182,c),
(1072.985,1586.182,o),
(1069.613,1578.042,o),
(1069.613,1569.555,c),
(1069.613,1561.068,o),
(1072.985,1552.929,o),
(1078.986,1546.928,c),
(1084.987,1540.927,o),
(1093.126,1537.555,o),
(1101.613,1537.555,c),
(1110.1,1537.555,o),
(1118.24,1540.927,o),
(1124.241,1546.928,c),
(1130.242,1552.929,o),
(1133.613,1561.068,o),
(1133.613,1569.555,c)
);
},
{
closed = 1;
nodes = (
(1058.192,1635.149,o),
(1054.82,1643.288,o),
(1048.819,1649.289,c),
(1042.818,1655.29,o),
(1034.679,1658.662,o),
(1026.192,1658.662,c),
(1017.705,1658.662,o),
(1009.566,1655.29,o),
(1003.565,1649.289,c),
(997.563,1643.288,o),
(994.192,1635.149,o),
(994.192,1626.662,c),
(994.192,1618.175,o),
(997.563,1610.036,o),
(1003.565,1604.035,c),
(1009.566,1598.033,o),
(1017.705,1594.662,o),
(1026.192,1594.662,c),
(1034.679,1594.662,o),
(1042.818,1598.033,o),
(1048.819,1604.035,c),
(1054.82,1610.036,o),
(1058.192,1618.175,o),
(1058.192,1626.662,c)
);
},
{
closed = 1;
nodes = (
(972.797,1676.946,o),
(969.426,1685.085,o),
(963.425,1691.086,c),
(957.424,1697.087,o),
(949.284,1700.459,o),
(940.797,1700.459,c),
(932.31,1700.459,o),
(924.171,1697.087,o),
(918.17,1691.086,c),
(912.169,1685.085,o),
(908.797,1676.946,o),
(908.797,1668.459,c),
(908.797,1659.972,o),
(912.169,1651.833,o),
(918.17,1645.832,c),
(924.171,1639.83,o),
(932.31,1636.459,o),
(940.797,1636.459,c),
(949.284,1636.459,o),
(957.424,1639.83,o),
(963.425,1645.832,c),
(969.426,1651.833,o),
(972.797,1659.972,o),
(972.797,1668.459,c)
);
},
{
closed = 1;
nodes = (
(880.755,1701.385,o),
(877.383,1709.524,o),
(871.382,1715.525,c),
(865.381,1721.527,o),
(857.242,1724.898,o),
(848.755,1724.898,c),
(840.268,1724.898,o),
(832.128,1721.527,o),
(826.127,1715.525,c),
(820.126,1709.524,o),
(816.755,1701.385,o),
(816.755,1692.898,c),
(816.755,1684.411,o),
(820.126,1676.272,o),
(826.127,1670.271,c),
(832.128,1664.269,o),
(840.268,1660.898,o),
(848.755,1660.898,c),
(857.242,1660.898,o),
(865.381,1664.269,o),
(871.382,1670.271,c),
(877.383,1676.272,o),
(880.755,1684.411,o),
(880.755,1692.898,c)
);
}
);
visible = 1;
width = 1520;
}
);
unicode = 79;
}
{
glyphname = P;
layers = (
{
layerId = m01;
shapes = (
{
ref = _c.stemLA;
},
{
closed = 0;
nodes = (
(250,1700,l),
(350,1700,o),
(590,1700,o),
(690,1700,cs),
(955,1700,o),
(1200,1590,o),
(1200,1300,cs),
(1200,1010,o),
(955,870,o),
(690,870,cs),
(590,870,o),
(350,870,o),
(250,870,c)
);
}
);
width = 1380;
},
{
layerId = "FDE4885D-BB7A-448A-91AC-7911E70BCCB6";
shapes = (
{
pos = (250,1700);
ref = _dot;
},
{
pos = (250,870);
ref = _dot;
},
{
pos = (250,0);
ref = _dot;
},
{
pos = (250,1561.667);
ref = _dot;
},
{
pos = (250,1423.333);
ref = _dot;
},
{
pos = (250,1285);
ref = _dot;
},
{
pos = (250,1146.667);
ref = _dot;
},
{
pos = (250,1008.333);
ref = _dot;
},
{
pos = (250,725);
ref = _dot;
},
{
pos = (250,580);
ref = _dot;
},
{
pos = (250,435);
ref = _dot;
},
{
pos = (250,290);
ref = _dot;
},
{
pos = (250,145);
ref = _dot;
},
{
pos = (381.213,1700);
ref = _dot;
},
{
pos = (512.425,1700);
ref = _dot;
},
{
pos = (643.638,1700);
ref = _dot;
},
{
pos = (774.728,1696.071);
ref = _dot;
},
{
pos = (903.602,1672.404);
ref = _dot;
},
{
pos = (1024.159,1621.544);
ref = _dot;
},
{
pos = (1123.368,1536.751);
ref = _dot;
},
{
pos = (1183.478,1421.074);
ref = _dot;
},
{
pos = (1199.927,1291.408);
ref = _dot;
},
{
pos = (1178.978,1162.384);
ref = _dot;
},
{
pos = (1117.343,1047.32);
ref = _dot;
},
{
pos = (1020.605,959.523);
ref = _dot;
},
{
pos = (902.582,903.025);
ref = _dot;
},
{
pos = (774.666,874.894);
ref = _dot;
},
{
pos = (643.638,870);
ref = _dot;
},
{
pos = (512.425,870);
ref = _dot;
},
{
pos = (381.213,870);
ref = _dot;
}
);
width = 1380;
}
);
unicode = 80;
}
